<svg width="32" height="32" viewBox="0 0 32 32" fill="none" xmlns="http://www.w3.org/2000/svg">
<path d="M8.45095 19.7926C8.60723 18.4987 9.1379 17.7743 10.1379 17.0317C11.5688 16.0259 13.3561 16.5948 13.3561 16.5948V13.2197C13.7907 13.2085 14.2254 13.2343 14.6551 13.2966V17.6401C14.6551 17.6401 12.8683 17.0712 11.4375 18.0775C10.438 18.8196 9.90623 19.5446 9.7505 20.8385C9.74562 21.5411 9.87747 22.4595 10.4847 23.2536C10.3345 23.1766 10.1815 23.0889 10.0256 22.9905C8.68807 22.0923 8.44444 20.7449 8.45095 19.7926ZM22.0352 6.97898C21.0509 5.90039 20.6786 4.81139 20.5441 4.04639H21.7823C21.7823 4.04639 21.5354 6.05224 23.3347 8.02482L23.3597 8.05134C22.8747 7.7463 22.43 7.38624 22.0352 6.97898ZM28 10.0369V14.293C28 14.293 26.42 14.2312 25.2507 13.9337C23.6179 13.5176 22.5685 12.8795 22.5685 12.8795C22.5685 12.8795 21.8436 12.4245 21.785 12.3928V21.1817C21.785 21.6711 21.651 22.8932 21.2424 23.9125C20.709 25.246 19.8859 26.1212 19.7345 26.3001C19.7345 26.3001 18.7334 27.4832 16.9672 28.28C15.3752 28.9987 13.9774 28.9805 13.5596 28.9987C13.5596 28.9987 11.1434 29.0944 8.96915 27.6814C8.49898 27.3699 8.06011 27.0172 7.6582 26.6277L7.66906 26.6355C9.84383 28.0485 12.2595 27.9528 12.2595 27.9528C12.6779 27.9346 14.0756 27.9528 15.6671 27.2341C17.4317 26.4374 18.4344 25.2543 18.4344 25.2543C18.5842 25.0754 19.4111 24.2001 19.9423 22.8662C20.3498 21.8474 20.4849 20.6247 20.4849 20.1354V11.3475C20.5435 11.3797 21.2679 11.8347 21.2679 11.8347C21.2679 11.8347 22.3179 12.4734 23.9506 12.8889C25.1204 13.1864 26.7 13.2483 26.7 13.2483V9.91314C27.2404 10.0343 27.7011 10.0671 28 10.0369Z" fill="#959595"/>
<path d="M26.7004 9.91314V13.2472C26.7004 13.2472 25.1208 13.1853 23.951 12.8879C22.3183 12.4718 21.2683 11.8337 21.2683 11.8337C21.2683 11.8337 20.5439 11.3787 20.4853 11.3464V20.1364C20.4853 20.6258 20.3513 21.8484 19.9427 22.8672C19.4093 24.2012 18.5862 25.0764 18.4348 25.2553C18.4348 25.2553 17.4332 26.4384 15.6675 27.2352C14.076 27.9539 12.6783 27.9357 12.2599 27.9539C12.2599 27.9539 9.84424 28.0496 7.66946 26.6366L7.65861 26.6288C7.429 26.4064 7.21287 26.1717 7.01128 25.9257C6.31728 25.0795 5.89188 24.0789 5.78498 23.7934C5.7848 23.7922 5.7848 23.791 5.78498 23.7898C5.61298 23.2937 5.2516 22.1022 5.30098 20.9482C5.38834 18.9122 6.10458 17.6625 6.29395 17.3494C6.79549 16.4957 7.44779 15.7318 8.22184 15.0919C8.90489 14.5396 9.67911 14.1002 10.5127 13.7917C11.4139 13.4295 12.3789 13.2353 13.356 13.2197V16.5948C13.356 16.5948 11.5686 16.028 10.1383 17.0317C9.13831 17.7743 8.60763 18.4987 8.45136 19.7926C8.44485 20.7449 8.68848 22.0923 10.0249 22.991C10.1808 23.0898 10.3339 23.1775 10.484 23.2541C10.7175 23.5576 11.0016 23.8221 11.325 24.0368C12.6305 24.8632 13.7244 24.9209 15.1233 24.3842C16.056 24.0254 16.7582 23.2167 17.0837 22.3206C17.2883 21.7611 17.2856 21.1978 17.2856 20.6154V4.04639H20.5412C20.6758 4.81139 21.048 5.90039 22.0323 6.97898C22.4272 7.38624 22.8719 7.7463 23.3568 8.05134C23.5001 8.19955 24.2326 8.93231 25.1729 9.38216C25.6592 9.61469 26.1717 9.79285 26.7004 9.91314Z" fill="white"/>
<path d="M4.48926 22.757V22.7596L4.57004 22.9785C4.56076 22.953 4.53074 22.8755 4.48926 22.757Z" fill="#C8C8C8"/>
<path d="M10.5128 13.7916C9.67919 14.1002 8.90498 14.5396 8.22192 15.0918C7.44763 15.7332 6.79548 16.4987 6.29458 17.354C6.10521 17.6661 5.38897 18.9168 5.30161 20.9528C5.25223 22.1068 5.61361 23.2983 5.78561 23.7944C5.78543 23.7956 5.78543 23.7968 5.78561 23.798C5.89413 24.081 6.31791 25.0815 7.01191 25.9303C7.2135 26.1763 7.42963 26.4111 7.65924 26.6334C6.92357 26.1457 6.26746 25.5562 5.71236 24.8839C5.02433 24.0451 4.60001 23.0549 4.48932 22.7626C4.48919 22.7605 4.48919 22.7584 4.48932 22.7564V22.7527C4.31677 22.2571 3.95431 21.0651 4.00477 19.9096C4.09213 17.8736 4.80838 16.6239 4.99775 16.3108C5.4985 15.4553 6.15067 14.6898 6.92509 14.0486C7.608 13.4961 8.38225 13.0567 9.21598 12.7484C9.73602 12.5416 10.2778 12.3891 10.8319 12.2934C11.6669 12.1537 12.5198 12.1415 13.3588 12.2575V13.2196C12.3808 13.2349 11.4148 13.4291 10.5128 13.7916Z" fill="#C8C8C8"/>
<path d="M20.544 4.04635H17.2884V20.6159C17.2884 21.1983 17.2884 21.76 17.0865 22.3211C16.7577 23.2167 16.0583 24.0253 15.1261 24.3842C13.7267 24.923 12.6328 24.8632 11.3278 24.0368C11.0039 23.823 10.719 23.5594 10.4846 23.2567C11.5964 23.8251 12.5916 23.8152 13.8244 23.341C14.756 22.9821 15.4565 22.1734 15.7843 21.2774C15.9894 20.7178 15.9867 20.1546 15.9867 19.5726V3H20.4822C20.4822 3 20.4317 3.41188 20.544 4.04635ZM26.7005 8.99104V9.9131C26.1727 9.79263 25.6611 9.61447 25.1757 9.38213C24.2354 8.93228 23.5029 8.19952 23.3596 8.0513C23.5259 8.1559 23.6983 8.25106 23.8762 8.33629C25.0195 8.88339 26.1454 9.04669 26.7005 8.99104Z" fill="#C8C8C8"/>
</svg>
