<svg width="339" height="98" viewBox="0 0 339 98" fill="none" xmlns="http://www.w3.org/2000/svg">
<path d="M337.116 86.6986C337.116 91.9211 332.801 96.1515 327.463 96.1515H11.5489C6.21354 96.1515 1.88281 91.9211 1.88281 86.6986V11.3148C1.88281 6.09477 6.21354 1.84961 11.5489 1.84961H327.46C332.801 1.84961 337.114 6.09477 337.114 11.3148L337.116 86.6986Z" fill="black"/>
<path d="M326.444 1.96307C332.258 1.96307 336.988 6.57825 336.988 12.25V85.75C336.988 91.4218 332.258 96.0369 326.444 96.0369H12.5556C6.74233 96.0369 2.01203 91.4218 2.01203 85.75V12.25C2.01203 6.57825 6.74233 1.96307 12.5556 1.96307H326.444ZM326.444 7.62939e-06H12.5556C5.65314 7.62939e-06 0 5.51557 0 12.25V85.75C0 92.4844 5.65314 98 12.5556 98H326.444C333.347 98 339 92.4844 339 85.75V12.25C339 5.51557 333.347 7.62939e-06 326.444 7.62939e-06Z" fill="#A6A6A6"/>
<path d="M75.654 48.4716C75.5811 40.5752 82.2808 36.7336 82.5871 36.5548C78.7928 31.1574 72.9118 30.42 70.8452 30.3612C65.9058 29.854 61.1146 33.2448 58.5985 33.2448C56.0321 33.2448 52.1575 30.4102 47.9815 30.4935C42.6077 30.5743 37.5805 33.6099 34.8233 38.3237C29.1331 47.935 33.3769 62.0593 38.8285 69.8282C41.5556 73.6331 44.7422 77.8814 48.9131 77.7319C52.9937 77.5678 54.5179 75.1937 59.4422 75.1937C64.3213 75.1937 65.7526 77.7319 70.0065 77.6364C74.3858 77.5678 77.143 73.8144 79.7747 69.9752C82.9261 65.6142 84.1917 61.3194 84.242 61.0989C84.139 61.0646 75.7368 57.9359 75.654 48.4716Z" fill="white"/>
<path d="M67.6184 25.2505C69.8131 22.5726 71.3148 18.9295 70.8979 15.2324C67.7214 15.3696 63.7488 17.3762 61.4612 19.9952C59.4372 22.3031 57.6292 26.0859 58.0963 29.6433C61.6646 29.903 65.3283 27.8867 67.6184 25.2505Z" fill="white"/>
<path d="M123.171 24.5228C123.171 27.4064 122.284 29.5771 120.514 31.0349C118.874 32.3799 116.544 33.0537 113.525 33.0537C112.029 33.0537 110.748 32.99 109.676 32.8626V17.1066C111.074 16.8861 112.581 16.7734 114.208 16.7734C117.084 16.7734 119.251 17.3835 120.712 18.6036C122.349 19.9829 123.171 21.9552 123.171 24.5228ZM120.396 24.5938C120.396 22.7245 119.888 21.2912 118.874 20.2916C117.86 19.2945 116.378 18.7947 114.427 18.7947C113.598 18.7947 112.893 18.8486 112.307 18.9613V30.9393C112.631 30.9883 113.224 31.0104 114.085 31.0104C116.099 31.0104 117.654 30.464 118.748 29.3713C119.843 28.2786 120.396 26.6861 120.396 24.5938Z" fill="white"/>
<path d="M137.883 27.0413C137.883 28.8175 137.363 30.2728 136.323 31.4145C135.234 32.588 133.79 33.1736 131.987 33.1736C130.249 33.1736 128.865 32.6126 127.833 31.4856C126.804 30.361 126.289 28.9425 126.289 27.2324C126.289 25.4439 126.819 23.9763 127.884 22.8371C128.948 21.6978 130.38 21.127 132.183 21.127C133.92 21.127 135.317 21.688 136.374 22.8126C137.378 23.9053 137.883 25.3165 137.883 27.0413ZM135.153 27.1246C135.153 26.0588 134.917 25.145 134.448 24.383C133.895 23.4618 133.109 23.0012 132.087 23.0012C131.03 23.0012 130.226 23.4618 129.674 24.383C129.202 25.145 128.968 26.0735 128.968 27.1711C128.968 28.2369 129.204 29.1507 129.674 29.9127C130.244 30.8338 131.038 31.2945 132.062 31.2945C133.067 31.2945 133.855 30.8265 134.423 29.8882C134.91 29.1115 135.153 28.1903 135.153 27.1246Z" fill="white"/>
<path d="M157.61 21.3613L153.906 32.9106H151.495L149.961 27.8955C149.572 26.6435 149.255 25.3989 149.009 24.1641H148.962C148.733 25.4332 148.417 26.6754 148.01 27.8955L146.38 32.9106H143.942L140.459 21.3613H143.163L144.502 26.8518C144.826 28.1503 145.092 29.3875 145.305 30.5586H145.353C145.549 29.5933 145.873 28.3634 146.33 26.8763L148.01 21.3638H150.154L151.764 26.7587C152.153 28.0743 152.47 29.341 152.713 30.5611H152.786C152.964 29.3728 153.233 28.1062 153.59 26.7587L155.026 21.3638H157.61V21.3613Z" fill="white"/>
<path d="M171.253 32.911H168.621V26.296C168.621 24.2576 167.828 23.2384 166.236 23.2384C165.455 23.2384 164.824 23.5177 164.335 24.0787C163.85 24.6398 163.604 25.3013 163.604 26.0583V32.9085H160.972V24.6618C160.972 23.6475 160.94 22.5475 160.877 21.3568H163.19L163.313 23.1624H163.386C163.692 22.6014 164.149 22.1383 164.749 21.7684C165.462 21.3372 166.261 21.1191 167.135 21.1191C168.24 21.1191 169.159 21.467 169.889 22.1653C170.798 23.0203 171.253 24.2968 171.253 25.9922V32.911Z" fill="white"/>
<path d="M178.51 32.9111H175.881V16.0625H178.51V32.9111Z" fill="white"/>
<path d="M194.004 27.0413C194.004 28.8175 193.484 30.2728 192.445 31.4145C191.355 32.588 189.908 33.1736 188.108 33.1736C186.368 33.1736 184.984 32.6126 183.954 31.4856C182.925 30.361 182.41 28.9425 182.41 27.2324C182.41 25.4439 182.94 23.9763 184.005 22.8371C185.069 21.6978 186.501 21.127 188.301 21.127C190.041 21.127 191.435 21.688 192.495 22.8126C193.499 23.9053 194.004 25.3165 194.004 27.0413ZM191.272 27.1246C191.272 26.0588 191.036 25.145 190.566 24.383C190.016 23.4618 189.228 23.0012 188.208 23.0012C187.149 23.0012 186.345 23.4618 185.795 24.383C185.323 25.145 185.09 26.0735 185.09 27.1711C185.09 28.2369 185.326 29.1507 185.795 29.9127C186.365 30.8338 187.159 31.2945 188.183 31.2945C189.188 31.2945 189.974 30.8265 190.541 29.8882C191.031 29.1115 191.272 28.1903 191.272 27.1246Z" fill="white"/>
<path d="M206.739 32.9114H204.377L204.181 31.5811H204.108C203.299 32.642 202.147 33.1736 200.65 33.1736C199.533 33.1736 198.629 32.8233 197.948 32.1275C197.33 31.4954 197.021 30.7089 197.021 29.7755C197.021 28.3643 197.624 27.2887 198.837 26.5439C200.047 25.7991 201.75 25.4341 203.942 25.4512V25.2356C203.942 23.7142 203.123 22.9547 201.484 22.9547C200.316 22.9547 199.287 23.2413 198.398 23.8097L197.863 22.1241C198.963 21.4602 200.321 21.127 201.923 21.127C205.017 21.127 206.569 22.7195 206.569 25.9045V30.1577C206.569 31.3116 206.626 32.2303 206.739 32.9114ZM204.007 28.9425V27.1613C201.105 27.1123 199.653 27.889 199.653 29.4888C199.653 30.0915 199.819 30.5423 200.158 30.8437C200.497 31.145 200.929 31.2945 201.444 31.2945C202.021 31.2945 202.561 31.1156 203.053 30.7604C203.548 30.4027 203.852 29.9494 203.965 29.3933C203.992 29.2683 204.007 29.1164 204.007 28.9425Z" fill="white"/>
<path d="M221.695 32.9111H219.359L219.236 31.0565H219.163C218.418 32.4677 217.147 33.1733 215.361 33.1733C213.935 33.1733 212.747 32.627 211.806 31.5343C210.864 30.4416 210.395 29.023 210.395 27.2811C210.395 25.4117 210.904 23.8976 211.929 22.7412C212.921 21.6632 214.136 21.1242 215.582 21.1242C217.172 21.1242 218.284 21.646 218.917 22.6922H218.967V16.0625H221.602V29.7997C221.602 30.9242 221.632 31.9605 221.695 32.9111ZM218.967 28.0405V26.1149C218.967 25.7817 218.942 25.5122 218.895 25.3064C218.746 24.689 218.428 24.1695 217.943 23.7506C217.453 23.3317 216.863 23.121 216.183 23.121C215.201 23.121 214.432 23.5007 213.867 24.2626C213.307 25.0246 213.024 25.9972 213.024 27.1855C213.024 28.3272 213.292 29.2533 213.832 29.9662C214.402 30.7257 215.171 31.1055 216.132 31.1055C216.996 31.1055 217.687 30.7894 218.212 30.1549C218.719 29.5693 218.967 28.8637 218.967 28.0405Z" fill="white"/>
<path d="M244.201 27.0413C244.201 28.8175 243.681 30.2728 242.642 31.4145C241.552 32.588 240.111 33.1736 238.305 33.1736C236.57 33.1736 235.186 32.6126 234.152 31.4856C233.122 30.361 232.607 28.9425 232.607 27.2324C232.607 25.4439 233.137 23.9763 234.202 22.8371C235.267 21.6978 236.698 21.127 238.504 21.127C240.239 21.127 241.637 21.688 242.692 22.8126C243.696 23.9053 244.201 25.3165 244.201 27.0413ZM241.474 27.1246C241.474 26.0588 241.238 25.145 240.769 24.383C240.214 23.4618 239.43 23.0012 238.406 23.0012C237.351 23.0012 236.547 23.4618 235.992 24.383C235.52 25.145 235.287 26.0735 235.287 27.1711C235.287 28.2369 235.523 29.1507 235.992 29.9127C236.562 30.8338 237.356 31.2945 238.38 31.2945C239.385 31.2945 240.176 30.8265 240.743 29.8882C241.228 29.1115 241.474 28.1903 241.474 27.1246Z" fill="white"/>
<path d="M258.352 32.911H255.723V26.296C255.723 24.2576 254.929 23.2384 253.335 23.2384C252.554 23.2384 251.923 23.5177 251.436 24.0787C250.949 24.6398 250.706 25.3013 250.706 26.0583V32.9085H248.071V24.6618C248.071 23.6475 248.041 22.5475 247.979 21.3568H250.289L250.412 23.1624H250.485C250.793 22.6014 251.25 22.1383 251.848 21.7684C252.564 21.3372 253.36 21.1191 254.236 21.1191C255.339 21.1191 256.258 21.467 256.988 22.1653C257.9 23.0203 258.352 24.2968 258.352 25.9922V32.911Z" fill="white"/>
<path d="M276.063 23.2859H273.165V28.8964C273.165 30.3223 273.68 31.0352 274.699 31.0352C275.171 31.0352 275.563 30.996 275.872 30.9152L275.94 32.8629C275.42 33.054 274.737 33.1496 273.896 33.1496C272.856 33.1496 272.048 32.8409 271.463 32.2235C270.875 31.6061 270.584 30.5673 270.584 29.1095V23.2859H268.854V21.3626H270.584V19.2458L273.163 18.4863V21.3602H276.06V23.2859H276.063Z" fill="white"/>
<path d="M289.993 32.9111H287.359V26.3452C287.359 24.2749 286.566 23.2385 284.976 23.2385C283.756 23.2385 282.922 23.8388 282.465 25.0393C282.387 25.2917 282.342 25.6004 282.342 25.963V32.9087H279.713V16.0625H282.342V23.023H282.392C283.221 21.7563 284.409 21.1242 285.948 21.1242C287.038 21.1242 287.939 21.4721 288.655 22.1703C289.546 23.0401 289.993 24.3337 289.993 26.0438V32.9111Z" fill="white"/>
<path d="M304.364 26.591C304.364 27.0516 304.329 27.4387 304.266 27.7548H296.374C296.409 28.8965 296.785 29.7662 297.516 30.3689C298.184 30.9079 299.045 31.1774 300.1 31.1774C301.268 31.1774 302.332 30.9961 303.292 30.6311L303.703 32.4147C302.581 32.89 301.26 33.1276 299.731 33.1276C297.898 33.1276 296.454 32.6009 295.409 31.5474C294.36 30.4939 293.84 29.0802 293.84 27.3064C293.84 25.5645 294.324 24.1141 295.301 22.9577C296.321 21.7229 297.699 21.1055 299.44 21.1055C301.142 21.1055 302.435 21.7229 303.309 22.9577C304.015 23.9377 304.364 25.1504 304.364 26.591ZM301.853 25.9271C301.873 25.1651 301.7 24.5085 301.343 23.9548C300.886 23.2419 300.19 22.8842 299.249 22.8842C298.39 22.8842 297.689 23.2321 297.155 23.9303C296.718 24.4865 296.459 25.1504 296.374 25.9271H301.853Z" fill="white"/>
<path d="M134.708 77.1847H129.006L125.882 67.6076H115.024L112.048 77.1847H106.496L117.254 44.5801H123.898L134.708 77.1847ZM124.94 63.5896L122.115 55.0759C121.816 54.2061 121.256 52.1579 120.43 48.9337H120.33C120.001 50.3204 119.471 52.3686 118.743 55.0759L115.968 63.5896H124.94Z" fill="white"/>
<path d="M162.373 65.1401C162.373 69.1385 161.266 72.299 159.051 74.6191C157.067 76.6845 154.604 77.7159 151.663 77.7159C148.489 77.7159 146.209 76.6036 144.82 74.379H144.72V86.7638H139.366V61.4136C139.366 58.8999 139.299 56.3201 139.168 53.6741H143.876L144.175 57.4005H144.276C146.061 54.5928 148.77 53.1914 152.407 53.1914C155.249 53.1914 157.622 54.2866 159.521 56.4793C161.424 58.6745 162.373 61.5606 162.373 65.1401ZM156.919 65.3312C156.919 63.0429 156.392 61.1564 155.332 59.6717C154.174 58.1233 152.62 57.3491 150.671 57.3491C149.351 57.3491 148.15 57.7803 147.078 58.6304C146.003 59.4879 145.3 60.6076 144.971 61.9943C144.805 62.6411 144.723 63.1703 144.723 63.5868V67.5068C144.723 69.2169 145.26 70.6599 146.335 71.8384C147.409 73.0168 148.806 73.6048 150.523 73.6048C152.54 73.6048 154.109 72.8453 155.232 71.3312C156.357 69.8147 156.919 67.8155 156.919 65.3312Z" fill="white"/>
<path d="M190.089 65.1401C190.089 69.1385 188.982 72.299 186.765 74.6191C184.783 76.6845 182.32 77.7159 179.379 77.7159C176.205 77.7159 173.925 76.6036 172.539 74.379H172.439V86.7638H167.085V61.4136C167.085 58.8999 167.017 56.3201 166.887 53.6741H171.595L171.894 57.4005H171.994C173.777 54.5928 176.487 53.1914 180.125 53.1914C182.965 53.1914 185.338 54.2866 187.242 56.4793C189.138 58.6745 190.089 61.5606 190.089 65.1401ZM184.635 65.3312C184.635 63.0429 184.105 61.1564 183.046 59.6717C181.888 58.1233 180.339 57.3491 178.388 57.3491C177.064 57.3491 175.866 57.7803 174.792 58.6304C173.717 59.4879 173.016 60.6076 172.687 61.9943C172.524 62.6411 172.439 63.1703 172.439 63.5868V67.5068C172.439 69.2169 172.976 70.6599 174.046 71.8384C175.121 73.0144 176.517 73.6048 178.239 73.6048C180.256 73.6048 181.825 72.8453 182.948 71.3312C184.073 69.8147 184.635 67.8155 184.635 65.3312Z" fill="white"/>
<path d="M221.075 68.0405C221.075 70.8139 220.089 73.0704 218.107 74.8123C215.93 76.716 212.899 77.6666 209.005 77.6666C205.409 77.6666 202.526 76.9904 200.344 75.6355L201.584 71.2819C203.935 72.6686 206.514 73.3644 209.323 73.3644C211.34 73.3644 212.909 72.9185 214.037 72.0316C215.159 71.1447 215.719 69.954 215.719 68.4693C215.719 67.1463 215.257 66.0315 214.331 65.1275C213.409 64.2234 211.87 63.3831 209.72 62.6064C203.869 60.4774 200.946 57.3585 200.946 53.2572C200.946 50.5769 201.971 48.3793 204.023 46.6692C206.067 44.9566 208.794 44.1016 212.204 44.1016C215.245 44.1016 217.771 44.6185 219.787 45.65L218.449 49.9081C216.566 48.9085 214.436 48.4087 212.053 48.4087C210.17 48.4087 208.698 48.8619 207.644 49.7635C206.752 50.5696 206.305 51.552 206.305 52.7158C206.305 54.0045 206.815 55.0702 207.839 55.9081C208.731 56.6823 210.351 57.5202 212.701 58.4243C215.576 59.5537 217.688 60.8743 219.047 62.3884C220.4 63.8976 221.075 65.7865 221.075 68.0405Z" fill="white"/>
<path d="M238.776 57.5944H232.875V69.0089C232.875 71.9122 233.915 73.3626 235.999 73.3626C236.956 73.3626 237.749 73.2817 238.377 73.12L238.525 77.0866C237.471 77.4712 236.082 77.6648 234.362 77.6648C232.248 77.6648 230.595 77.0351 229.403 75.7783C228.215 74.519 227.617 72.4071 227.617 69.4401V57.5895H224.102V53.6695H227.617V49.3648L232.875 47.8164V53.6695H238.776V57.5944Z" fill="white"/>
<path d="M265.401 65.2351C265.401 68.8489 264.341 71.8158 262.227 74.136C260.009 76.5247 257.066 77.7154 253.398 77.7154C249.862 77.7154 247.047 76.5713 244.948 74.283C242.848 71.9947 241.799 69.1061 241.799 65.6247C241.799 61.9815 242.879 58.9974 245.046 56.6773C247.208 54.3547 250.126 53.1934 253.794 53.1934C257.33 53.1934 260.175 54.3375 262.322 56.6283C264.376 58.8504 265.401 61.7194 265.401 65.2351ZM259.846 65.4042C259.846 63.2359 259.372 61.3764 258.41 59.8255C257.287 57.9488 255.683 57.0129 253.604 57.0129C251.452 57.0129 249.817 57.9513 248.694 59.8255C247.733 61.3788 247.258 63.2678 247.258 65.5022C247.258 67.6704 247.733 69.53 248.694 71.0784C249.852 72.9551 251.469 73.891 253.556 73.891C255.6 73.891 257.204 72.9355 258.362 71.0294C259.349 69.4491 259.846 67.57 259.846 65.4042Z" fill="white"/>
<path d="M282.804 58.2678C282.274 58.1723 281.709 58.1233 281.117 58.1233C279.233 58.1233 277.777 58.8166 276.752 60.2058C275.861 61.4308 275.414 62.9792 275.414 64.8485V77.1843H270.063L270.113 61.078C270.113 58.3683 270.045 55.9011 269.912 53.6765H274.575L274.771 58.1747H274.919C275.484 56.6288 276.376 55.3842 277.596 54.4507C278.789 53.6104 280.077 53.1914 281.466 53.1914C281.96 53.1914 282.407 53.2257 282.804 53.287V58.2678Z" fill="white"/>
<path d="M306.747 64.316C306.747 65.2519 306.684 66.0408 306.551 66.6852H290.49C290.553 69.0078 291.329 70.784 292.82 72.009C294.174 73.1042 295.924 73.653 298.073 73.653C300.451 73.653 302.621 73.283 304.572 72.5407L305.411 76.1667C303.131 77.1369 300.439 77.6195 297.333 77.6195C293.596 77.6195 290.663 76.5464 288.529 74.4027C286.399 72.2589 285.332 69.3802 285.332 65.7689C285.332 62.2237 286.324 59.2715 288.31 56.917C290.389 54.4033 293.199 53.1465 296.735 53.1465C300.208 53.1465 302.837 54.4033 304.622 56.917C306.036 58.9138 306.747 61.3834 306.747 64.316ZM301.642 62.9612C301.677 61.4128 301.328 60.0751 300.602 58.9456C299.675 57.4928 298.252 56.7676 296.336 56.7676C294.585 56.7676 293.162 57.4756 292.074 58.8966C291.183 60.0261 290.653 61.3809 290.49 62.9587H301.642V62.9612Z" fill="white"/>
</svg>
