<svg width="36" height="36" viewBox="0 0 36 36" fill="none" xmlns="http://www.w3.org/2000/svg">
<rect width="36" height="36" rx="18" fill="#D7DCFF"/>
<path fill-rule="evenodd" clip-rule="evenodd" d="M9 18C9 14.4049 9 12.6073 9.85669 11.3126C10.2392 10.7344 10.7344 10.2392 11.3126 9.85669C12.6073 9 14.4049 9 18 9C21.5951 9 23.3927 9 24.6874 9.85669C25.2656 10.2392 25.7608 10.7344 26.1433 11.3126C27 12.6073 27 14.4049 27 18C27 21.5951 27 23.3927 26.1433 24.6874C25.7608 25.2656 25.2656 25.7608 24.6874 26.1433C23.3927 27 21.5951 27 18 27C14.4049 27 12.6073 27 11.3126 26.1433C10.7344 25.7608 10.2392 25.2656 9.85669 24.6874C9 23.3927 9 21.5951 9 18ZM22.6593 18.0002C22.6593 20.5735 20.5732 22.6596 17.9998 22.6596C15.4265 22.6596 13.3404 20.5735 13.3404 18.0002C13.3404 15.4269 15.4265 13.3408 17.9998 13.3408C20.5732 13.3408 22.6593 15.4269 22.6593 18.0002ZM17.9998 21.0832C19.7025 21.0832 21.0828 19.7029 21.0828 18.0002C21.0828 16.2975 19.7025 14.9172 17.9998 14.9172C16.2971 14.9172 14.9168 16.2975 14.9168 18.0002C14.9168 19.7029 16.2971 21.0832 17.9998 21.0832ZM22.8433 14.2015C23.4479 14.2015 23.9381 13.7114 23.9381 13.1067C23.9381 12.5021 23.4479 12.0119 22.8433 12.0119C22.2386 12.0119 21.7485 12.5021 21.7485 13.1067C21.7485 13.7114 22.2386 14.2015 22.8433 14.2015Z" fill="#00246B"/>
</svg>
