<svg width="36" height="36" viewBox="0 0 36 36" fill="none" xmlns="http://www.w3.org/2000/svg">
<rect width="36" height="36" rx="18" fill="#D7DCFF"/>
<path d="M21.0271 10.7005V10.6973H21.8711L22.1794 10.7589C22.385 10.7988 22.5717 10.8512 22.7394 10.9161C22.9071 10.9809 23.0694 11.0566 23.2263 11.143C23.3832 11.2294 23.5255 11.3175 23.6532 11.4072C23.7798 11.4958 23.8934 11.5898 23.9941 11.6892C24.0936 11.7897 24.2489 11.8156 24.4599 11.767C24.6709 11.7184 24.8981 11.6509 25.1416 11.5644C25.385 11.478 25.6258 11.3807 25.8638 11.2727C26.1019 11.1646 26.2469 11.096 26.2988 11.0668C26.3497 11.0366 26.3768 11.0204 26.38 11.0182L26.3832 11.0133L26.3995 11.0052L26.4157 10.9971L26.4319 10.989L26.4482 10.9809L26.4514 10.9761L26.4563 10.9728L26.4612 10.9696L26.4644 10.9647L26.4806 10.9598L26.4968 10.9566L26.4936 10.9809L26.4887 11.0052L26.4806 11.0295L26.4725 11.0539L26.4644 11.0701L26.4563 11.0863L26.4482 11.1106C26.4427 11.1268 26.4373 11.1484 26.4319 11.1754C26.4265 11.2024 26.3751 11.3105 26.2777 11.4996C26.1803 11.6887 26.0586 11.8805 25.9125 12.075C25.7665 12.2695 25.6355 12.4164 25.5198 12.5158C25.4029 12.6163 25.3255 12.6866 25.2876 12.7266C25.2498 12.7676 25.2038 12.8054 25.1497 12.84L25.0685 12.8935L25.0523 12.9016L25.0361 12.9097L25.0328 12.9146L25.028 12.9178L25.0231 12.9211L25.0198 12.9259L25.0036 12.934L24.9874 12.9421L24.9841 12.947L24.9793 12.9502L24.9744 12.9535L24.9711 12.9583L24.9679 12.9632L24.963 12.9664L24.9582 12.9697L24.9549 12.9745H25.0361L25.4905 12.8773C25.7935 12.8125 26.083 12.7341 26.3589 12.6423L26.7971 12.4964L26.8458 12.4802L26.8702 12.4721L26.8864 12.464L26.9026 12.4559L26.9188 12.4478L26.9351 12.4397L26.9675 12.4348L27 12.4316V12.464L26.9919 12.4672L26.9838 12.4721L26.9805 12.4769L26.9757 12.4802L26.9708 12.4834L26.9675 12.4883L26.9643 12.4932L26.9594 12.4964L26.9546 12.4996L26.9513 12.5045L26.9481 12.5094L26.9432 12.5126L26.9351 12.5288L26.927 12.545L26.9221 12.5483C26.9199 12.5515 26.8512 12.6433 26.716 12.8238C26.5807 13.0053 26.5077 13.0972 26.4968 13.0994C26.486 13.1026 26.4709 13.1188 26.4514 13.148C26.433 13.1782 26.3183 13.2987 26.1073 13.5094C25.8963 13.7201 25.6897 13.9076 25.4873 14.0719C25.2839 14.2372 25.1811 14.4403 25.1789 14.6813C25.1757 14.9212 25.1632 15.1924 25.1416 15.495C25.1199 15.7975 25.0794 16.1244 25.0198 16.4756C24.9603 16.8268 24.8684 17.2239 24.7439 17.6669C24.6195 18.1099 24.468 18.5421 24.2894 18.9636C24.1109 19.385 23.9243 19.7632 23.7295 20.0981C23.5347 20.4331 23.3562 20.7168 23.1939 20.9491C23.0316 21.1814 22.8666 21.4002 22.6988 21.6055C22.5311 21.8108 22.319 22.0421 22.0626 22.2992C21.8051 22.5553 21.6644 22.6958 21.6406 22.7207C21.6157 22.7444 21.5097 22.8331 21.3225 22.9865C21.1363 23.141 20.9362 23.2955 20.7219 23.45C20.5088 23.6035 20.3129 23.7315 20.1344 23.8342C19.9558 23.9368 19.7405 24.0541 19.4884 24.1859C19.2373 24.3188 18.9657 24.442 18.6736 24.5555C18.3814 24.6689 18.073 24.7743 17.7484 24.8715C17.4238 24.9688 17.11 25.0444 16.807 25.0984C16.5041 25.1525 16.1605 25.1984 15.7764 25.2362L15.2002 25.2929V25.301H14.1452V25.2929L14.0072 25.2848C13.9152 25.2794 13.8395 25.274 13.78 25.2686C13.7205 25.2632 13.4959 25.2335 13.1064 25.1795C12.7169 25.1255 12.4112 25.0714 12.1894 25.0174C11.9675 24.9634 11.6375 24.8607 11.1993 24.7094C10.761 24.5582 10.3861 24.4053 10.0745 24.2507C9.76394 24.0973 9.56917 24 9.49017 23.959C9.41226 23.919 9.32462 23.8693 9.22723 23.8099L9.08115 23.7207L9.07792 23.7159L9.07304 23.7126L9.06817 23.7094L9.06492 23.7045L9.04869 23.6964L9.03246 23.6883L9.02923 23.6834L9.02435 23.6802L9.01948 23.677L9.01623 23.6721L9.013 23.6672L9.00812 23.664H9V23.6316L9.01623 23.6348L9.03246 23.6397L9.1055 23.6478C9.15419 23.6532 9.28675 23.6613 9.50316 23.6721C9.71958 23.6829 9.9495 23.6829 10.193 23.6721C10.4364 23.6613 10.6853 23.637 10.9396 23.5992C11.1939 23.5613 11.4941 23.4965 11.8404 23.4047C12.1867 23.3128 12.5048 23.2037 12.7948 23.0772C13.0837 22.9498 13.2893 22.8547 13.4116 22.792C13.5327 22.7304 13.7178 22.6158 13.9666 22.4484L14.3399 22.1971L14.3432 22.1923L14.3481 22.189L14.3529 22.1858L14.3562 22.1809L14.3594 22.1761L14.3643 22.1728L14.3692 22.1696L14.3724 22.1647L14.3886 22.1599L14.4049 22.1566L14.4081 22.1404L14.413 22.1242L14.4179 22.121L14.4211 22.1161L14.2913 22.108C14.2047 22.1026 14.1208 22.0972 14.0397 22.0918C13.9585 22.0864 13.8314 22.0621 13.6583 22.0188C13.4851 21.9756 13.2985 21.9108 13.0983 21.8243C12.8981 21.7379 12.7033 21.6352 12.514 21.5164C12.3246 21.3975 12.1877 21.2986 12.1033 21.2198C12.02 21.1419 11.9118 21.0317 11.7787 20.8891C11.6467 20.7454 11.532 20.5979 11.4346 20.4466C11.3372 20.2954 11.2442 20.1208 11.1555 19.9231L11.0207 19.6281L11.0126 19.6038L11.0045 19.5795L10.9996 19.5633L10.9964 19.5471L11.0207 19.5503L11.0451 19.5552L11.2236 19.5795C11.3427 19.5957 11.5293 19.6011 11.7836 19.5957C12.0379 19.5903 12.2137 19.5795 12.3111 19.5633C12.4085 19.5471 12.468 19.5362 12.4896 19.5308L12.5221 19.5227L12.5627 19.5146L12.6032 19.5065L12.6065 19.5017L12.6114 19.4984L12.6162 19.4952L12.6195 19.4903L12.587 19.4822L12.5546 19.4741L12.5221 19.466L12.4896 19.4579L12.4572 19.4498C12.4355 19.4444 12.3977 19.4336 12.3436 19.4174C12.2895 19.4012 12.1434 19.3417 11.9053 19.2391C11.6673 19.1364 11.4779 19.0365 11.3372 18.9392C11.1962 18.8417 11.0618 18.735 10.9347 18.6199C10.8081 18.5032 10.6691 18.353 10.5176 18.1693C10.3661 17.9857 10.2308 17.7722 10.1118 17.5291C9.99279 17.286 9.90352 17.0537 9.844 16.8321C9.78472 16.6119 9.74561 16.3868 9.72716 16.1595L9.69793 15.8191L9.71416 15.8224L9.73039 15.8272L9.74662 15.8353L9.76285 15.8434L9.77908 15.8515L9.79531 15.8596L10.0469 15.9731C10.2146 16.0487 10.4229 16.1136 10.6718 16.1676C10.9207 16.2216 11.0694 16.2514 11.1181 16.2567L11.1912 16.2649H11.3372L11.334 16.26L11.3291 16.2567L11.3243 16.2535L11.321 16.2486L11.3178 16.2438L11.3129 16.2405L11.308 16.2373L11.3048 16.2324L11.2885 16.2243L11.2723 16.2162L11.2691 16.2114L11.2642 16.2081L11.2593 16.2049L11.2561 16.2L11.2399 16.1919L11.2236 16.1838L11.2204 16.1789C11.2171 16.1768 11.1706 16.1422 11.0808 16.0752C10.9921 16.0071 10.899 15.9191 10.8016 15.811C10.7042 15.703 10.6069 15.5895 10.5095 15.4706C10.4119 15.3515 10.325 15.2241 10.2498 15.0897C10.174 14.9547 10.094 14.7829 10.0096 14.5743C9.92625 14.3668 9.86294 14.1578 9.81966 13.9471C9.77639 13.7363 9.75204 13.5283 9.74662 13.323C9.74121 13.1177 9.74662 12.9421 9.76285 12.7963C9.77908 12.6504 9.81154 12.4856 9.86023 12.3019C9.90893 12.1182 9.97927 11.9237 10.0712 11.7184L10.2092 11.4104L10.2173 11.3861L10.2254 11.3618L10.2303 11.3586L10.2335 11.3537L10.2368 11.3488L10.2417 11.3456L10.2465 11.3488L10.2498 11.3537L10.253 11.3586L10.2579 11.3618L10.2628 11.3651L10.266 11.3699L10.2693 11.3748L10.2741 11.378L10.2822 11.3942L10.2904 11.4104L10.2952 11.4137L10.2985 11.4185L10.5176 11.6617C10.6637 11.8238 10.8368 12.0047 11.037 12.2046C11.2372 12.4045 11.3481 12.5083 11.3697 12.5158C11.3914 12.5245 11.4184 12.5493 11.4509 12.5904C11.4833 12.6304 11.5915 12.726 11.7755 12.8773C11.9594 13.0286 12.2002 13.2042 12.4977 13.4041C12.7953 13.604 13.1253 13.8012 13.4878 13.9957C13.8503 14.1902 14.2399 14.3658 14.6564 14.5224C15.073 14.6791 15.3652 14.7818 15.5329 14.8304C15.7006 14.879 15.9874 14.9412 16.3931 15.0168C16.7989 15.0925 17.1046 15.1411 17.3102 15.1627C17.5158 15.1843 17.6565 15.1967 17.7322 15.2L17.8458 15.2032L17.8426 15.1789L17.8377 15.1546L17.8052 14.952C17.7836 14.8169 17.7728 14.6278 17.7728 14.3847C17.7728 14.1416 17.7917 13.9173 17.8296 13.712C17.8675 13.5067 17.9243 13.2987 18 13.088C18.0757 12.8773 18.1499 12.7082 18.2224 12.5807C18.296 12.4543 18.3923 12.31 18.5113 12.1479C18.6303 11.9858 18.7845 11.8184 18.9739 11.6455C19.1632 11.4726 19.3796 11.3186 19.6231 11.1835C19.8665 11.0485 20.0911 10.9458 20.2967 10.8756C20.5023 10.8053 20.6754 10.7594 20.8161 10.7378C20.9567 10.7162 21.0271 10.7037 21.0271 10.7005Z" fill="#00246B"/>
</svg>
