<svg width="84" height="60" viewBox="0 0 84 60" fill="none" xmlns="http://www.w3.org/2000/svg">
<rect x="0.5" y="0.5" width="83" height="59" rx="5.5" fill="#1A1A1A"/>
<rect x="0.5" y="0.5" width="83" height="59" rx="5.5" stroke="#262626"/>
<g clip-path="url(#clip0_3674_11218)">
<path d="M43.5374 30.2261C43.5374 33.9969 40.5069 37.0536 36.7688 37.0536C33.0307 37.0536 30 33.9962 30 30.2261C30 26.4561 33.0305 23.3984 36.7688 23.3984C40.5072 23.3984 43.5374 26.4554 43.5374 30.2261Z" fill="white"/>
<path d="M50.9642 30.2246C50.9642 33.7739 49.4489 36.6524 47.5797 36.6524C45.7106 36.6524 44.1953 33.7739 44.1953 30.2246C44.1953 26.6753 45.7103 23.7969 47.5795 23.7969C49.4487 23.7969 50.9639 26.6744 50.9639 30.2246" fill="white"/>
<path d="M54.0015 30.227C54.0015 33.4063 53.4686 35.9853 52.8112 35.9853C52.1537 35.9853 51.6211 33.407 51.6211 30.227C51.6211 27.047 52.1539 24.4688 52.8112 24.4688C53.4684 24.4688 54.0015 27.0468 54.0015 30.227Z" fill="white"/>
</g>
<defs>
<clipPath id="clip0_3674_11218">
<rect width="24" height="24" fill="white" transform="translate(30 18)"/>
</clipPath>
</defs>
</svg>
