<svg width="84" height="60" viewBox="0 0 84 60" fill="none" xmlns="http://www.w3.org/2000/svg">
<rect x="0.5" y="0.5" width="83" height="59" rx="5.5" fill="#1A1A1A"/>
<rect x="0.5" y="0.5" width="83" height="59" rx="5.5" stroke="#262626"/>
<path d="M51.0586 25.1792C51.0678 25.3904 51.0679 25.592 51.0679 25.8032C51.0771 32.2064 46.3726 39.5984 37.7694 39.5984C35.2319 39.5984 32.7408 38.84 30.6016 37.4192C30.972 37.4672 31.3424 37.4864 31.7129 37.4864C33.815 37.4864 35.8617 36.7568 37.5194 35.4032C35.519 35.3648 33.7595 34.0112 33.1483 32.0336C33.8521 32.1776 34.5744 32.1488 35.2597 31.9472C33.0834 31.5056 31.5184 29.5184 31.5091 27.2048C31.5091 27.1856 31.5091 27.1664 31.5091 27.1472C32.1574 27.5216 32.889 27.7328 33.6298 27.752C31.5832 26.3312 30.9442 23.4992 32.1852 21.2816C34.5652 24.3152 38.0657 26.1488 41.8256 26.3504C41.4459 24.6704 41.9645 22.904 43.1777 21.7136C45.0576 19.88 48.0211 19.976 49.7991 21.9248C50.8456 21.7136 51.855 21.3104 52.7718 20.744C52.4199 21.8672 51.6883 22.8176 50.7159 23.4224C51.642 23.3072 52.5496 23.048 53.4016 22.664C52.7718 23.6432 51.9754 24.488 51.0586 25.1792Z" fill="white"/>
</svg>
