<svg width="84" height="60" viewBox="0 0 84 60" fill="none" xmlns="http://www.w3.org/2000/svg">
<rect x="0.5" y="0.5" width="83" height="59" rx="5.5" fill="#1A1A1A"/>
<rect x="0.5" y="0.5" width="83" height="59" rx="5.5" stroke="#262626"/>
<path d="M50.8661 19.6016H33.137C32.7298 19.6016 32.3392 19.7633 32.0513 20.0513C31.7633 20.3392 31.6016 20.7298 31.6016 21.137V38.8661C31.6016 39.2733 31.7633 39.6639 32.0513 39.9518C32.3392 40.2398 32.7298 40.4016 33.137 40.4016H50.8661C51.2733 40.4016 51.6639 40.2398 51.9518 39.9518C52.2398 39.6639 52.4016 39.2733 52.4016 38.8661V21.137C52.4016 20.7298 52.2398 20.3392 51.9518 20.0513C51.6639 19.7633 51.2733 19.6016 50.8661 19.6016ZM37.8011 37.3206H34.6739V27.3871H37.8011V37.3206ZM36.2353 26.0106C35.8806 26.0086 35.5344 25.9015 35.2405 25.703C34.9465 25.5044 34.718 25.2232 34.5837 24.8949C34.4494 24.5666 34.4153 24.2058 34.4859 23.8582C34.5564 23.5105 34.7283 23.1915 34.98 22.9415C35.2316 22.6915 35.5517 22.5216 35.8998 22.4533C36.2479 22.385 36.6084 22.4213 36.9359 22.5577C37.2633 22.6942 37.543 22.9245 37.7397 23.2197C37.9364 23.515 38.0412 23.8618 38.0409 24.2166C38.0442 24.4541 37.9997 24.6898 37.91 24.9097C37.8203 25.1297 37.6873 25.3293 37.5188 25.4967C37.3503 25.6641 37.1498 25.7959 36.9293 25.8842C36.7088 25.9724 36.4728 26.0154 36.2353 26.0106ZM49.3278 37.3292H46.202V31.9025C46.202 30.302 45.5217 29.808 44.6435 29.808C43.7161 29.808 42.8061 30.5071 42.8061 31.9429V37.3292H39.6789V27.3943H42.6862V28.7709H42.7267C43.0286 28.1599 44.0859 27.1156 45.6993 27.1156C47.4442 27.1156 49.3292 28.1512 49.3292 31.1846L49.3278 37.3292Z" fill="white"/>
</svg>
