<svg width="339" height="98" viewBox="0 0 339 98" fill="none" xmlns="http://www.w3.org/2000/svg">
<path d="M326.444 98H12.5556C5.65314 98 0 92.4844 0 85.75V12.25C0 5.51556 5.65314 -1.90735e-06 12.5556 -1.90735e-06H326.444C333.347 -1.90735e-06 339 5.51556 339 12.25V85.75C339 92.4844 333.347 98 326.444 98Z" fill="black"/>
<path d="M326.444 1.96306C332.258 1.96306 336.988 6.57825 336.988 12.25V85.75C336.988 91.4218 332.258 96.0369 326.444 96.0369H12.5556C6.74233 96.0369 2.01203 91.4218 2.01203 85.75V12.25C2.01203 6.57825 6.74233 1.96306 12.5556 1.96306H326.444ZM326.444 -1.90735e-06H12.5556C5.65314 -1.90735e-06 0 5.51556 0 12.25V85.75C0 92.4844 5.65314 98 12.5556 98H326.444C333.347 98 339 92.4844 339 85.75V12.25C339 5.51556 333.347 -1.90735e-06 326.444 -1.90735e-06Z" fill="#A6A6A6"/>
<path d="M26.2036 18.4712C25.4659 19.2246 25.0391 20.3975 25.0391 21.9165V76.0983C25.0391 77.6173 25.4659 78.7902 26.2036 79.5436L26.3856 79.709L57.5046 49.3596V48.643L26.3856 18.2936L26.2036 18.4712Z" fill="url(#paint0_linear_3376_4155)"/>
<path d="M67.8654 59.4805L57.5039 49.3589V48.6423L67.8779 38.5207L68.1102 38.6524L80.3958 45.4726C83.902 47.4081 83.902 50.5931 80.3958 52.5408L68.1102 59.3488L67.8654 59.4805Z" fill="url(#paint1_linear_3376_4155)"/>
<path d="M68.1104 59.3486L57.5041 49.0004L26.2031 79.5427C27.3677 80.7371 29.2667 80.881 31.4262 79.6866L68.1104 59.3486Z" fill="url(#paint2_linear_3376_4155)"/>
<path d="M68.1104 38.6518L31.4262 18.3138C29.2667 17.1316 27.3677 17.2756 26.2031 18.4699L57.5041 49L68.1104 38.6518Z" fill="url(#paint3_linear_3376_4155)"/>
<path d="M119.07 25.0983C119.07 27.144 118.442 28.7824 117.205 30.0044C115.783 31.4529 113.931 32.1818 111.662 32.1818C109.493 32.1818 107.641 31.4407 106.122 29.9799C104.599 28.4976 103.84 26.6785 103.84 24.5011C103.84 22.3236 104.599 20.5045 106.122 19.0345C107.641 17.5614 109.493 16.8203 111.662 16.8203C112.742 16.8203 113.771 17.0378 114.754 17.442C115.733 17.8493 116.53 18.4006 117.108 19.0804L115.796 20.3728C114.788 19.2121 113.417 18.6394 111.662 18.6394C110.08 18.6394 108.708 19.1784 107.544 20.2656C106.392 21.3559 105.814 22.7677 105.814 24.5011C105.814 26.2344 106.392 27.6585 107.544 28.7487C108.708 29.8237 110.08 30.3749 111.662 30.3749C113.341 30.3749 114.754 29.8237 115.868 28.7365C116.603 28.0168 117.02 27.0246 117.13 25.7567H111.662V23.9866H118.957C119.045 24.3694 119.07 24.7399 119.07 25.0983Z" fill="white" stroke="white" stroke-width="0.16" stroke-miterlimit="10"/>
<path d="M130.644 18.9601H123.791V23.6151H129.969V25.3852H123.791V30.0402H130.644V31.844H121.852V17.1562H130.644V18.9601Z" fill="white" stroke="white" stroke-width="0.16" stroke-miterlimit="10"/>
<path d="M138.811 31.844H136.871V18.9601H132.668V17.1562H143.017V18.9601H138.811V31.844Z" fill="white" stroke="white" stroke-width="0.16" stroke-miterlimit="10"/>
<path d="M150.506 31.844V17.1562H152.443V31.844H150.506Z" fill="white" stroke="white" stroke-width="0.16" stroke-miterlimit="10"/>
<path d="M161.028 31.844H159.103V18.9601H154.885V17.1562H165.246V18.9601H161.028V31.844Z" fill="white" stroke="white" stroke-width="0.16" stroke-miterlimit="10"/>
<path d="M184.838 29.9554C183.354 31.4407 181.514 32.1818 179.32 32.1818C177.114 32.1818 175.274 31.4407 173.79 29.9554C172.308 28.4731 171.57 26.654 171.57 24.5011C171.57 22.3481 172.308 20.529 173.79 19.0468C175.274 17.5614 177.114 16.8203 179.32 16.8203C181.502 16.8203 183.341 17.5614 184.826 19.059C186.32 20.5535 187.058 22.3604 187.058 24.5011C187.058 26.654 186.32 28.4731 184.838 29.9554ZM175.224 28.7243C176.341 29.8237 177.701 30.3749 179.32 30.3749C180.927 30.3749 182.299 29.8237 183.404 28.7243C184.518 27.6248 185.083 26.213 185.083 24.5011C185.083 22.7891 184.518 21.3773 183.404 20.2779C182.299 19.1784 180.927 18.6272 179.32 18.6272C177.701 18.6272 176.341 19.1784 175.224 20.2779C174.11 21.3773 173.545 22.7891 173.545 24.5011C173.545 26.213 174.11 27.6248 175.224 28.7243Z" fill="white" stroke="white" stroke-width="0.16" stroke-miterlimit="10"/>
<path d="M189.779 31.844V17.1562H192.133L199.453 28.5794H199.538L199.453 25.7557V17.1562H201.39V31.844H199.369L191.703 19.8574H191.619L191.703 22.6932V31.844H189.779Z" fill="white" stroke="white" stroke-width="0.16" stroke-miterlimit="10"/>
<path d="M171.095 53.294C165.197 53.294 160.379 57.6734 160.379 63.7157C160.379 69.709 165.197 74.1343 171.095 74.1343C177.006 74.1343 181.824 69.709 181.824 63.7157C181.824 57.6734 177.006 53.294 171.095 53.294ZM171.095 70.0305C167.859 70.0305 165.075 67.4244 165.075 63.7157C165.075 59.958 167.859 57.3977 171.095 57.3977C174.331 57.3977 177.128 59.958 177.128 63.7157C177.128 67.4244 174.331 70.0305 171.095 70.0305ZM147.714 53.294C141.803 53.294 136.997 57.6734 136.997 63.7157C136.997 69.709 141.803 74.1343 147.714 74.1343C153.621 74.1343 158.43 69.709 158.43 63.7157C158.43 57.6734 153.621 53.294 147.714 53.294ZM147.714 70.0305C144.474 70.0305 141.681 67.4244 141.681 63.7157C141.681 59.958 144.474 57.3977 147.714 57.3977C150.95 57.3977 153.734 59.958 153.734 63.7157C153.734 67.4244 150.95 70.0305 147.714 70.0305ZM119.89 56.4882V60.9166H130.729C130.412 63.391 129.565 65.2102 128.265 66.4781C126.683 68.0093 124.219 69.709 119.89 69.709C113.22 69.709 107.997 64.4568 107.997 57.949C107.997 51.4412 113.22 46.189 119.89 46.189C123.497 46.189 126.121 47.5641 128.058 49.3464L131.256 46.2257C128.548 43.7022 124.944 41.7637 119.89 41.7637C110.744 41.7637 103.057 49.0249 103.057 57.949C103.057 66.8731 110.744 74.1343 119.89 74.1343C124.834 74.1343 128.548 72.554 131.467 69.5895C134.458 66.671 135.39 62.5672 135.39 59.2536C135.39 58.2246 135.302 57.2783 135.145 56.4882H119.89ZM233.663 59.9212C232.781 57.5907 230.059 53.294 224.516 53.294C219.023 53.294 214.449 57.5172 214.449 63.7157C214.449 69.5528 218.976 74.1343 225.043 74.1343C229.949 74.1343 232.781 71.2157 233.945 69.516L230.304 67.1487C229.089 68.8821 227.435 70.0305 225.043 70.0305C222.667 70.0305 220.963 68.9679 219.87 66.8731L234.155 61.1064L233.663 59.9212ZM219.098 63.391C218.976 59.373 222.297 57.3151 224.676 57.3151C226.54 57.3151 228.122 58.2246 228.65 59.5262L219.098 63.391ZM207.487 73.5004H212.183V42.8754H207.487V73.5004ZM199.797 55.6154H199.64C198.586 54.3965 196.574 53.294 194.025 53.294C188.676 53.294 183.786 57.8755 183.786 63.7494C183.786 69.5895 188.676 74.1343 194.025 74.1343C196.574 74.1343 198.586 73.0226 199.64 71.767H199.797V73.2615C199.797 77.2458 197.616 79.3865 194.097 79.3865C191.228 79.3865 189.448 77.3652 188.714 75.6655L184.63 77.3285C185.807 80.0909 188.924 83.4902 194.097 83.4902C199.603 83.4902 204.248 80.3297 204.248 72.6398V53.9279H199.797V55.6154ZM194.427 70.0305C191.19 70.0305 188.481 67.3876 188.481 63.7494C188.481 60.0774 191.19 57.3977 194.427 57.3977C197.616 57.3977 200.13 60.0774 200.13 63.7494C200.13 67.3876 197.616 70.0305 194.427 70.0305ZM255.647 42.8754H244.416V73.5004H249.1V61.8965H255.647C260.849 61.8965 265.949 58.2246 265.949 52.3844C265.949 46.5473 260.836 42.8754 255.647 42.8754ZM255.77 57.6366H249.1V47.1353H255.77C259.267 47.1353 261.263 49.9681 261.263 52.3844C261.263 54.7548 259.267 57.6366 255.77 57.6366ZM284.72 53.2358C281.336 53.2358 277.817 54.6935 276.37 57.9245L280.526 59.6242C281.421 57.9245 283.066 57.3732 284.805 57.3732C287.234 57.3732 289.698 58.7973 289.736 61.3116V61.6332C288.888 61.1554 287.074 60.448 284.842 60.448C280.366 60.448 275.805 62.852 275.805 67.3386C275.805 71.4424 279.472 74.0853 283.593 74.0853C286.744 74.0853 288.483 72.698 289.576 71.084H289.736V73.4514H294.259V61.7036C294.259 56.2738 290.103 53.2358 284.72 53.2358ZM284.155 70.0183C282.623 70.0183 280.489 69.2772 280.489 67.4244C280.489 65.054 283.15 64.1444 285.454 64.1444C287.517 64.1444 288.483 64.5885 289.736 65.1734C289.368 68.0093 286.867 70.0183 284.155 70.0183ZM310.738 53.9065L305.355 67.1824H305.195L299.629 53.9065H294.579L302.941 72.4591L298.17 82.7828H303.063L315.949 53.9065H310.738ZM268.523 73.5004H273.219V42.8754H268.523V73.5004Z" fill="white"/>
<defs>
<linearGradient id="paint0_linear_3376_4155" x1="54.7416" y1="76.6625" x2="13.6372" y2="34.5329" gradientUnits="userSpaceOnUse">
<stop stop-color="#00A0FF"/>
<stop offset="0.0066" stop-color="#00A1FF"/>
<stop offset="0.2601" stop-color="#00BEFF"/>
<stop offset="0.5122" stop-color="#00D2FF"/>
<stop offset="0.7604" stop-color="#00DFFF"/>
<stop offset="1" stop-color="#00E3FF"/>
</linearGradient>
<linearGradient id="paint1_linear_3376_4155" x1="84.9614" y1="48.9972" x2="24.2003" y2="48.9972" gradientUnits="userSpaceOnUse">
<stop stop-color="#FFE000"/>
<stop offset="0.4087" stop-color="#FFBD00"/>
<stop offset="0.7754" stop-color="#FFA500"/>
<stop offset="1" stop-color="#FF9C00"/>
</linearGradient>
<linearGradient id="paint2_linear_3376_4155" x1="62.343" y1="43.3749" x2="6.60213" y2="-13.7563" gradientUnits="userSpaceOnUse">
<stop stop-color="#FF3A44"/>
<stop offset="1" stop-color="#C31162"/>
</linearGradient>
<linearGradient id="paint3_linear_3376_4155" x1="18.324" y1="97.5683" x2="43.2148" y2="72.0569" gradientUnits="userSpaceOnUse">
<stop stop-color="#32A071"/>
<stop offset="0.0685" stop-color="#2DA771"/>
<stop offset="0.4762" stop-color="#15CF74"/>
<stop offset="0.8009" stop-color="#06E775"/>
<stop offset="1" stop-color="#00F076"/>
</linearGradient>
</defs>
</svg>
