<svg width="64" height="64" viewBox="0 0 64 64" fill="none" xmlns="http://www.w3.org/2000/svg">
<path d="M32 16C32 24.8366 24.8366 32 16 32C7.16344 32 0 24.8366 0 16C0 7.16344 7.16344 0 16 0C24.8366 0 32 7.16344 32 16Z" fill="#0098B0"/>
<path d="M64 16C64 24.8366 56.8366 32 48 32C39.1634 32 32 24.8366 32 16C32 7.16344 39.1634 0 48 0C56.8366 0 64 7.16344 64 16Z" fill="#00246B"/>
<path d="M64 48C64 56.8366 56.8366 64 48 64C39.1634 64 32 56.8366 32 48C32 39.1634 39.1634 32 48 32C56.8366 32 64 39.1634 64 48Z" fill="#0098B0"/>
<path d="M32 48C32 56.8366 24.8366 64 16 64C7.16344 64 0 56.8366 0 48C0 39.1634 7.16344 32 16 32C24.8366 32 32 39.1634 32 48Z" fill="#00246B"/>
</svg>
