<svg width="80" height="80" viewBox="0 0 80 80" fill="none" xmlns="http://www.w3.org/2000/svg">
<path d="M8 30C8 38.8744 13.2545 46.5216 20.8221 50H8C8 62.1503 17.8497 72 30 72C38.8744 72 46.5216 66.7455 50 59.1779V72C62.1503 72 72 62.1503 72 50C72 41.1256 66.7455 33.4784 59.1779 30H72C72 17.8497 62.1503 8 50 8C41.1256 8 33.4784 13.2545 30 20.8221V8C17.8497 8 8 17.8497 8 30Z" fill="#0098B0"/>
<path d="M50 40C50 45.5228 45.5228 50 40 50C34.4772 50 30 45.5228 30 40C30 34.4772 34.4772 30 40 30C45.5228 30 50 34.4772 50 40Z" fill="#00246B"/>
</svg>
