<svg width="68" height="67" viewBox="0 0 68 67" fill="none" xmlns="http://www.w3.org/2000/svg">
<path d="M34.0765 0H33.9248C15.564 0 0.679688 14.8887 0.679688 33.2549V33.4067C0.679688 51.7729 15.564 66.6616 33.9248 66.6616H34.0765C52.4373 66.6616 67.3216 51.7729 67.3216 33.4067V33.2549C67.3216 14.8887 52.4373 0 34.0765 0Z" fill="url(#paint0_linear_3817_6249)"/>
<path d="M44.3117 13.5645H23.6908C17.9939 13.5645 13.3594 18.2004 13.3594 23.8989V42.7696C13.3594 48.4682 17.9939 53.1041 23.6908 53.1041H44.3117C50.0086 53.1041 54.6432 48.4682 54.6432 42.7696V23.8989C54.6432 18.2004 50.0086 13.5645 44.3117 13.5645ZM17.004 23.8989C17.004 20.2112 20.0042 17.2101 23.6908 17.2101H44.3117C47.9983 17.2101 50.9986 20.2112 50.9986 23.8989V42.7696C50.9986 46.4573 47.9983 49.4584 44.3117 49.4584H23.6908C20.0042 49.4584 17.004 46.4573 17.004 42.7696V23.8989Z" fill="white"/>
<path d="M34.0045 42.9444C39.3022 42.9444 43.6145 38.6331 43.6145 33.3316C43.6145 28.03 39.3045 23.7188 34.0045 23.7188C28.7046 23.7188 24.3945 28.03 24.3945 33.3316C24.3945 38.6331 28.7046 42.9444 34.0045 42.9444ZM34.0045 27.3668C37.2943 27.3668 39.9699 30.0432 39.9699 33.3339C39.9699 36.6246 37.2943 39.3011 34.0045 39.3011C30.7148 39.3011 28.0391 36.6246 28.0391 33.3339C28.0391 30.0432 30.7148 27.3668 34.0045 27.3668Z" fill="white"/>
<path d="M44.4994 25.2719C45.926 25.2719 47.0887 24.1112 47.0887 22.6818C47.0887 21.2525 45.9283 20.0918 44.4994 20.0918C43.0705 20.0918 41.9102 21.2525 41.9102 22.6818C41.9102 24.1112 43.0705 25.2719 44.4994 25.2719Z" fill="white"/>
<defs>
<linearGradient id="paint0_linear_3817_6249" x1="10.4158" y1="56.9226" x2="57.5995" y2="9.75518" gradientUnits="userSpaceOnUse">
<stop stop-color="#FAAD4F"/>
<stop offset="0.35" stop-color="#DD2A7B"/>
<stop offset="0.62" stop-color="#9537B0"/>
<stop offset="1" stop-color="#515BD4"/>
</linearGradient>
</defs>
</svg>
