<svg width="19" height="19" viewBox="0 0 19 19" fill="none" xmlns="http://www.w3.org/2000/svg">
<path fill-rule="evenodd" clip-rule="evenodd" d="M0.851562 9.39453C0.851562 5.79939 0.851562 4.00182 1.70825 2.70708C2.09081 2.12892 2.58595 1.63378 3.16412 1.25122C4.45885 0.394531 6.25642 0.394531 9.85156 0.394531C13.4467 0.394531 15.2443 0.394531 16.539 1.25122C17.1172 1.63378 17.6123 2.12892 17.9949 2.70708C18.8516 4.00182 18.8516 5.79939 18.8516 9.39453C18.8516 12.9897 18.8516 14.7872 17.9949 16.082C17.6123 16.6601 17.1172 17.1553 16.539 17.5378C15.2443 18.3945 13.4467 18.3945 9.85156 18.3945C6.25642 18.3945 4.45885 18.3945 3.16412 17.5378C2.58595 17.1553 2.09081 16.6601 1.70825 16.082C0.851562 14.7872 0.851562 12.9897 0.851562 9.39453ZM14.5102 9.39378C14.5102 11.9671 12.4241 14.0532 9.85082 14.0532C7.2775 14.0532 5.19141 11.9671 5.19141 9.39378C5.19141 6.82046 7.2775 4.73438 9.85082 4.73438C12.4241 4.73438 14.5102 6.82046 14.5102 9.39378ZM9.85082 12.4768C11.5535 12.4768 12.9338 11.0965 12.9338 9.39378C12.9338 7.69109 11.5535 6.31078 9.85082 6.31078C8.14812 6.31078 6.76781 7.69109 6.76781 9.39378C6.76781 11.0965 8.14812 12.4768 9.85082 12.4768ZM14.6925 5.5959C15.2971 5.5959 15.7873 5.10573 15.7873 4.50107C15.7873 3.89642 15.2971 3.40625 14.6925 3.40625C14.0878 3.40625 13.5977 3.89642 13.5977 4.50107C13.5977 5.10573 14.0878 5.5959 14.6925 5.5959Z" fill="#0098B0"/>
</svg>
