<svg width="19" height="19" viewBox="0 0 19 19" fill="none" xmlns="http://www.w3.org/2000/svg">
<path d="M0.851562 3.31556C0.851562 2.73835 1.05427 2.26216 1.45967 1.88699C1.86507 1.5118 2.39211 1.32422 3.04075 1.32422C3.67782 1.32422 4.19326 1.50891 4.58708 1.87833C4.99248 2.25928 5.19519 2.75566 5.19519 3.36751C5.19519 3.92162 4.99829 4.38337 4.60446 4.75279C4.19906 5.13374 3.66623 5.32422 3.006 5.32422H2.98863C2.35156 5.32422 1.83612 5.13374 1.4423 4.75279C1.04847 4.37184 0.851562 3.89275 0.851562 3.31556ZM1.07743 18.4671V6.89997H4.93457V18.4671H1.07743ZM7.07164 18.4671H10.9288V12.0082C10.9288 11.6041 10.9751 11.2925 11.0678 11.0731C11.2299 10.6806 11.4761 10.3487 11.8062 10.0775C12.1363 9.80617 12.5504 9.67054 13.0485 9.67054C14.3458 9.67054 14.9944 10.5421 14.9944 12.2853V18.4671H18.8516V11.835C18.8516 10.1265 18.4462 8.83071 17.6353 7.94759C16.8245 7.06448 15.7531 6.62292 14.4211 6.62292C12.9269 6.62292 11.7628 7.26361 10.9288 8.54499V8.57963H10.9114L10.9288 8.54499V6.89997H7.07164C7.0948 7.26938 7.10639 8.418 7.10639 10.3459C7.10639 12.2737 7.0948 14.9808 7.07164 18.4671Z" fill="#0098B0"/>
</svg>
