<svg width="807" height="156" viewBox="0 0 807 156" fill="none" xmlns="http://www.w3.org/2000/svg">
<mask id="path-1-outside-1_3673_7826" maskUnits="userSpaceOnUse" x="-1" y="-1" width="809" height="158" fill="black">
<rect fill="white" x="-1" y="-1" width="809" height="158"/>
<path d="M43.6627 35.44V60.74H93.1627V93.52H43.6627V121.46H99.7627V156H0.542657V0.899991H99.7627V35.44H43.6627ZM218.09 156L187.95 112.22L162.21 156H113.15L163.53 76.58L111.39 0.899991H162.21L191.47 43.58L216.55 0.899991H265.61L215.89 79L268.91 156H218.09ZM406.247 52.6C406.247 61.9867 404.047 70.5667 399.647 78.34C395.393 85.9667 388.867 92.1267 380.067 96.82C371.413 101.367 360.78 103.64 348.167 103.64H326.827V156H283.707V0.899991H348.167C360.633 0.899991 371.193 3.09999 379.847 7.5C388.647 11.9 395.247 17.9867 399.647 25.76C404.047 33.5333 406.247 42.48 406.247 52.6ZM343.987 69.32C356.16 69.32 362.247 63.7467 362.247 52.6C362.247 41.3067 356.16 35.66 343.987 35.66H326.827V69.32H343.987ZM466.69 35.44V60.74H516.19V93.52H466.69V121.46H522.79V156H423.57V0.899991H522.79V35.44H466.69ZM622.637 156L591.837 98.8H587.217V156H544.097V0.899991H612.077C624.544 0.899991 635.104 3.09999 643.757 7.5C652.411 11.7533 658.937 17.6933 663.337 25.32C667.737 32.8 669.937 41.2333 669.937 50.62C669.937 61.18 667.004 70.4933 661.137 78.56C655.417 86.48 646.984 92.1267 635.837 95.5L670.817 156H622.637ZM587.217 69.32H608.557C614.424 69.32 618.824 67.9267 621.757 65.14C624.691 62.3533 626.157 58.32 626.157 53.04C626.157 48.0533 624.617 44.1667 621.537 41.38C618.604 38.4467 614.277 36.98 608.557 36.98H587.217V69.32ZM806.367 0.899991V35.22H765.007V156H721.887V35.22H680.967V0.899991H806.367Z"/>
</mask>
<path d="M43.6627 35.44V34.44H42.6627V35.44H43.6627ZM43.6627 60.74H42.6627V61.74H43.6627V60.74ZM93.1627 60.74H94.1627V59.74H93.1627V60.74ZM93.1627 93.52V94.52H94.1627V93.52H93.1627ZM43.6627 93.52V92.52H42.6627V93.52H43.6627ZM43.6627 121.46H42.6627V122.46H43.6627V121.46ZM99.7626 121.46H100.763V120.46H99.7626V121.46ZM99.7626 156V157H100.763V156H99.7626ZM0.542664 156H-0.457336V157H0.542664V156ZM0.542664 0.89999V-0.10001H-0.457336V0.89999H0.542664ZM99.7626 0.89999H100.763V-0.10001H99.7626V0.89999ZM99.7626 35.44V36.44H100.763V35.44H99.7626ZM42.6627 35.44V60.74H44.6627V35.44H42.6627ZM43.6627 61.74H93.1627V59.74H43.6627V61.74ZM92.1627 60.74V93.52H94.1627V60.74H92.1627ZM93.1627 92.52H43.6627V94.52H93.1627V92.52ZM42.6627 93.52V121.46H44.6627V93.52H42.6627ZM43.6627 122.46H99.7626V120.46H43.6627V122.46ZM98.7626 121.46V156H100.763V121.46H98.7626ZM99.7626 155H0.542664V157H99.7626V155ZM1.54266 156V0.89999H-0.457336V156H1.54266ZM0.542664 1.89999H99.7626V-0.10001H0.542664V1.89999ZM98.7626 0.89999V35.44H100.763V0.89999H98.7626ZM99.7626 34.44H43.6627V36.44H99.7626V34.44ZM218.09 156L217.266 156.567L217.564 157H218.09V156ZM187.95 112.22L188.774 111.653L187.884 110.36L187.088 111.713L187.95 112.22ZM162.21 156V157H162.782L163.072 156.507L162.21 156ZM113.15 156L112.306 155.464L111.331 157H113.15V156ZM163.53 76.58L164.374 77.1157L164.729 76.5572L164.354 76.0126L163.53 76.58ZM111.39 0.89999V-0.10001H109.487L110.567 1.46733L111.39 0.89999ZM162.21 0.89999L163.035 0.334545L162.737 -0.10001H162.21V0.89999ZM191.47 43.58L190.645 44.1454L191.535 45.4433L192.332 44.0866L191.47 43.58ZM216.55 0.89999V-0.10001H215.978L215.688 0.39336L216.55 0.89999ZM265.61 0.89999L266.454 1.43702L267.432 -0.10001H265.61V0.89999ZM215.89 79L215.046 78.463L214.691 79.0217L215.066 79.5671L215.89 79ZM268.91 156V157H270.813L269.734 155.433L268.91 156ZM218.914 155.433L188.774 111.653L187.126 112.787L217.266 156.567L218.914 155.433ZM187.088 111.713L161.348 155.493L163.072 156.507L188.812 112.727L187.088 111.713ZM162.21 155H113.15V157H162.21V155ZM113.994 156.536L164.374 77.1157L162.686 76.0443L112.306 155.464L113.994 156.536ZM164.354 76.0126L112.214 0.332649L110.567 1.46733L162.707 77.1473L164.354 76.0126ZM111.39 1.89999H162.21V-0.10001H111.39V1.89999ZM161.385 1.46544L190.645 44.1454L192.295 43.0145L163.035 0.334545L161.385 1.46544ZM192.332 44.0866L217.412 1.40662L215.688 0.39336L190.608 43.0734L192.332 44.0866ZM216.55 1.89999H265.61V-0.10001H216.55V1.89999ZM264.766 0.362961L215.046 78.463L216.734 79.537L266.454 1.43702L264.766 0.362961ZM215.066 79.5671L268.086 156.567L269.734 155.433L216.714 78.4329L215.066 79.5671ZM268.91 155H218.09V157H268.91V155ZM399.647 78.34L398.776 77.8474L398.773 77.8529L399.647 78.34ZM380.067 96.82L380.532 97.7053L380.537 97.7023L380.067 96.82ZM326.827 103.64V102.64H325.827V103.64H326.827ZM326.827 156V157H327.827V156H326.827ZM283.707 156H282.707V157H283.707V156ZM283.707 0.89999V-0.10001H282.707V0.89999H283.707ZM379.847 7.5L379.393 8.3914L379.4 8.39442L379.847 7.5ZM399.647 25.76L398.776 26.2526L399.647 25.76ZM326.827 35.66V34.66H325.827V35.66H326.827ZM326.827 69.32H325.827V70.32H326.827V69.32ZM405.247 52.6C405.247 61.8231 403.087 70.2321 398.776 77.8474L400.517 78.8326C405.006 70.9013 407.247 62.1502 407.247 52.6H405.247ZM398.773 77.8529C394.626 85.289 388.251 91.3215 379.596 95.9376L380.537 97.7023C389.482 92.9318 396.161 86.6443 400.52 78.8271L398.773 77.8529ZM379.602 95.9348C371.127 100.387 360.664 102.64 348.167 102.64V104.64C360.896 104.64 371.699 102.346 380.532 97.7052L379.602 95.9348ZM348.167 102.64H326.827V104.64H348.167V102.64ZM325.827 103.64V156H327.827V103.64H325.827ZM326.827 155H283.707V157H326.827V155ZM284.707 156V0.89999H282.707V156H284.707ZM283.707 1.89999H348.167V-0.10001H283.707V1.89999ZM348.167 1.89999C360.519 1.89999 370.915 4.08015 379.393 8.39138L380.3 6.60861C371.472 2.11984 360.748 -0.10001 348.167 -0.10001V1.89999ZM379.4 8.39442C388.041 12.7149 394.484 18.6697 398.776 26.2526L400.517 25.2674C396.009 17.3036 389.253 11.0851 380.294 6.60557L379.4 8.39442ZM398.776 26.2526C403.081 33.8566 405.247 42.6293 405.247 52.6H407.247C407.247 42.3307 405.013 33.2101 400.517 25.2674L398.776 26.2526ZM343.987 70.32C350.207 70.32 355.058 68.898 358.357 65.8775C361.672 62.8418 363.247 58.3512 363.247 52.6H361.247C361.247 57.9954 359.778 61.8649 357.006 64.4025C354.218 66.9553 349.94 68.32 343.987 68.32V70.32ZM363.247 52.6C363.247 46.7791 361.675 42.2352 358.362 39.1619C355.063 36.1017 350.21 34.66 343.987 34.66V36.66C349.937 36.66 354.214 38.0416 357.002 40.6281C359.776 43.2015 361.247 47.1275 361.247 52.6H363.247ZM343.987 34.66H326.827V36.66H343.987V34.66ZM325.827 35.66V69.32H327.827V35.66H325.827ZM326.827 70.32H343.987V68.32H326.827V70.32ZM466.69 35.44V34.44H465.69V35.44H466.69ZM466.69 60.74H465.69V61.74H466.69V60.74ZM516.19 60.74H517.19V59.74H516.19V60.74ZM516.19 93.52V94.52H517.19V93.52H516.19ZM466.69 93.52V92.52H465.69V93.52H466.69ZM466.69 121.46H465.69V122.46H466.69V121.46ZM522.79 121.46H523.79V120.46H522.79V121.46ZM522.79 156V157H523.79V156H522.79ZM423.57 156H422.57V157H423.57V156ZM423.57 0.89999V-0.10001H422.57V0.89999H423.57ZM522.79 0.89999H523.79V-0.10001H522.79V0.89999ZM522.79 35.44V36.44H523.79V35.44H522.79ZM465.69 35.44V60.74H467.69V35.44H465.69ZM466.69 61.74H516.19V59.74H466.69V61.74ZM515.19 60.74V93.52H517.19V60.74H515.19ZM516.19 92.52H466.69V94.52H516.19V92.52ZM465.69 93.52V121.46H467.69V93.52H465.69ZM466.69 122.46H522.79V120.46H466.69V122.46ZM521.79 121.46V156H523.79V121.46H521.79ZM522.79 155H423.57V157H522.79V155ZM424.57 156V0.89999H422.57V156H424.57ZM423.57 1.89999H522.79V-0.10001H423.57V1.89999ZM521.79 0.89999V35.44H523.79V0.89999H521.79ZM522.79 34.44H466.69V36.44H522.79V34.44ZM622.637 156L621.757 156.474L622.04 157H622.637V156ZM591.837 98.8L592.718 98.3259L592.435 97.8H591.837V98.8ZM587.217 98.8V97.8H586.217V98.8H587.217ZM587.217 156V157H588.217V156H587.217ZM544.097 156H543.097V157H544.097V156ZM544.097 0.89999V-0.10001H543.097V0.89999H544.097ZM643.757 7.5L643.304 8.39146L643.316 8.39745L643.757 7.5ZM663.337 25.32L662.471 25.8197L662.475 25.827L663.337 25.32ZM661.137 78.56L660.329 77.9718L660.327 77.9745L661.137 78.56ZM635.837 95.5L635.548 94.5429L634.34 94.9083L634.972 96.0005L635.837 95.5ZM670.817 156V157H672.551L671.683 155.499L670.817 156ZM587.217 69.32H586.217V70.32H587.217V69.32ZM621.757 65.14L621.069 64.415L621.757 65.14ZM621.537 41.38L620.83 42.0871L620.848 42.1048L620.866 42.1215L621.537 41.38ZM587.217 36.98V35.98H586.217V36.98H587.217ZM623.518 155.526L592.718 98.3259L590.957 99.2741L621.757 156.474L623.518 155.526ZM591.837 97.8H587.217V99.8H591.837V97.8ZM586.217 98.8V156H588.217V98.8H586.217ZM587.217 155H544.097V157H587.217V155ZM545.097 156V0.89999H543.097V156H545.097ZM544.097 1.89999H612.077V-0.10001H544.097V1.89999ZM612.077 1.89999C624.43 1.89999 634.825 4.08015 643.304 8.39138L644.211 6.60861C635.383 2.11984 624.658 -0.10001 612.077 -0.10001V1.89999ZM643.316 8.39745C651.809 12.572 658.18 18.3811 662.471 25.8197L664.203 24.8203C659.695 17.0055 653.012 10.9347 644.198 6.60255L643.316 8.39745ZM662.475 25.827C666.778 33.1409 668.937 41.3966 668.937 50.62H670.937C670.937 41.0701 668.697 32.4591 664.199 24.813L662.475 25.827ZM668.937 50.62C668.937 60.9818 666.063 70.0864 660.329 77.9718L661.946 79.1482C667.945 70.9002 670.937 61.3782 670.937 50.62H668.937ZM660.327 77.9745C654.758 85.6846 646.526 91.2204 635.548 94.5429L636.127 96.4571C647.442 93.0329 656.076 87.2754 661.948 79.1455L660.327 77.9745ZM634.972 96.0005L669.952 156.501L671.683 155.499L636.703 94.9995L634.972 96.0005ZM670.817 155H622.637V157H670.817V155ZM587.217 70.32H608.557V68.32H587.217V70.32ZM608.557 70.32C614.566 70.32 619.258 68.8939 622.446 65.865L621.069 64.415C618.39 66.9594 614.282 68.32 608.557 68.32V70.32ZM622.446 65.865C625.634 62.8366 627.157 58.5064 627.157 53.04H625.157C625.157 58.1336 623.747 61.8701 621.069 64.415L622.446 65.865ZM627.157 53.04C627.157 47.8324 625.54 43.6525 622.208 40.6385L620.866 42.1215C623.695 44.6809 625.157 48.2743 625.157 53.04H627.157ZM622.245 40.6729C619.062 37.4902 614.44 35.98 608.557 35.98V37.98C614.115 37.98 618.146 39.4031 620.83 42.0871L622.245 40.6729ZM608.557 35.98H587.217V37.98H608.557V35.98ZM586.217 36.98V69.32H588.217V36.98H586.217ZM806.367 0.89999H807.367V-0.10001H806.367V0.89999ZM806.367 35.22V36.22H807.367V35.22H806.367ZM765.007 35.22V34.22H764.007V35.22H765.007ZM765.007 156V157H766.007V156H765.007ZM721.887 156H720.887V157H721.887V156ZM721.887 35.22H722.887V34.22H721.887V35.22ZM680.967 35.22H679.967V36.22H680.967V35.22ZM680.967 0.89999V-0.10001H679.967V0.89999H680.967ZM805.367 0.89999V35.22H807.367V0.89999H805.367ZM806.367 34.22H765.007V36.22H806.367V34.22ZM764.007 35.22V156H766.007V35.22H764.007ZM765.007 155H721.887V157H765.007V155ZM722.887 156V35.22H720.887V156H722.887ZM721.887 34.22H680.967V36.22H721.887V34.22ZM681.967 35.22V0.89999H679.967V35.22H681.967ZM680.967 1.89999H806.367V-0.10001H680.967V1.89999Z" fill="#00C1DF" mask="url(#path-1-outside-1_3673_7826)"/>
</svg>
