<svg width="870" height="513" viewBox="0 0 870 513" fill="none" xmlns="http://www.w3.org/2000/svg">
<rect width="870" height="513" rx="24" fill="white"/>
<path d="M66.08 135.2C66.08 129.157 67.4293 123.76 70.128 119.008C72.8853 114.197 76.6107 110.472 81.304 107.832C86.056 105.133 91.3653 103.784 97.232 103.784C104.096 103.784 110.109 105.544 115.272 109.064C120.435 112.584 124.043 117.453 126.096 123.672H111.928C110.52 120.739 108.525 118.539 105.944 117.072C103.421 115.605 100.488 114.872 97.144 114.872C93.5653 114.872 90.368 115.723 87.552 117.424C84.7947 119.067 82.624 121.413 81.04 124.464C79.5147 127.515 78.752 131.093 78.752 135.2C78.752 139.248 79.5147 142.827 81.04 145.936C82.624 148.987 84.7947 151.363 87.552 153.064C90.368 154.707 93.5653 155.528 97.144 155.528C100.488 155.528 103.421 154.795 105.944 153.328C108.525 151.803 110.52 149.573 111.928 146.64H126.096C124.043 152.917 120.435 157.816 115.272 161.336C110.168 164.797 104.155 166.528 97.232 166.528C91.3653 166.528 86.056 165.208 81.304 162.568C76.6107 159.869 72.8853 156.144 70.128 151.392C67.4293 146.64 66.08 141.243 66.08 135.2ZM164.075 116.544C167.771 116.544 171.056 117.365 173.931 119.008C176.806 120.592 179.035 122.968 180.619 126.136C182.262 129.245 183.083 133 183.083 137.4V166H170.763V139.072C170.763 135.2 169.795 132.237 167.859 130.184C165.923 128.072 163.283 127.016 159.939 127.016C156.536 127.016 153.838 128.072 151.843 130.184C149.907 132.237 148.939 135.2 148.939 139.072V166H136.619V100.88H148.939V123.32C150.523 121.208 152.635 119.565 155.275 118.392C157.915 117.16 160.848 116.544 164.075 116.544ZM191.631 141.448C191.631 136.52 192.599 132.149 194.535 128.336C196.529 124.523 199.199 121.589 202.543 119.536C205.945 117.483 209.729 116.456 213.895 116.456C217.532 116.456 220.7 117.189 223.399 118.656C226.156 120.123 228.356 121.971 229.999 124.2V117.248H242.407V166H229.999V158.872C228.415 161.16 226.215 163.067 223.399 164.592C220.641 166.059 217.444 166.792 213.807 166.792C209.7 166.792 205.945 165.736 202.543 163.624C199.199 161.512 196.529 158.549 194.535 154.736C192.599 150.864 191.631 146.435 191.631 141.448ZM229.999 141.624C229.999 138.632 229.412 136.08 228.239 133.968C227.065 131.797 225.481 130.155 223.487 129.04C221.492 127.867 219.351 127.28 217.063 127.28C214.775 127.28 212.663 127.837 210.727 128.952C208.791 130.067 207.207 131.709 205.975 133.88C204.801 135.992 204.215 138.515 204.215 141.448C204.215 144.381 204.801 146.963 205.975 149.192C207.207 151.363 208.791 153.035 210.727 154.208C212.721 155.381 214.833 155.968 217.063 155.968C219.351 155.968 221.492 155.411 223.487 154.296C225.481 153.123 227.065 151.48 228.239 149.368C229.412 147.197 229.999 144.616 229.999 141.624ZM268.783 127.368V150.952C268.783 152.595 269.165 153.797 269.927 154.56C270.749 155.264 272.098 155.616 273.975 155.616H279.695V166H271.951C261.567 166 256.375 160.955 256.375 150.864V127.368H250.567V117.248H256.375V105.192H268.783V117.248H279.695V127.368H268.783ZM391.629 104.576L374.469 166H359.949L348.421 122.264L336.365 166L321.933 166.088L305.389 104.576H318.589L329.413 152.272L341.909 104.576H355.637L367.429 152.008L378.341 104.576H391.629ZM405.922 111.44C403.751 111.44 401.932 110.765 400.466 109.416C399.058 108.008 398.354 106.277 398.354 104.224C398.354 102.171 399.058 100.469 400.466 99.12C401.932 97.712 403.751 97.008 405.922 97.008C408.092 97.008 409.882 97.712 411.29 99.12C412.756 100.469 413.49 102.171 413.49 104.224C413.49 106.277 412.756 108.008 411.29 109.416C409.882 110.765 408.092 111.44 405.922 111.44ZM411.994 117.248V166H399.674V117.248H411.994ZM438.51 127.368V150.952C438.51 152.595 438.891 153.797 439.654 154.56C440.475 155.264 441.824 155.616 443.702 155.616H449.422V166H441.678C431.294 166 426.102 160.955 426.102 150.864V127.368H420.294V117.248H426.102V105.192H438.51V117.248H449.422V127.368H438.51ZM485.739 116.544C489.435 116.544 492.72 117.365 495.595 119.008C498.47 120.592 500.699 122.968 502.283 126.136C503.926 129.245 504.747 133 504.747 137.4V166H492.427V139.072C492.427 135.2 491.459 132.237 489.523 130.184C487.587 128.072 484.947 127.016 481.603 127.016C478.2 127.016 475.502 128.072 473.507 130.184C471.571 132.237 470.603 135.2 470.603 139.072V166H458.283V100.88H470.603V123.32C472.187 121.208 474.299 119.565 476.939 118.392C479.579 117.16 482.512 116.544 485.739 116.544ZM575.095 154.296H550.631L546.583 166H533.647L555.735 104.488H570.079L592.167 166H579.143L575.095 154.296ZM571.751 144.44L562.863 118.744L553.975 144.44H571.751ZM612.744 104.576V166H600.424V104.576H612.744ZM639.812 172.16H727.812V84.16H639.812V172.16Z" fill="#252525"/>
<path d="M95.128 217.6H97.4L89.848 240H87.352L80.792 220.896L74.2 240H71.736L64.184 217.6H66.616L73.08 236.864L79.768 217.6H81.976L88.568 236.96L95.128 217.6ZM114.669 231.584C114.669 231.776 114.637 232.032 114.637 232.288H100.557C100.812 235.808 103.501 238.144 107.181 238.144C109.229 238.144 111.053 237.408 112.333 235.936L113.613 237.408C112.109 239.2 109.773 240.16 107.117 240.16C101.869 240.16 98.2845 236.576 98.2845 231.584C98.2845 226.592 101.773 223.04 106.509 223.04C111.245 223.04 114.669 226.528 114.669 231.584ZM106.509 224.992C103.245 224.992 100.845 227.296 100.557 230.592H112.493C112.205 227.296 109.805 224.992 106.509 224.992ZM119.293 240V216.256H121.565V240H119.293ZM134.863 240.16C129.839 240.16 126.191 236.608 126.191 231.584C126.191 226.56 129.839 223.04 134.863 223.04C137.711 223.04 140.111 224.16 141.455 226.368L139.759 227.52C138.607 225.824 136.815 225.024 134.863 225.024C131.183 225.024 128.495 227.648 128.495 231.584C128.495 235.552 131.183 238.144 134.863 238.144C136.815 238.144 138.607 237.376 139.759 235.68L141.455 236.832C140.111 239.008 137.711 240.16 134.863 240.16ZM152.517 240.16C147.589 240.16 143.941 236.576 143.941 231.584C143.941 226.592 147.589 223.04 152.517 223.04C157.445 223.04 161.061 226.592 161.061 231.584C161.061 236.576 157.445 240.16 152.517 240.16ZM152.517 238.144C156.101 238.144 158.757 235.52 158.757 231.584C158.757 227.648 156.101 225.024 152.517 225.024C148.933 225.024 146.245 227.648 146.245 231.584C146.245 235.52 148.933 238.144 152.517 238.144ZM186.691 223.04C190.787 223.04 193.475 225.408 193.475 230.24V240H191.203V230.464C191.203 226.912 189.411 225.088 186.371 225.088C182.915 225.088 180.739 227.328 180.739 231.168V240H178.467V230.464C178.467 226.912 176.675 225.088 173.603 225.088C170.179 225.088 167.971 227.328 167.971 231.168V240H165.699V223.168H167.875V226.24C169.059 224.224 171.235 223.04 174.051 223.04C176.835 223.04 179.011 224.224 180.035 226.592C181.251 224.416 183.651 223.04 186.691 223.04ZM214.387 231.584C214.387 231.776 214.355 232.032 214.355 232.288H200.275C200.531 235.808 203.219 238.144 206.899 238.144C208.947 238.144 210.771 237.408 212.051 235.936L213.331 237.408C211.827 239.2 209.491 240.16 206.835 240.16C201.587 240.16 198.003 236.576 198.003 231.584C198.003 226.592 201.491 223.04 206.227 223.04C210.963 223.04 214.387 226.528 214.387 231.584ZM206.227 224.992C202.963 224.992 200.563 227.296 200.275 230.592H212.211C211.923 227.296 209.523 224.992 206.227 224.992ZM235.451 237.344L236.251 238.976C235.355 239.776 234.011 240.16 232.699 240.16C229.531 240.16 227.771 238.368 227.771 235.264V225.088H224.763V223.168H227.771V219.488H230.043V223.168H235.163V225.088H230.043V235.136C230.043 237.12 231.067 238.208 232.955 238.208C233.883 238.208 234.811 237.92 235.451 237.344ZM246.673 240.16C241.745 240.16 238.097 236.576 238.097 231.584C238.097 226.592 241.745 223.04 246.673 223.04C251.601 223.04 255.217 226.592 255.217 231.584C255.217 236.576 251.601 240.16 246.673 240.16ZM246.673 238.144C250.257 238.144 252.913 235.52 252.913 231.584C252.913 227.648 250.257 225.024 246.673 225.024C243.089 225.024 240.401 227.648 240.401 231.584C240.401 235.52 243.089 238.144 246.673 238.144ZM277.095 217.6C282.791 217.6 286.247 220.48 286.247 225.28C286.247 230.048 282.791 232.928 277.095 232.928H271.079V240H268.711V217.6H277.095ZM277.031 230.848C281.51 230.848 283.878 228.8 283.878 225.28C283.878 221.696 281.51 219.648 277.031 219.648H271.079V230.848H277.031ZM305.481 231.584C305.481 231.776 305.449 232.032 305.449 232.288H291.369C291.625 235.808 294.313 238.144 297.993 238.144C300.041 238.144 301.865 237.408 303.145 235.936L304.425 237.408C302.921 239.2 300.585 240.16 297.929 240.16C292.681 240.16 289.097 236.576 289.097 231.584C289.097 226.592 292.585 223.04 297.321 223.04C302.057 223.04 305.481 226.528 305.481 231.584ZM297.321 224.992C294.057 224.992 291.657 227.296 291.369 230.592H303.305C303.017 227.296 300.617 224.992 297.321 224.992ZM314.618 240.16C311.834 240.16 309.146 239.264 307.77 238.08L308.794 236.288C310.138 237.344 312.41 238.176 314.778 238.176C317.978 238.176 319.29 237.088 319.29 235.424C319.29 231.04 308.378 234.496 308.378 227.84C308.378 225.088 310.746 223.04 315.034 223.04C317.21 223.04 319.578 223.648 320.986 224.608L319.994 226.432C318.522 225.408 316.762 224.992 315.034 224.992C311.994 224.992 310.65 226.176 310.65 227.776C310.65 232.32 321.562 228.896 321.562 235.36C321.562 238.272 319.002 240.16 314.618 240.16ZM333.826 237.344L334.626 238.976C333.73 239.776 332.386 240.16 331.074 240.16C327.906 240.16 326.146 238.368 326.146 235.264V225.088H323.138V223.168H326.146V219.488H328.418V223.168H333.538V225.088H328.418V235.136C328.418 237.12 329.442 238.208 331.33 238.208C332.258 238.208 333.186 237.92 333.826 237.344ZM339.242 240V217.6H348.362C355.53 217.6 360.362 222.208 360.362 228.8C360.362 235.392 355.53 240 348.362 240H339.242ZM341.61 237.952H348.234C354.186 237.952 358.026 234.176 358.026 228.8C358.026 223.424 354.186 219.648 348.234 219.648H341.61V237.952ZM372.079 240.16C367.151 240.16 363.503 236.576 363.503 231.584C363.503 226.592 367.151 223.04 372.079 223.04C377.007 223.04 380.623 226.592 380.623 231.584C380.623 236.576 377.007 240.16 372.079 240.16ZM372.079 238.144C375.663 238.144 378.319 235.52 378.319 231.584C378.319 227.648 375.663 225.024 372.079 225.024C368.495 225.024 365.807 227.648 365.807 231.584C365.807 235.52 368.495 238.144 372.079 238.144ZM392.238 240.16C387.214 240.16 383.566 236.608 383.566 231.584C383.566 226.56 387.214 223.04 392.238 223.04C395.086 223.04 397.486 224.16 398.83 226.368L397.134 227.52C395.982 225.824 394.19 225.024 392.238 225.024C388.558 225.024 385.87 227.648 385.87 231.584C385.87 235.552 388.558 238.144 392.238 238.144C394.19 238.144 395.982 237.376 397.134 235.68L398.83 236.832C397.486 239.008 395.086 240.16 392.238 240.16ZM401.826 232.32V230.336H410.21V232.32H401.826ZM432.04 240L429.352 234.016H416.872L414.184 240H411.72L421.96 217.6H424.296L434.536 240H432.04ZM417.736 232.096H428.488L423.112 220.064L417.736 232.096ZM438.242 240V217.6H440.61V240H438.242ZM447.674 236.672C448.666 236.672 449.37 237.44 449.37 238.4C449.37 238.944 449.242 239.36 448.922 240.256L447.578 244.672H446.042L447.13 240.032C446.458 239.84 445.978 239.232 445.978 238.4C445.978 237.408 446.714 236.672 447.674 236.672ZM474.478 223.168H476.718L468.302 242.016C466.894 245.312 465.102 246.368 462.702 246.368C461.134 246.368 459.63 245.856 458.606 244.832L459.662 243.136C460.494 243.968 461.518 244.416 462.734 244.416C464.238 244.416 465.262 243.712 466.222 241.6L466.958 239.968L459.438 223.168H461.806L468.142 237.472L474.478 223.168ZM486.329 240.16C481.401 240.16 477.753 236.576 477.753 231.584C477.753 226.592 481.401 223.04 486.329 223.04C491.257 223.04 494.873 226.592 494.873 231.584C494.873 236.576 491.257 240.16 486.329 240.16ZM486.329 238.144C489.913 238.144 492.569 235.52 492.569 231.584C492.569 227.648 489.913 225.024 486.329 225.024C482.745 225.024 480.057 227.648 480.057 231.584C480.057 235.52 482.745 238.144 486.329 238.144ZM512.408 223.168H514.68V240H512.504V236.928C511.32 238.976 509.144 240.16 506.456 240.16C502.168 240.16 499.352 237.76 499.352 232.928V223.168H501.624V232.704C501.624 236.288 503.48 238.112 506.68 238.112C510.2 238.112 512.408 235.84 512.408 232V223.168ZM523.219 226.464C524.275 224.224 526.419 223.04 529.523 223.04V225.248C529.331 225.248 529.139 225.216 528.979 225.216C525.459 225.216 523.315 227.456 523.315 231.424V240H521.043V223.168H523.219V226.464ZM544.438 226.464C545.494 224.224 547.638 223.04 550.742 223.04V225.248C550.55 225.248 550.358 225.216 550.198 225.216C546.678 225.216 544.534 227.456 544.534 231.424V240H542.262V223.168H544.438V226.464ZM569.387 231.584C569.387 231.776 569.355 232.032 569.355 232.288H555.275C555.531 235.808 558.219 238.144 561.899 238.144C563.947 238.144 565.771 237.408 567.051 235.936L568.331 237.408C566.827 239.2 564.491 240.16 561.835 240.16C556.587 240.16 553.003 236.576 553.003 231.584C553.003 226.592 556.491 223.04 561.227 223.04C565.963 223.04 569.387 226.528 569.387 231.584ZM561.227 224.992C557.963 224.992 555.563 227.296 555.275 230.592H567.211C566.923 227.296 564.523 224.992 561.227 224.992ZM574.012 240V216.256H576.284V240H574.012ZM583.758 219.488C582.83 219.488 582.094 218.752 582.094 217.856C582.094 216.992 582.83 216.256 583.758 216.256C584.686 216.256 585.422 216.96 585.422 217.824C585.422 218.752 584.718 219.488 583.758 219.488ZM582.606 240V223.168H584.878V240H582.606ZM597.087 223.04C601.439 223.04 603.903 225.216 603.903 229.568V240H601.727V237.376C600.703 239.104 598.719 240.16 595.935 240.16C592.127 240.16 589.791 238.176 589.791 235.264C589.791 232.672 591.455 230.496 596.287 230.496H601.631V229.472C601.631 226.592 599.999 225.024 596.863 225.024C594.687 225.024 592.639 225.792 591.263 227.008L590.239 225.312C591.935 223.872 594.431 223.04 597.087 223.04ZM596.287 238.368C598.847 238.368 600.735 237.152 601.631 234.944V232.192H596.351C593.087 232.192 592.031 233.472 592.031 235.2C592.031 237.152 593.599 238.368 596.287 238.368ZM618.746 223.04C623.546 223.04 627.13 226.496 627.13 231.584C627.13 236.672 623.546 240.16 618.746 240.16C615.962 240.16 613.626 238.944 612.25 236.672V240H610.074V216.256H612.346V226.368C613.754 224.192 616.058 223.04 618.746 223.04ZM618.586 238.144C622.138 238.144 624.858 235.52 624.858 231.584C624.858 227.648 622.138 225.024 618.586 225.024C615.002 225.024 612.314 227.648 612.314 231.584C612.314 235.52 615.002 238.144 618.586 238.144ZM631.762 240V216.256H634.034V240H631.762ZM655.044 231.584C655.044 231.776 655.012 232.032 655.012 232.288H640.932C641.188 235.808 643.876 238.144 647.556 238.144C649.604 238.144 651.428 237.408 652.708 235.936L653.988 237.408C652.484 239.2 650.148 240.16 647.492 240.16C642.244 240.16 638.66 236.576 638.66 231.584C638.66 226.592 642.148 223.04 646.884 223.04C651.62 223.04 655.044 226.528 655.044 231.584ZM646.884 224.992C643.62 224.992 641.22 227.296 640.932 230.592H652.868C652.58 227.296 650.18 224.992 646.884 224.992ZM676.715 223.04C681.515 223.04 685.099 226.496 685.099 231.584C685.099 236.704 681.515 240.16 676.715 240.16C674.027 240.16 671.723 239.008 670.315 236.832V246.208H668.043V223.168H670.219V226.496C671.595 224.256 673.931 223.04 676.715 223.04ZM676.555 238.144C680.107 238.144 682.827 235.52 682.827 231.584C682.827 227.68 680.107 225.024 676.555 225.024C672.971 225.024 670.283 227.68 670.283 231.584C670.283 235.52 672.971 238.144 676.555 238.144ZM704.419 231.584C704.419 231.776 704.387 232.032 704.387 232.288H690.307C690.562 235.808 693.251 238.144 696.931 238.144C698.979 238.144 700.803 237.408 702.083 235.936L703.363 237.408C701.859 239.2 699.523 240.16 696.867 240.16C691.619 240.16 688.035 236.576 688.035 231.584C688.035 226.592 691.523 223.04 696.259 223.04C700.995 223.04 704.419 226.528 704.419 231.584ZM696.259 224.992C692.995 224.992 690.595 227.296 690.307 230.592H702.243C701.955 227.296 699.555 224.992 696.259 224.992ZM713.555 240.16C710.771 240.16 708.083 239.264 706.707 238.08L707.731 236.288C709.075 237.344 711.347 238.176 713.715 238.176C716.915 238.176 718.227 237.088 718.227 235.424C718.227 231.04 707.315 234.496 707.315 227.84C707.315 225.088 709.683 223.04 713.971 223.04C716.147 223.04 718.515 223.648 719.923 224.608L718.931 226.432C717.459 225.408 715.699 224.992 713.971 224.992C710.931 224.992 709.587 226.176 709.587 227.776C709.587 232.32 720.499 228.896 720.499 235.36C720.499 238.272 717.939 240.16 713.555 240.16ZM732.763 237.344L733.563 238.976C732.667 239.776 731.323 240.16 730.011 240.16C726.843 240.16 725.083 238.368 725.083 235.264V225.088H722.075V223.168H725.083V219.488H727.355V223.168H732.475V225.088H727.355V235.136C727.355 237.12 728.379 238.208 730.267 238.208C731.195 238.208 732.123 237.92 732.763 237.344ZM73.144 279.16C68.12 279.16 64.472 275.608 64.472 270.584C64.472 265.56 68.12 262.04 73.144 262.04C75.992 262.04 78.392 263.16 79.736 265.368L78.04 266.52C76.888 264.824 75.096 264.024 73.144 264.024C69.464 264.024 66.776 266.648 66.776 270.584C66.776 274.552 69.464 277.144 73.144 277.144C75.096 277.144 76.888 276.376 78.04 274.68L79.736 275.832C78.392 278.008 75.992 279.16 73.144 279.16ZM90.798 279.16C85.87 279.16 82.222 275.576 82.222 270.584C82.222 265.592 85.87 262.04 90.798 262.04C95.726 262.04 99.342 265.592 99.342 270.584C99.342 275.576 95.726 279.16 90.798 279.16ZM90.798 277.144C94.382 277.144 97.038 274.52 97.038 270.584C97.038 266.648 94.382 264.024 90.798 264.024C87.214 264.024 84.526 266.648 84.526 270.584C84.526 274.52 87.214 277.144 90.798 277.144ZM112.557 262.04C116.653 262.04 119.469 264.408 119.469 269.24V279H117.197V269.464C117.197 265.912 115.341 264.088 112.141 264.088C108.525 264.088 106.253 266.328 106.253 270.168V279H103.981V262.168H106.157V265.272C107.373 263.224 109.645 262.04 112.557 262.04ZM130.149 279.16C127.365 279.16 124.677 278.264 123.301 277.08L124.325 275.288C125.669 276.344 127.941 277.176 130.309 277.176C133.509 277.176 134.821 276.088 134.821 274.424C134.821 270.04 123.909 273.496 123.909 266.84C123.909 264.088 126.277 262.04 130.565 262.04C132.741 262.04 135.109 262.648 136.517 263.608L135.525 265.432C134.053 264.408 132.293 263.992 130.565 263.992C127.525 263.992 126.181 265.176 126.181 266.776C126.181 271.32 137.093 267.896 137.093 274.36C137.093 277.272 134.533 279.16 130.149 279.16ZM154.189 262.168H156.461V279H154.285V275.928C153.101 277.976 150.925 279.16 148.237 279.16C143.949 279.16 141.133 276.76 141.133 271.928V262.168H143.405V271.704C143.405 275.288 145.261 277.112 148.461 277.112C151.981 277.112 154.189 274.84 154.189 271V262.168ZM162.824 279V255.256H165.096V279H162.824ZM179.545 276.344L180.345 277.976C179.449 278.776 178.105 279.16 176.793 279.16C173.625 279.16 171.865 277.368 171.865 274.264V264.088H168.857V262.168H171.865V258.488H174.137V262.168H179.257V264.088H174.137V274.136C174.137 276.12 175.161 277.208 177.049 277.208C177.977 277.208 178.905 276.92 179.545 276.344ZM190.369 262.04C194.721 262.04 197.185 264.216 197.185 268.568V279H195.009V276.376C193.985 278.104 192.001 279.16 189.217 279.16C185.409 279.16 183.073 277.176 183.073 274.264C183.073 271.672 184.737 269.496 189.569 269.496H194.913V268.472C194.913 265.592 193.281 264.024 190.145 264.024C187.969 264.024 185.921 264.792 184.545 266.008L183.521 264.312C185.217 262.872 187.713 262.04 190.369 262.04ZM189.569 277.368C192.129 277.368 194.017 276.152 194.913 273.944V271.192H189.633C186.369 271.192 185.312 272.472 185.312 274.2C185.312 276.152 186.881 277.368 189.569 277.368ZM211.42 276.344L212.22 277.976C211.324 278.776 209.98 279.16 208.668 279.16C205.5 279.16 203.74 277.368 203.74 274.264V264.088H200.732V262.168H203.74V258.488H206.012V262.168H211.132V264.088H206.012V274.136C206.012 276.12 207.036 277.208 208.924 277.208C209.852 277.208 210.78 276.92 211.42 276.344ZM217.508 258.488C216.58 258.488 215.844 257.752 215.844 256.856C215.844 255.992 216.58 255.256 217.508 255.256C218.436 255.256 219.172 255.96 219.172 256.824C219.172 257.752 218.468 258.488 217.508 258.488ZM216.356 279V262.168H218.628V279H216.356ZM231.829 279.16C226.901 279.16 223.253 275.576 223.253 270.584C223.253 265.592 226.901 262.04 231.829 262.04C236.757 262.04 240.373 265.592 240.373 270.584C240.373 275.576 236.757 279.16 231.829 279.16ZM231.829 277.144C235.413 277.144 238.069 274.52 238.069 270.584C238.069 266.648 235.413 264.024 231.829 264.024C228.245 264.024 225.557 266.648 225.557 270.584C225.557 274.52 228.245 277.144 231.829 277.144ZM253.588 262.04C257.684 262.04 260.5 264.408 260.5 269.24V279H258.228V269.464C258.228 265.912 256.372 264.088 253.172 264.088C249.556 264.088 247.284 266.328 247.284 270.168V279H245.012V262.168H247.188V265.272C248.404 263.224 250.676 262.04 253.588 262.04ZM282.019 279.16C276.995 279.16 273.347 275.608 273.347 270.584C273.347 265.56 276.995 262.04 282.019 262.04C284.867 262.04 287.267 263.16 288.611 265.368L286.915 266.52C285.763 264.824 283.971 264.024 282.019 264.024C278.339 264.024 275.651 266.648 275.651 270.584C275.651 274.552 278.339 277.144 282.019 277.144C283.971 277.144 285.763 276.376 286.915 274.68L288.611 275.832C287.267 278.008 284.867 279.16 282.019 279.16ZM299.673 279.16C294.745 279.16 291.097 275.576 291.097 270.584C291.097 265.592 294.745 262.04 299.673 262.04C304.601 262.04 308.217 265.592 308.217 270.584C308.217 275.576 304.601 279.16 299.673 279.16ZM299.673 277.144C303.257 277.144 305.913 274.52 305.913 270.584C305.913 266.648 303.257 264.024 299.673 264.024C296.089 264.024 293.401 266.648 293.401 270.584C293.401 274.52 296.089 277.144 299.673 277.144ZM333.848 262.04C337.944 262.04 340.632 264.408 340.632 269.24V279H338.36V269.464C338.36 265.912 336.568 264.088 333.528 264.088C330.072 264.088 327.896 266.328 327.896 270.168V279H325.624V269.464C325.624 265.912 323.832 264.088 320.76 264.088C317.336 264.088 315.128 266.328 315.128 270.168V279H312.856V262.168H315.032V265.24C316.216 263.224 318.392 262.04 321.208 262.04C323.992 262.04 326.168 263.224 327.192 265.592C328.408 263.416 330.808 262.04 333.848 262.04ZM355.465 262.04C360.265 262.04 363.849 265.496 363.849 270.584C363.849 275.704 360.265 279.16 355.465 279.16C352.777 279.16 350.473 278.008 349.065 275.832V285.208H346.793V262.168H348.969V265.496C350.345 263.256 352.681 262.04 355.465 262.04ZM355.305 277.144C358.857 277.144 361.577 274.52 361.577 270.584C361.577 266.68 358.857 264.024 355.305 264.024C351.721 264.024 349.033 266.68 349.033 270.584C349.033 274.52 351.721 277.144 355.305 277.144ZM374.275 262.04C378.627 262.04 381.091 264.216 381.091 268.568V279H378.915V276.376C377.891 278.104 375.907 279.16 373.123 279.16C369.315 279.16 366.979 277.176 366.979 274.264C366.979 271.672 368.643 269.496 373.475 269.496H378.819V268.472C378.819 265.592 377.187 264.024 374.051 264.024C371.875 264.024 369.827 264.792 368.451 266.008L367.427 264.312C369.123 262.872 371.619 262.04 374.275 262.04ZM373.475 277.368C376.035 277.368 377.923 276.152 378.819 273.944V271.192H373.539C370.275 271.192 369.219 272.472 369.219 274.2C369.219 276.152 370.787 277.368 373.475 277.368ZM395.838 262.04C399.934 262.04 402.75 264.408 402.75 269.24V279H400.478V269.464C400.478 265.912 398.622 264.088 395.422 264.088C391.806 264.088 389.534 266.328 389.534 270.168V279H387.262V262.168H389.438V265.272C390.654 263.224 392.926 262.04 395.838 262.04ZM410.07 258.488C409.142 258.488 408.406 257.752 408.406 256.856C408.406 255.992 409.142 255.256 410.07 255.256C410.998 255.256 411.734 255.96 411.734 256.824C411.734 257.752 411.03 258.488 410.07 258.488ZM408.918 279V262.168H411.19V279H408.918ZM424.392 279.16C419.464 279.16 415.816 275.576 415.816 270.584C415.816 265.592 419.464 262.04 424.392 262.04C429.32 262.04 432.936 265.592 432.936 270.584C432.936 275.576 429.32 279.16 424.392 279.16ZM424.392 277.144C427.976 277.144 430.632 274.52 430.632 270.584C430.632 266.648 427.976 264.024 424.392 264.024C420.808 264.024 418.12 266.648 418.12 270.584C418.12 274.52 420.808 277.144 424.392 277.144ZM446.15 262.04C450.246 262.04 453.062 264.408 453.062 269.24V279H450.79V269.464C450.79 265.912 448.934 264.088 445.734 264.088C442.118 264.088 439.846 266.328 439.846 270.168V279H437.574V262.168H439.75V265.272C440.966 263.224 443.238 262.04 446.15 262.04ZM459.455 279.16C458.527 279.16 457.759 278.392 457.759 277.4C457.759 276.408 458.527 275.672 459.455 275.672C460.383 275.672 461.183 276.408 461.183 277.4C461.183 278.392 460.383 279.16 459.455 279.16ZM503.347 256.6H505.619L498.067 279H495.571L489.011 259.896L482.419 279H479.955L472.403 256.6H474.835L481.299 275.864L487.987 256.6H490.195L496.787 275.96L503.347 256.6ZM522.887 270.584C522.887 270.776 522.855 271.032 522.855 271.288H508.775C509.031 274.808 511.719 277.144 515.399 277.144C517.447 277.144 519.271 276.408 520.551 274.936L521.831 276.408C520.327 278.2 517.991 279.16 515.335 279.16C510.087 279.16 506.503 275.576 506.503 270.584C506.503 265.592 509.991 262.04 514.727 262.04C519.463 262.04 522.887 265.528 522.887 270.584ZM514.727 263.992C511.463 263.992 509.063 266.296 508.775 269.592H520.711C520.423 266.296 518.023 263.992 514.727 263.992ZM548.783 262.168H551.055V279H548.879V275.928C547.695 277.976 545.519 279.16 542.831 279.16C538.543 279.16 535.727 276.76 535.727 271.928V262.168H537.999V271.704C537.999 275.288 539.855 277.112 543.055 277.112C546.575 277.112 548.783 274.84 548.783 271V262.168ZM565.994 262.04C570.09 262.04 572.906 264.408 572.906 269.24V279H570.634V269.464C570.634 265.912 568.778 264.088 565.578 264.088C561.962 264.088 559.69 266.328 559.69 270.168V279H557.418V262.168H559.594V265.272C560.81 263.224 563.082 262.04 565.994 262.04ZM592.225 255.256H594.497V279H592.321V275.672C590.945 277.944 588.609 279.16 585.825 279.16C581.025 279.16 577.441 275.672 577.441 270.584C577.441 265.496 581.025 262.04 585.825 262.04C588.513 262.04 590.817 263.192 592.225 265.368V255.256ZM586.017 277.144C589.569 277.144 592.257 274.52 592.257 270.584C592.257 266.648 589.569 264.024 586.017 264.024C582.433 264.024 579.745 266.648 579.745 270.584C579.745 274.52 582.433 277.144 586.017 277.144ZM615.512 270.584C615.512 270.776 615.48 271.032 615.48 271.288H601.4C601.656 274.808 604.344 277.144 608.024 277.144C610.072 277.144 611.896 276.408 613.176 274.936L614.456 276.408C612.952 278.2 610.616 279.16 607.96 279.16C602.712 279.16 599.128 275.576 599.128 270.584C599.128 265.592 602.616 262.04 607.352 262.04C612.088 262.04 615.512 265.528 615.512 270.584ZM607.352 263.992C604.088 263.992 601.688 266.296 601.4 269.592H613.336C613.048 266.296 610.648 263.992 607.352 263.992ZM622.313 265.464C623.369 263.224 625.513 262.04 628.617 262.04V264.248C628.425 264.248 628.233 264.216 628.073 264.216C624.553 264.216 622.409 266.456 622.409 270.424V279H620.137V262.168H622.313V265.464ZM637.368 279.16C634.584 279.16 631.896 278.264 630.52 277.08L631.544 275.288C632.888 276.344 635.16 277.176 637.528 277.176C640.728 277.176 642.04 276.088 642.04 274.424C642.04 270.04 631.128 273.496 631.128 266.84C631.128 264.088 633.496 262.04 637.784 262.04C639.96 262.04 642.328 262.648 643.736 263.608L642.744 265.432C641.272 264.408 639.512 263.992 637.784 263.992C634.744 263.992 633.4 265.176 633.4 266.776C633.4 271.32 644.312 267.896 644.312 274.36C644.312 277.272 641.752 279.16 637.368 279.16ZM656.576 276.344L657.376 277.976C656.48 278.776 655.136 279.16 653.824 279.16C650.656 279.16 648.896 277.368 648.896 274.264V264.088H645.888V262.168H648.896V258.488H651.168V262.168H656.288V264.088H651.168V274.136C651.168 276.12 652.192 277.208 654.08 277.208C655.008 277.208 655.936 276.92 656.576 276.344ZM667.4 262.04C671.752 262.04 674.216 264.216 674.216 268.568V279H672.04V276.376C671.016 278.104 669.032 279.16 666.248 279.16C662.44 279.16 660.104 277.176 660.104 274.264C660.104 271.672 661.768 269.496 666.6 269.496H671.944V268.472C671.944 265.592 670.312 264.024 667.176 264.024C665 264.024 662.952 264.792 661.576 266.008L660.552 264.312C662.248 262.872 664.744 262.04 667.4 262.04ZM666.6 277.368C669.16 277.368 671.048 276.152 671.944 273.944V271.192H666.664C663.4 271.192 662.344 272.472 662.344 274.2C662.344 276.152 663.912 277.368 666.6 277.368ZM688.963 262.04C693.059 262.04 695.875 264.408 695.875 269.24V279H693.603V269.464C693.603 265.912 691.747 264.088 688.547 264.088C684.931 264.088 682.659 266.328 682.659 270.168V279H680.387V262.168H682.563V265.272C683.779 263.224 686.051 262.04 688.963 262.04ZM715.194 255.256H717.466V279H715.29V275.672C713.914 277.944 711.578 279.16 708.794 279.16C703.994 279.16 700.41 275.672 700.41 270.584C700.41 265.496 703.994 262.04 708.794 262.04C711.482 262.04 713.786 263.192 715.194 265.368V255.256ZM708.986 277.144C712.538 277.144 715.226 274.52 715.226 270.584C715.226 266.648 712.538 264.024 708.986 264.024C705.402 264.024 702.714 266.648 702.714 270.584C702.714 274.52 705.402 277.144 708.986 277.144ZM74.232 315.344L75.032 316.976C74.136 317.776 72.792 318.16 71.48 318.16C68.312 318.16 66.552 316.368 66.552 313.264V303.088H63.544V301.168H66.552V297.488H68.824V301.168H73.944V303.088H68.824V313.136C68.824 315.12 69.848 316.208 71.736 316.208C72.664 316.208 73.592 315.92 74.232 315.344ZM87.744 301.04C91.84 301.04 94.656 303.408 94.656 308.24V318H92.384V308.464C92.384 304.912 90.528 303.088 87.328 303.088C83.712 303.088 81.44 305.328 81.44 309.168V318H79.168V294.256H81.44V304.112C82.688 302.16 84.896 301.04 87.744 301.04ZM115.575 309.584C115.575 309.776 115.543 310.032 115.543 310.288H101.463C101.719 313.808 104.407 316.144 108.087 316.144C110.135 316.144 111.959 315.408 113.239 313.936L114.519 315.408C113.015 317.2 110.679 318.16 108.023 318.16C102.775 318.16 99.1908 314.576 99.1908 309.584C99.1908 304.592 102.679 301.04 107.415 301.04C112.151 301.04 115.575 304.528 115.575 309.584ZM107.415 302.992C104.151 302.992 101.751 305.296 101.463 308.592H113.399C113.111 305.296 110.711 302.992 107.415 302.992ZM135.55 318.16C130.526 318.16 126.878 314.608 126.878 309.584C126.878 304.56 130.526 301.04 135.55 301.04C138.398 301.04 140.798 302.16 142.142 304.368L140.446 305.52C139.294 303.824 137.502 303.024 135.55 303.024C131.87 303.024 129.182 305.648 129.182 309.584C129.182 313.552 131.87 316.144 135.55 316.144C137.502 316.144 139.294 315.376 140.446 313.68L142.142 314.832C140.798 317.008 138.398 318.16 135.55 318.16ZM154.932 301.04C159.028 301.04 161.844 303.408 161.844 308.24V318H159.572V308.464C159.572 304.912 157.716 303.088 154.516 303.088C150.9 303.088 148.628 305.328 148.628 309.168V318H146.356V294.256H148.628V304.112C149.876 302.16 152.084 301.04 154.932 301.04ZM173.9 301.04C178.252 301.04 180.716 303.216 180.716 307.568V318H178.54V315.376C177.516 317.104 175.532 318.16 172.748 318.16C168.94 318.16 166.604 316.176 166.604 313.264C166.604 310.672 168.268 308.496 173.1 308.496H178.444V307.472C178.444 304.592 176.812 303.024 173.676 303.024C171.5 303.024 169.452 303.792 168.076 305.008L167.052 303.312C168.748 301.872 171.244 301.04 173.9 301.04ZM173.1 316.368C175.66 316.368 177.548 315.152 178.444 312.944V310.192H173.164C169.9 310.192 168.844 311.472 168.844 313.2C168.844 315.152 170.412 316.368 173.1 316.368ZM186.887 318V294.256H189.159V318H186.887ZM195.481 318V294.256H197.753V318H195.481ZM218.762 309.584C218.762 309.776 218.73 310.032 218.73 310.288H204.65C204.906 313.808 207.594 316.144 211.274 316.144C213.322 316.144 215.146 315.408 216.426 313.936L217.706 315.408C216.202 317.2 213.866 318.16 211.21 318.16C205.962 318.16 202.378 314.576 202.378 309.584C202.378 304.592 205.866 301.04 210.602 301.04C215.338 301.04 218.762 304.528 218.762 309.584ZM210.602 302.992C207.338 302.992 204.938 305.296 204.65 308.592H216.586C216.298 305.296 213.898 302.992 210.602 302.992ZM231.963 301.04C236.059 301.04 238.875 303.408 238.875 308.24V318H236.603V308.464C236.603 304.912 234.747 303.088 231.547 303.088C227.931 303.088 225.659 305.328 225.659 309.168V318H223.387V301.168H225.563V304.272C226.779 302.224 229.051 301.04 231.963 301.04ZM258.514 301.168H260.69V315.952C260.69 321.744 257.842 324.368 252.274 324.368C249.202 324.368 246.194 323.44 244.434 321.776L245.586 320.048C247.186 321.488 249.618 322.352 252.21 322.352C256.466 322.352 258.418 320.4 258.418 316.24V314.096C257.01 316.24 254.61 317.36 251.858 317.36C247.058 317.36 243.41 314 243.41 309.168C243.41 304.336 247.058 301.04 251.858 301.04C254.674 301.04 257.106 302.192 258.514 304.4V301.168ZM252.082 315.344C255.794 315.344 258.482 312.816 258.482 309.168C258.482 305.52 255.794 303.024 252.082 303.024C248.37 303.024 245.714 305.52 245.714 309.168C245.714 312.816 248.37 315.344 252.082 315.344ZM281.731 309.584C281.731 309.776 281.699 310.032 281.699 310.288H267.619C267.875 313.808 270.563 316.144 274.243 316.144C276.291 316.144 278.115 315.408 279.395 313.936L280.675 315.408C279.171 317.2 276.835 318.16 274.179 318.16C268.931 318.16 265.347 314.576 265.347 309.584C265.347 304.592 268.835 301.04 273.571 301.04C278.307 301.04 281.731 304.528 281.731 309.584ZM273.571 302.992C270.307 302.992 267.907 305.296 267.619 308.592H279.555C279.267 305.296 276.867 302.992 273.571 302.992ZM290.868 318.16C288.084 318.16 285.396 317.264 284.02 316.08L285.044 314.288C286.388 315.344 288.66 316.176 291.028 316.176C294.228 316.176 295.54 315.088 295.54 313.424C295.54 309.04 284.628 312.496 284.628 305.84C284.628 303.088 286.996 301.04 291.284 301.04C293.46 301.04 295.828 301.648 297.236 302.608L296.244 304.432C294.772 303.408 293.012 302.992 291.284 302.992C288.244 302.992 286.9 304.176 286.9 305.776C286.9 310.32 297.812 306.896 297.812 313.36C297.812 316.272 295.252 318.16 290.868 318.16ZM317.267 318.16C312.339 318.16 308.691 314.576 308.691 309.584C308.691 304.592 312.339 301.04 317.267 301.04C322.195 301.04 325.811 304.592 325.811 309.584C325.811 314.576 322.195 318.16 317.267 318.16ZM317.267 316.144C320.851 316.144 323.507 313.52 323.507 309.584C323.507 305.648 320.851 303.024 317.267 303.024C313.683 303.024 310.995 305.648 310.995 309.584C310.995 313.52 313.683 316.144 317.267 316.144ZM336.017 296.016C334.065 296.016 333.041 297.104 333.041 299.184V301.168H338.225V303.088H333.105V318H330.833V303.088H327.825V301.168H330.833V299.088C330.833 296.08 332.625 294.096 335.921 294.096C337.169 294.096 338.449 294.448 339.281 295.152L338.513 296.848C337.873 296.304 336.977 296.016 336.017 296.016ZM362.756 294.256H365.028V318H362.852V314.672C361.476 316.944 359.14 318.16 356.356 318.16C351.556 318.16 347.972 314.672 347.972 309.584C347.972 304.496 351.556 301.04 356.356 301.04C359.044 301.04 361.348 302.192 362.756 304.368V294.256ZM356.548 316.144C360.1 316.144 362.788 313.52 362.788 309.584C362.788 305.648 360.1 303.024 356.548 303.024C352.964 303.024 350.276 305.648 350.276 309.584C350.276 313.52 352.964 316.144 356.548 316.144ZM386.044 309.584C386.044 309.776 386.012 310.032 386.012 310.288H371.932C372.188 313.808 374.876 316.144 378.556 316.144C380.604 316.144 382.428 315.408 383.708 313.936L384.988 315.408C383.484 317.2 381.148 318.16 378.492 318.16C373.244 318.16 369.66 314.576 369.66 309.584C369.66 304.592 373.148 301.04 377.884 301.04C382.62 301.04 386.044 304.528 386.044 309.584ZM377.884 302.992C374.62 302.992 372.22 305.296 371.932 308.592H383.868C383.58 305.296 381.18 302.992 377.884 302.992ZM396.087 301.04C400.439 301.04 402.903 303.216 402.903 307.568V318H400.727V315.376C399.703 317.104 397.719 318.16 394.935 318.16C391.127 318.16 388.791 316.176 388.791 313.264C388.791 310.672 390.455 308.496 395.287 308.496H400.631V307.472C400.631 304.592 398.999 303.024 395.863 303.024C393.687 303.024 391.639 303.792 390.263 305.008L389.239 303.312C390.935 301.872 393.431 301.04 396.087 301.04ZM395.287 316.368C397.847 316.368 399.735 315.152 400.631 312.944V310.192H395.351C392.087 310.192 391.031 311.472 391.031 313.2C391.031 315.152 392.599 316.368 395.287 316.368ZM409.074 318V294.256H411.346V318H409.074ZM418.82 297.488C417.892 297.488 417.156 296.752 417.156 295.856C417.156 294.992 417.892 294.256 418.82 294.256C419.748 294.256 420.484 294.96 420.484 295.824C420.484 296.752 419.78 297.488 418.82 297.488ZM417.668 318V301.168H419.94V318H417.668ZM434.838 301.04C438.934 301.04 441.75 303.408 441.75 308.24V318H439.478V308.464C439.478 304.912 437.622 303.088 434.422 303.088C430.806 303.088 428.534 305.328 428.534 309.168V318H426.262V301.168H428.438V304.272C429.654 302.224 431.926 301.04 434.838 301.04ZM461.389 301.168H463.565V315.952C463.565 321.744 460.717 324.368 455.149 324.368C452.077 324.368 449.069 323.44 447.309 321.776L448.461 320.048C450.061 321.488 452.493 322.352 455.085 322.352C459.341 322.352 461.293 320.4 461.293 316.24V314.096C459.885 316.24 457.485 317.36 454.733 317.36C449.933 317.36 446.285 314 446.285 309.168C446.285 304.336 449.933 301.04 454.733 301.04C457.549 301.04 459.981 302.192 461.389 304.4V301.168ZM454.957 315.344C458.669 315.344 461.357 312.816 461.357 309.168C461.357 305.52 458.669 303.024 454.957 303.024C451.245 303.024 448.589 305.52 448.589 309.168C448.589 312.816 451.245 315.344 454.957 315.344ZM500.917 301.168H502.997L496.629 318H494.485L489.173 304.208L483.861 318H481.717L475.381 301.168H477.557L482.837 315.472L488.245 301.168H490.197L495.573 315.472L500.917 301.168ZM507.57 297.488C506.642 297.488 505.906 296.752 505.906 295.856C505.906 294.992 506.642 294.256 507.57 294.256C508.498 294.256 509.234 294.96 509.234 295.824C509.234 296.752 508.53 297.488 507.57 297.488ZM506.418 318V301.168H508.69V318H506.418ZM523.076 315.344L523.876 316.976C522.98 317.776 521.636 318.16 520.324 318.16C517.156 318.16 515.396 316.368 515.396 313.264V303.088H512.388V301.168H515.396V297.488H517.668V301.168H522.788V303.088H517.668V313.136C517.668 315.12 518.692 316.208 520.58 316.208C521.508 316.208 522.436 315.92 523.076 315.344ZM536.588 301.04C540.684 301.04 543.5 303.408 543.5 308.24V318H541.228V308.464C541.228 304.912 539.372 303.088 536.172 303.088C532.556 303.088 530.284 305.328 530.284 309.168V318H528.012V294.256H530.284V304.112C531.532 302.16 533.74 301.04 536.588 301.04ZM566.715 301.04C571.515 301.04 575.099 304.496 575.099 309.584C575.099 314.704 571.515 318.16 566.715 318.16C564.027 318.16 561.723 317.008 560.315 314.832V324.208H558.043V301.168H560.219V304.496C561.595 302.256 563.931 301.04 566.715 301.04ZM566.555 316.144C570.107 316.144 572.827 313.52 572.827 309.584C572.827 305.68 570.107 303.024 566.555 303.024C562.971 303.024 560.283 305.68 560.283 309.584C560.283 313.52 562.971 316.144 566.555 316.144ZM594.419 309.584C594.419 309.776 594.387 310.032 594.387 310.288H580.307C580.562 313.808 583.251 316.144 586.931 316.144C588.979 316.144 590.803 315.408 592.083 313.936L593.363 315.408C591.859 317.2 589.523 318.16 586.867 318.16C581.619 318.16 578.035 314.576 578.035 309.584C578.035 304.592 581.523 301.04 586.259 301.04C590.995 301.04 594.419 304.528 594.419 309.584ZM586.259 302.992C582.995 302.992 580.595 305.296 580.307 308.592H592.243C591.955 305.296 589.555 302.992 586.259 302.992ZM603.555 318.16C600.771 318.16 598.083 317.264 596.707 316.08L597.731 314.288C599.075 315.344 601.347 316.176 603.715 316.176C606.915 316.176 608.227 315.088 608.227 313.424C608.227 309.04 597.315 312.496 597.315 305.84C597.315 303.088 599.683 301.04 603.971 301.04C606.147 301.04 608.515 301.648 609.923 302.608L608.931 304.432C607.459 303.408 605.699 302.992 603.971 302.992C600.931 302.992 599.587 304.176 599.587 305.776C599.587 310.32 610.499 306.896 610.499 313.36C610.499 316.272 607.939 318.16 603.555 318.16ZM622.763 315.344L623.563 316.976C622.667 317.776 621.323 318.16 620.011 318.16C616.843 318.16 615.083 316.368 615.083 313.264V303.088H612.075V301.168H615.083V297.488H617.355V301.168H622.475V303.088H617.355V313.136C617.355 315.12 618.379 316.208 620.267 316.208C621.195 316.208 622.123 315.92 622.763 315.344ZM632.211 318.16C629.427 318.16 626.739 317.264 625.363 316.08L626.387 314.288C627.731 315.344 630.003 316.176 632.371 316.176C635.571 316.176 636.883 315.088 636.883 313.424C636.883 309.04 625.971 312.496 625.971 305.84C625.971 303.088 628.339 301.04 632.627 301.04C634.803 301.04 637.171 301.648 638.579 302.608L637.587 304.432C636.115 303.408 634.355 302.992 632.627 302.992C629.587 302.992 628.243 304.176 628.243 305.776C628.243 310.32 639.155 306.896 639.155 313.36C639.155 316.272 636.595 318.16 632.211 318.16ZM657.619 301.04C661.971 301.04 664.435 303.216 664.435 307.568V318H662.259V315.376C661.235 317.104 659.251 318.16 656.467 318.16C652.659 318.16 650.323 316.176 650.323 313.264C650.323 310.672 651.987 308.496 656.819 308.496H662.163V307.472C662.163 304.592 660.531 303.024 657.395 303.024C655.219 303.024 653.171 303.792 651.795 305.008L650.771 303.312C652.467 301.872 654.963 301.04 657.619 301.04ZM656.819 316.368C659.379 316.368 661.267 315.152 662.163 312.944V310.192H656.883C653.619 310.192 652.562 311.472 652.562 313.2C652.562 315.152 654.131 316.368 656.819 316.368ZM678.67 315.344L679.47 316.976C678.574 317.776 677.23 318.16 675.918 318.16C672.75 318.16 670.99 316.368 670.99 313.264V303.088H667.982V301.168H670.99V297.488H673.262V301.168H678.382V303.088H673.262V313.136C673.262 315.12 674.286 316.208 676.174 316.208C677.102 316.208 678.03 315.92 678.67 315.344ZM74.744 340.04C78.84 340.04 81.656 342.408 81.656 347.24V357H79.384V347.464C79.384 343.912 77.528 342.088 74.328 342.088C70.712 342.088 68.44 344.328 68.44 348.168V357H66.168V333.256H68.44V343.112C69.688 341.16 71.896 340.04 74.744 340.04ZM94.7668 357.16C89.8388 357.16 86.1908 353.576 86.1908 348.584C86.1908 343.592 89.8388 340.04 94.7668 340.04C99.6948 340.04 103.311 343.592 103.311 348.584C103.311 353.576 99.6948 357.16 94.7668 357.16ZM94.7668 355.144C98.3508 355.144 101.007 352.52 101.007 348.584C101.007 344.648 98.3508 342.024 94.7668 342.024C91.1828 342.024 88.4948 344.648 88.4948 348.584C88.4948 352.52 91.1828 355.144 94.7668 355.144ZM128.941 340.04C133.037 340.04 135.725 342.408 135.725 347.24V357H133.453V347.464C133.453 343.912 131.661 342.088 128.621 342.088C125.165 342.088 122.989 344.328 122.989 348.168V357H120.717V347.464C120.717 343.912 118.925 342.088 115.853 342.088C112.429 342.088 110.221 344.328 110.221 348.168V357H107.949V340.168H110.125V343.24C111.309 341.224 113.485 340.04 116.301 340.04C119.085 340.04 121.261 341.224 122.285 343.592C123.501 341.416 125.901 340.04 128.941 340.04ZM156.637 348.584C156.637 348.776 156.605 349.032 156.605 349.288H142.525C142.781 352.808 145.469 355.144 149.149 355.144C151.197 355.144 153.021 354.408 154.301 352.936L155.581 354.408C154.077 356.2 151.741 357.16 149.085 357.16C143.837 357.16 140.253 353.576 140.253 348.584C140.253 343.592 143.741 340.04 148.477 340.04C153.213 340.04 156.637 343.528 156.637 348.584ZM148.477 341.992C145.213 341.992 142.813 344.296 142.525 347.592H154.461C154.173 344.296 151.773 341.992 148.477 341.992ZM161.518 353.672C162.51 353.672 163.214 354.44 163.214 355.4C163.214 355.944 163.086 356.36 162.766 357.256L161.422 361.672H159.886L160.974 357.032C160.302 356.84 159.822 356.232 159.822 355.4C159.822 354.408 160.558 353.672 161.518 353.672ZM177.57 336.488C176.642 336.488 175.906 335.752 175.906 334.856C175.906 333.992 176.642 333.256 177.57 333.256C178.498 333.256 179.234 333.96 179.234 334.824C179.234 335.752 178.53 336.488 177.57 336.488ZM176.418 357V340.168H178.69V357H176.418ZM193.588 340.04C197.684 340.04 200.5 342.408 200.5 347.24V357H198.228V347.464C198.228 343.912 196.372 342.088 193.172 342.088C189.556 342.088 187.284 344.328 187.284 348.168V357H185.012V340.168H187.188V343.272C188.404 341.224 190.676 340.04 193.588 340.04ZM223.107 354.344L223.907 355.976C223.011 356.776 221.667 357.16 220.355 357.16C217.187 357.16 215.427 355.368 215.427 352.264V342.088H212.419V340.168H215.427V336.488H217.699V340.168H222.819V342.088H217.699V352.136C217.699 354.12 218.723 355.208 220.611 355.208C221.539 355.208 222.467 354.92 223.107 354.344ZM236.619 340.04C240.715 340.04 243.531 342.408 243.531 347.24V357H241.259V347.464C241.259 343.912 239.403 342.088 236.203 342.088C232.587 342.088 230.315 344.328 230.315 348.168V357H228.043V333.256H230.315V343.112C231.563 341.16 233.771 340.04 236.619 340.04ZM264.45 348.584C264.45 348.776 264.418 349.032 264.418 349.288H250.338C250.594 352.808 253.282 355.144 256.962 355.144C259.01 355.144 260.834 354.408 262.114 352.936L263.394 354.408C261.89 356.2 259.554 357.16 256.898 357.16C251.65 357.16 248.066 353.576 248.066 348.584C248.066 343.592 251.554 340.04 256.29 340.04C261.026 340.04 264.45 343.528 264.45 348.584ZM256.29 341.992C253.026 341.992 250.626 344.296 250.338 347.592H262.274C261.986 344.296 259.586 341.992 256.29 341.992ZM290.857 340.168H293.033V354.952C293.033 360.744 290.185 363.368 284.617 363.368C281.545 363.368 278.537 362.44 276.777 360.776L277.929 359.048C279.529 360.488 281.961 361.352 284.553 361.352C288.809 361.352 290.761 359.4 290.761 355.24V353.096C289.353 355.24 286.953 356.36 284.201 356.36C279.401 356.36 275.753 353 275.753 348.168C275.753 343.336 279.401 340.04 284.201 340.04C287.017 340.04 289.449 341.192 290.857 343.4V340.168ZM284.425 354.344C288.137 354.344 290.825 351.816 290.825 348.168C290.825 344.52 288.137 342.024 284.425 342.024C280.713 342.024 278.057 344.52 278.057 348.168C278.057 351.816 280.713 354.344 284.425 354.344ZM305.275 340.04C309.627 340.04 312.091 342.216 312.091 346.568V357H309.915V354.376C308.891 356.104 306.907 357.16 304.123 357.16C300.315 357.16 297.979 355.176 297.979 352.264C297.979 349.672 299.643 347.496 304.475 347.496H309.819V346.472C309.819 343.592 308.187 342.024 305.051 342.024C302.875 342.024 300.827 342.792 299.451 344.008L298.427 342.312C300.123 340.872 302.619 340.04 305.275 340.04ZM304.475 355.368C307.035 355.368 308.923 354.152 309.819 351.944V349.192H304.539C301.275 349.192 300.219 350.472 300.219 352.2C300.219 354.152 301.787 355.368 304.475 355.368ZM320.438 343.464C321.494 341.224 323.638 340.04 326.742 340.04V342.248C326.55 342.248 326.358 342.216 326.198 342.216C322.678 342.216 320.534 344.456 320.534 348.424V357H318.262V340.168H320.438V343.464ZM343.787 333.256H346.059V357H343.883V353.672C342.507 355.944 340.171 357.16 337.387 357.16C332.587 357.16 329.003 353.672 329.003 348.584C329.003 343.496 332.587 340.04 337.387 340.04C340.075 340.04 342.379 341.192 343.787 343.368V333.256ZM337.579 355.144C341.131 355.144 343.819 352.52 343.819 348.584C343.819 344.648 341.131 342.024 337.579 342.024C333.995 342.024 331.307 344.648 331.307 348.584C331.307 352.52 333.995 355.144 337.579 355.144ZM367.075 348.584C367.075 348.776 367.043 349.032 367.043 349.288H352.963C353.219 352.808 355.907 355.144 359.587 355.144C361.635 355.144 363.459 354.408 364.739 352.936L366.019 354.408C364.515 356.2 362.179 357.16 359.523 357.16C354.275 357.16 350.691 353.576 350.691 348.584C350.691 343.592 354.179 340.04 358.915 340.04C363.651 340.04 367.075 343.528 367.075 348.584ZM358.915 341.992C355.651 341.992 353.251 344.296 352.963 347.592H364.899C364.611 344.296 362.211 341.992 358.915 341.992ZM380.275 340.04C384.371 340.04 387.187 342.408 387.187 347.24V357H384.915V347.464C384.915 343.912 383.059 342.088 379.859 342.088C376.243 342.088 373.971 344.328 373.971 348.168V357H371.699V340.168H373.875V343.272C375.091 341.224 377.363 340.04 380.275 340.04ZM393.612 353.672C394.604 353.672 395.308 354.44 395.308 355.4C395.308 355.944 395.18 356.36 394.86 357.256L393.516 361.672H391.98L393.068 357.032C392.396 356.84 391.916 356.232 391.916 355.4C391.916 354.408 392.652 353.672 393.612 353.672ZM415.392 357.16C410.464 357.16 406.816 353.576 406.816 348.584C406.816 343.592 410.464 340.04 415.392 340.04C420.32 340.04 423.936 343.592 423.936 348.584C423.936 353.576 420.32 357.16 415.392 357.16ZM415.392 355.144C418.976 355.144 421.632 352.52 421.632 348.584C421.632 344.648 418.976 342.024 415.392 342.024C411.808 342.024 409.12 344.648 409.12 348.584C409.12 352.52 411.808 355.144 415.392 355.144ZM430.75 343.464C431.806 341.224 433.95 340.04 437.054 340.04V342.248C436.862 342.248 436.67 342.216 436.51 342.216C432.99 342.216 430.846 344.456 430.846 348.424V357H428.574V340.168H430.75V343.464ZM455.681 340.04C460.033 340.04 462.497 342.216 462.497 346.568V357H460.321V354.376C459.297 356.104 457.313 357.16 454.529 357.16C450.721 357.16 448.385 355.176 448.385 352.264C448.385 349.672 450.049 347.496 454.881 347.496H460.225V346.472C460.225 343.592 458.593 342.024 455.457 342.024C453.281 342.024 451.233 342.792 449.857 344.008L448.833 342.312C450.529 340.872 453.025 340.04 455.681 340.04ZM454.881 355.368C457.441 355.368 459.329 354.152 460.225 351.944V349.192H454.945C451.681 349.192 450.625 350.472 450.625 352.2C450.625 354.152 452.193 355.368 454.881 355.368ZM476.732 354.344L477.532 355.976C476.636 356.776 475.292 357.16 473.98 357.16C470.812 357.16 469.052 355.368 469.052 352.264V342.088H466.044V340.168H469.052V336.488H471.324V340.168H476.444V342.088H471.324V352.136C471.324 354.12 472.348 355.208 474.236 355.208C475.164 355.208 476.092 354.92 476.732 354.344ZM512.667 340.168H514.747L508.379 357H506.235L500.923 343.208L495.611 357H493.467L487.131 340.168H489.307L494.587 354.472L499.995 340.168H501.947L507.323 354.472L512.667 340.168ZM524.579 357.16C519.651 357.16 516.003 353.576 516.003 348.584C516.003 343.592 519.651 340.04 524.579 340.04C529.507 340.04 533.123 343.592 533.123 348.584C533.123 353.576 529.507 357.16 524.579 357.16ZM524.579 355.144C528.163 355.144 530.819 352.52 530.819 348.584C530.819 344.648 528.163 342.024 524.579 342.024C520.995 342.024 518.307 344.648 518.307 348.584C518.307 352.52 520.995 355.144 524.579 355.144ZM539.938 343.464C540.994 341.224 543.138 340.04 546.242 340.04V342.248C546.05 342.248 545.858 342.216 545.698 342.216C542.178 342.216 540.034 344.456 540.034 348.424V357H537.762V340.168H539.938V343.464ZM563.38 357L556.595 348.552L552.628 352.2V357H550.356V333.256H552.628V349.352L562.676 340.168H565.492L558.292 347.048L566.164 357H563.38ZM570.111 357.16C569.183 357.16 568.415 356.392 568.415 355.4C568.415 354.408 569.183 353.672 570.111 353.672C571.039 353.672 571.839 354.408 571.839 355.4C571.839 356.392 571.039 357.16 570.111 357.16ZM595.315 357.192C588.531 357.192 583.539 352.328 583.539 345.8C583.539 339.272 588.531 334.408 595.315 334.408C602.035 334.408 607.059 339.24 607.059 345.8C607.059 352.36 602.035 357.192 595.315 357.192ZM595.315 355.08C600.691 355.08 604.691 351.144 604.691 345.8C604.691 340.456 600.691 336.52 595.315 336.52C589.907 336.52 585.875 340.456 585.875 345.8C585.875 351.144 589.907 355.08 595.315 355.08ZM624.783 340.168H627.055V357H624.879V353.928C623.695 355.976 621.519 357.16 618.831 357.16C614.543 357.16 611.727 354.76 611.727 349.928V340.168H613.999V349.704C613.999 353.288 615.855 355.112 619.055 355.112C622.575 355.112 624.783 352.84 624.783 349V340.168ZM635.594 343.464C636.65 341.224 638.794 340.04 641.898 340.04V342.248C641.706 342.248 641.514 342.216 641.354 342.216C637.834 342.216 635.69 344.456 635.69 348.424V357H633.418V340.168H635.594V343.464ZM67.32 375.488C66.392 375.488 65.656 374.752 65.656 373.856C65.656 372.992 66.392 372.256 67.32 372.256C68.248 372.256 68.984 372.96 68.984 373.824C68.984 374.752 68.28 375.488 67.32 375.488ZM66.168 396V379.168H68.44V396H66.168ZM83.3378 379.04C87.4338 379.04 90.2498 381.408 90.2498 386.24V396H87.9778V386.464C87.9778 382.912 86.1218 381.088 82.9218 381.088C79.3058 381.088 77.0338 383.328 77.0338 387.168V396H74.7618V379.168H76.9378V382.272C78.1538 380.224 80.4258 379.04 83.3378 379.04ZM104.994 379.04C109.09 379.04 111.906 381.408 111.906 386.24V396H109.634V386.464C109.634 382.912 107.778 381.088 104.578 381.088C100.962 381.088 98.69 383.328 98.69 387.168V396H96.418V379.168H98.594V382.272C99.81 380.224 102.082 379.04 104.994 379.04ZM125.017 396.16C120.089 396.16 116.441 392.576 116.441 387.584C116.441 382.592 120.089 379.04 125.017 379.04C129.945 379.04 133.561 382.592 133.561 387.584C133.561 392.576 129.945 396.16 125.017 396.16ZM125.017 394.144C128.601 394.144 131.257 391.52 131.257 387.584C131.257 383.648 128.601 381.024 125.017 381.024C121.433 381.024 118.745 383.648 118.745 387.584C118.745 391.52 121.433 394.144 125.017 394.144ZM149.635 379.168H151.875L144.387 396H142.051L134.595 379.168H136.963L143.267 393.504L149.635 379.168ZM160.462 379.04C164.814 379.04 167.278 381.216 167.278 385.568V396H165.102V393.376C164.078 395.104 162.094 396.16 159.31 396.16C155.502 396.16 153.166 394.176 153.166 391.264C153.166 388.672 154.83 386.496 159.662 386.496H165.006V385.472C165.006 382.592 163.374 381.024 160.238 381.024C158.062 381.024 156.014 381.792 154.638 383.008L153.614 381.312C155.31 379.872 157.806 379.04 160.462 379.04ZM159.662 394.368C162.222 394.368 164.11 393.152 165.006 390.944V388.192H159.726C156.462 388.192 155.406 389.472 155.406 391.2C155.406 393.152 156.974 394.368 159.662 394.368ZM181.513 393.344L182.313 394.976C181.417 395.776 180.073 396.16 178.761 396.16C175.593 396.16 173.833 394.368 173.833 391.264V381.088H170.825V379.168H173.833V375.488H176.105V379.168H181.225V381.088H176.105V391.136C176.105 393.12 177.129 394.208 179.017 394.208C179.945 394.208 180.873 393.92 181.513 393.344ZM187.601 375.488C186.673 375.488 185.937 374.752 185.937 373.856C185.937 372.992 186.673 372.256 187.601 372.256C188.529 372.256 189.265 372.96 189.265 373.824C189.265 374.752 188.561 375.488 187.601 375.488ZM186.449 396V379.168H188.721V396H186.449ZM206.947 379.168H209.187L201.699 396H199.363L191.907 379.168H194.275L200.579 393.504L206.947 379.168ZM226.606 387.584C226.606 387.776 226.574 388.032 226.574 388.288H212.494C212.75 391.808 215.438 394.144 219.118 394.144C221.166 394.144 222.99 393.408 224.27 391.936L225.55 393.408C224.046 395.2 221.71 396.16 219.054 396.16C213.806 396.16 210.222 392.576 210.222 387.584C210.222 382.592 213.71 379.04 218.446 379.04C223.182 379.04 226.606 382.528 226.606 387.584ZM218.446 380.992C215.182 380.992 212.782 383.296 212.494 386.592H224.43C224.142 383.296 221.742 380.992 218.446 380.992ZM256.822 396L254.134 390.016H241.654L238.966 396H236.502L246.742 373.6H249.078L259.318 396H256.822ZM242.518 388.096H253.27L247.894 376.064L242.518 388.096ZM263.023 396V373.6H265.391V396H263.023ZM289.246 379.04C294.046 379.04 297.63 382.496 297.63 387.584C297.63 392.704 294.046 396.16 289.246 396.16C286.558 396.16 284.254 395.008 282.846 392.832V402.208H280.574V379.168H282.75V382.496C284.126 380.256 286.462 379.04 289.246 379.04ZM289.086 394.144C292.638 394.144 295.358 391.52 295.358 387.584C295.358 383.68 292.638 381.024 289.086 381.024C285.502 381.024 282.814 383.68 282.814 387.584C282.814 391.52 285.502 394.144 289.086 394.144ZM302.262 396V372.256H304.534V396H302.262ZM316.744 379.04C321.096 379.04 323.56 381.216 323.56 385.568V396H321.384V393.376C320.36 395.104 318.376 396.16 315.592 396.16C311.784 396.16 309.448 394.176 309.448 391.264C309.448 388.672 311.112 386.496 315.944 386.496H321.288V385.472C321.288 382.592 319.656 381.024 316.52 381.024C314.344 381.024 312.296 381.792 310.92 383.008L309.896 381.312C311.592 379.872 314.088 379.04 316.744 379.04ZM315.944 394.368C318.504 394.368 320.392 393.152 321.288 390.944V388.192H316.008C312.744 388.192 311.688 389.472 311.688 391.2C311.688 393.152 313.256 394.368 315.944 394.368ZM337.795 393.344L338.595 394.976C337.699 395.776 336.355 396.16 335.043 396.16C331.875 396.16 330.115 394.368 330.115 391.264V381.088H327.107V379.168H330.115V375.488H332.387V379.168H337.507V381.088H332.387V391.136C332.387 393.12 333.411 394.208 335.299 394.208C336.227 394.208 337.155 393.92 337.795 393.344ZM348.299 374.016C346.347 374.016 345.323 375.104 345.323 377.184V379.168H350.507V381.088H345.387V396H343.115V381.088H340.107V379.168H343.115V377.088C343.115 374.08 344.907 372.096 348.203 372.096C349.451 372.096 350.731 372.448 351.563 373.152L350.795 374.848C350.155 374.304 349.259 374.016 348.299 374.016ZM360.173 396.16C355.245 396.16 351.597 392.576 351.597 387.584C351.597 382.592 355.245 379.04 360.173 379.04C365.101 379.04 368.717 382.592 368.717 387.584C368.717 392.576 365.101 396.16 360.173 396.16ZM360.173 394.144C363.757 394.144 366.413 391.52 366.413 387.584C366.413 383.648 363.757 381.024 360.173 381.024C356.589 381.024 353.901 383.648 353.901 387.584C353.901 391.52 356.589 394.144 360.173 394.144ZM375.532 382.464C376.588 380.224 378.732 379.04 381.836 379.04V381.248C381.644 381.248 381.452 381.216 381.292 381.216C377.772 381.216 375.628 383.456 375.628 387.424V396H373.356V379.168H375.532V382.464ZM406.941 379.04C411.037 379.04 413.725 381.408 413.725 386.24V396H411.453V386.464C411.453 382.912 409.661 381.088 406.621 381.088C403.165 381.088 400.989 383.328 400.989 387.168V396H398.717V386.464C398.717 382.912 396.925 381.088 393.853 381.088C390.429 381.088 388.221 383.328 388.221 387.168V396H385.949V379.168H388.125V382.24C389.309 380.224 391.485 379.04 394.301 379.04C397.085 379.04 399.261 380.224 400.285 382.592C401.501 380.416 403.901 379.04 406.941 379.04ZM435.142 396.16C430.214 396.16 426.566 392.576 426.566 387.584C426.566 382.592 430.214 379.04 435.142 379.04C440.07 379.04 443.686 382.592 443.686 387.584C443.686 392.576 440.07 396.16 435.142 396.16ZM435.142 394.144C438.726 394.144 441.382 391.52 441.382 387.584C441.382 383.648 438.726 381.024 435.142 381.024C431.558 381.024 428.87 383.648 428.87 387.584C428.87 391.52 431.558 394.144 435.142 394.144ZM453.892 374.016C451.94 374.016 450.916 375.104 450.916 377.184V379.168H456.1V381.088H450.98V396H448.708V381.088H445.7V379.168H448.708V377.088C448.708 374.08 450.5 372.096 453.796 372.096C455.044 372.096 456.324 372.448 457.156 373.152L456.388 374.848C455.748 374.304 454.852 374.016 453.892 374.016ZM464.736 374.016C462.784 374.016 461.76 375.104 461.76 377.184V379.168H466.944V381.088H461.824V396H459.552V381.088H456.544V379.168H459.552V377.088C459.552 374.08 461.344 372.096 464.64 372.096C465.888 372.096 467.168 372.448 468 373.152L467.232 374.848C466.592 374.304 465.696 374.016 464.736 374.016ZM484.419 387.584C484.419 387.776 484.387 388.032 484.387 388.288H470.307C470.562 391.808 473.251 394.144 476.931 394.144C478.979 394.144 480.803 393.408 482.083 391.936L483.363 393.408C481.859 395.2 479.523 396.16 476.867 396.16C471.619 396.16 468.035 392.576 468.035 387.584C468.035 382.592 471.523 379.04 476.259 379.04C480.995 379.04 484.419 382.528 484.419 387.584ZM476.259 380.992C472.995 380.992 470.595 383.296 470.307 386.592H482.243C481.955 383.296 479.555 380.992 476.259 380.992ZM491.219 382.464C492.275 380.224 494.419 379.04 497.523 379.04V381.248C497.331 381.248 497.139 381.216 496.979 381.216C493.459 381.216 491.315 383.456 491.315 387.424V396H489.043V379.168H491.219V382.464ZM506.274 396.16C503.49 396.16 500.802 395.264 499.426 394.08L500.45 392.288C501.794 393.344 504.066 394.176 506.434 394.176C509.634 394.176 510.946 393.088 510.946 391.424C510.946 387.04 500.034 390.496 500.034 383.84C500.034 381.088 502.402 379.04 506.69 379.04C508.866 379.04 511.234 379.648 512.642 380.608L511.65 382.432C510.178 381.408 508.418 380.992 506.69 380.992C503.65 380.992 502.306 382.176 502.306 383.776C502.306 388.32 513.218 384.896 513.218 391.36C513.218 394.272 510.658 396.16 506.274 396.16ZM534.465 379.04C539.265 379.04 542.849 382.496 542.849 387.584C542.849 392.704 539.265 396.16 534.465 396.16C531.777 396.16 529.473 395.008 528.065 392.832V402.208H525.793V379.168H527.969V382.496C529.345 380.256 531.681 379.04 534.465 379.04ZM534.305 394.144C537.857 394.144 540.577 391.52 540.577 387.584C540.577 383.68 537.857 381.024 534.305 381.024C530.721 381.024 528.033 383.68 528.033 387.584C528.033 391.52 530.721 394.144 534.305 394.144ZM562.169 387.584C562.169 387.776 562.137 388.032 562.137 388.288H548.057C548.312 391.808 551.001 394.144 554.681 394.144C556.729 394.144 558.553 393.408 559.833 391.936L561.113 393.408C559.609 395.2 557.273 396.16 554.617 396.16C549.369 396.16 545.785 392.576 545.785 387.584C545.785 382.592 549.273 379.04 554.009 379.04C558.745 379.04 562.169 382.528 562.169 387.584ZM554.009 380.992C550.745 380.992 548.345 383.296 548.057 386.592H559.993C559.705 383.296 557.305 380.992 554.009 380.992ZM568.969 382.464C570.025 380.224 572.169 379.04 575.273 379.04V381.248C575.081 381.248 574.889 381.216 574.729 381.216C571.209 381.216 569.065 383.456 569.065 387.424V396H566.793V379.168H568.969V382.464ZM584.024 396.16C581.24 396.16 578.552 395.264 577.176 394.08L578.2 392.288C579.544 393.344 581.816 394.176 584.184 394.176C587.384 394.176 588.696 393.088 588.696 391.424C588.696 387.04 577.784 390.496 577.784 383.84C577.784 381.088 580.152 379.04 584.44 379.04C586.616 379.04 588.984 379.648 590.392 380.608L589.4 382.432C587.928 381.408 586.168 380.992 584.44 380.992C581.4 380.992 580.056 382.176 580.056 383.776C580.056 388.32 590.968 384.896 590.968 391.36C590.968 394.272 588.408 396.16 584.024 396.16ZM602.048 396.16C597.12 396.16 593.472 392.576 593.472 387.584C593.472 382.592 597.12 379.04 602.048 379.04C606.976 379.04 610.592 382.592 610.592 387.584C610.592 392.576 606.976 396.16 602.048 396.16ZM602.048 394.144C605.632 394.144 608.288 391.52 608.288 387.584C608.288 383.648 605.632 381.024 602.048 381.024C598.464 381.024 595.776 383.648 595.776 387.584C595.776 391.52 598.464 394.144 602.048 394.144ZM623.807 379.04C627.903 379.04 630.719 381.408 630.719 386.24V396H628.447V386.464C628.447 382.912 626.591 381.088 623.391 381.088C619.775 381.088 617.503 383.328 617.503 387.168V396H615.231V379.168H617.407V382.272C618.623 380.224 620.895 379.04 623.807 379.04ZM642.775 379.04C647.127 379.04 649.591 381.216 649.591 385.568V396H647.415V393.376C646.391 395.104 644.407 396.16 641.623 396.16C637.815 396.16 635.479 394.176 635.479 391.264C635.479 388.672 637.143 386.496 641.975 386.496H647.319V385.472C647.319 382.592 645.687 381.024 642.551 381.024C640.375 381.024 638.327 381.792 636.951 383.008L635.927 381.312C637.623 379.872 640.119 379.04 642.775 379.04ZM641.975 394.368C644.535 394.368 646.423 393.152 647.319 390.944V388.192H642.039C638.775 388.192 637.719 389.472 637.719 391.2C637.719 393.152 639.287 394.368 641.975 394.368ZM655.762 396V372.256H658.034V396H655.762ZM665.508 375.488C664.58 375.488 663.844 374.752 663.844 373.856C663.844 372.992 664.58 372.256 665.508 372.256C666.436 372.256 667.172 372.96 667.172 373.824C667.172 374.752 666.468 375.488 665.508 375.488ZM664.356 396V379.168H666.628V396H664.356ZM674.037 394.112H684.821V396H671.125V394.496L681.717 381.088H671.317V379.168H684.629V380.672L674.037 394.112ZM703.7 387.584C703.7 387.776 703.668 388.032 703.668 388.288H689.588C689.844 391.808 692.532 394.144 696.212 394.144C698.26 394.144 700.084 393.408 701.364 391.936L702.644 393.408C701.14 395.2 698.804 396.16 696.148 396.16C690.9 396.16 687.316 392.576 687.316 387.584C687.316 382.592 690.804 379.04 695.54 379.04C700.276 379.04 703.7 382.528 703.7 387.584ZM695.54 380.992C692.276 380.992 689.876 383.296 689.588 386.592H701.524C701.236 383.296 698.836 380.992 695.54 380.992ZM721.412 372.256H723.684V396H721.508V392.672C720.132 394.944 717.796 396.16 715.012 396.16C710.212 396.16 706.628 392.672 706.628 387.584C706.628 382.496 710.212 379.04 715.012 379.04C717.7 379.04 720.004 380.192 721.412 382.368V372.256ZM715.204 394.144C718.756 394.144 721.444 391.52 721.444 387.584C721.444 383.648 718.756 381.024 715.204 381.024C711.62 381.024 708.932 383.648 708.932 387.584C708.932 391.52 711.62 394.144 715.204 394.144ZM74.84 418.04C79.64 418.04 83.224 421.496 83.224 426.584C83.224 431.704 79.64 435.16 74.84 435.16C72.152 435.16 69.848 434.008 68.44 431.832V441.208H66.168V418.168H68.344V421.496C69.72 419.256 72.056 418.04 74.84 418.04ZM74.68 433.144C78.232 433.144 80.952 430.52 80.952 426.584C80.952 422.68 78.232 420.024 74.68 420.024C71.096 420.024 68.408 422.68 68.408 426.584C68.408 430.52 71.096 433.144 74.68 433.144ZM102.544 426.584C102.544 426.776 102.512 427.032 102.512 427.288H88.4315C88.6875 430.808 91.3755 433.144 95.0555 433.144C97.1035 433.144 98.9275 432.408 100.208 430.936L101.488 432.408C99.9835 434.2 97.6475 435.16 94.9915 435.16C89.7435 435.16 86.1595 431.576 86.1595 426.584C86.1595 421.592 89.6475 418.04 94.3835 418.04C99.1195 418.04 102.544 421.528 102.544 426.584ZM94.3835 419.992C91.1195 419.992 88.7195 422.296 88.4315 425.592H100.368C100.08 422.296 97.6795 419.992 94.3835 419.992ZM111.68 435.16C108.896 435.16 106.208 434.264 104.832 433.08L105.856 431.288C107.2 432.344 109.472 433.176 111.84 433.176C115.04 433.176 116.352 432.088 116.352 430.424C116.352 426.04 105.44 429.496 105.44 422.84C105.44 420.088 107.808 418.04 112.096 418.04C114.272 418.04 116.64 418.648 118.048 419.608L117.056 421.432C115.584 420.408 113.824 419.992 112.096 419.992C109.056 419.992 107.712 421.176 107.712 422.776C107.712 427.32 118.624 423.896 118.624 430.36C118.624 433.272 116.064 435.16 111.68 435.16ZM130.888 432.344L131.688 433.976C130.792 434.776 129.448 435.16 128.136 435.16C124.968 435.16 123.208 433.368 123.208 430.264V420.088H120.2V418.168H123.208V414.488H125.48V418.168H130.6V420.088H125.48V430.136C125.48 432.12 126.504 433.208 128.392 433.208C129.32 433.208 130.248 432.92 130.888 432.344ZM148.711 435.16C145.927 435.16 143.239 434.264 141.863 433.08L142.887 431.288C144.231 432.344 146.503 433.176 148.871 433.176C152.071 433.176 153.383 432.088 153.383 430.424C153.383 426.04 142.471 429.496 142.471 422.84C142.471 420.088 144.839 418.04 149.127 418.04C151.303 418.04 153.671 418.648 155.079 419.608L154.087 421.432C152.615 420.408 150.855 419.992 149.127 419.992C146.087 419.992 144.743 421.176 144.743 422.776C144.743 427.32 155.655 423.896 155.655 430.36C155.655 433.272 153.095 435.16 148.711 435.16ZM166.736 435.16C161.808 435.16 158.16 431.576 158.16 426.584C158.16 421.592 161.808 418.04 166.736 418.04C171.664 418.04 175.28 421.592 175.28 426.584C175.28 431.576 171.664 435.16 166.736 435.16ZM166.736 433.144C170.32 433.144 172.976 430.52 172.976 426.584C172.976 422.648 170.32 420.024 166.736 420.024C163.152 420.024 160.464 422.648 160.464 426.584C160.464 430.52 163.152 433.144 166.736 433.144ZM179.918 435V411.256H182.19V435H179.918ZM201.408 418.168H203.68V435H201.504V431.928C200.32 433.976 198.144 435.16 195.456 435.16C191.168 435.16 188.352 432.76 188.352 427.928V418.168H190.624V427.704C190.624 431.288 192.48 433.112 195.68 433.112C199.2 433.112 201.408 430.84 201.408 427V418.168ZM218.107 432.344L218.907 433.976C218.011 434.776 216.667 435.16 215.355 435.16C212.187 435.16 210.427 433.368 210.427 430.264V420.088H207.419V418.168H210.427V414.488H212.699V418.168H217.819V420.088H212.699V430.136C212.699 432.12 213.723 433.208 215.611 433.208C216.539 433.208 217.467 432.92 218.107 432.344ZM224.195 414.488C223.267 414.488 222.531 413.752 222.531 412.856C222.531 411.992 223.267 411.256 224.195 411.256C225.123 411.256 225.859 411.96 225.859 412.824C225.859 413.752 225.155 414.488 224.195 414.488ZM223.043 435V418.168H225.315V435H223.043ZM238.517 435.16C233.589 435.16 229.941 431.576 229.941 426.584C229.941 421.592 233.589 418.04 238.517 418.04C243.445 418.04 247.061 421.592 247.061 426.584C247.061 431.576 243.445 435.16 238.517 435.16ZM238.517 433.144C242.101 433.144 244.757 430.52 244.757 426.584C244.757 422.648 242.101 420.024 238.517 420.024C234.933 420.024 232.245 422.648 232.245 426.584C232.245 430.52 234.933 433.144 238.517 433.144ZM260.275 418.04C264.371 418.04 267.187 420.408 267.187 425.24V435H264.915V425.464C264.915 421.912 263.059 420.088 259.859 420.088C256.243 420.088 253.971 422.328 253.971 426.168V435H251.699V418.168H253.875V421.272C255.091 419.224 257.363 418.04 260.275 418.04ZM277.868 435.16C275.084 435.16 272.396 434.264 271.02 433.08L272.044 431.288C273.388 432.344 275.66 433.176 278.028 433.176C281.228 433.176 282.54 432.088 282.54 430.424C282.54 426.04 271.628 429.496 271.628 422.84C271.628 420.088 273.996 418.04 278.284 418.04C280.46 418.04 282.828 418.648 284.236 419.608L283.244 421.432C281.772 420.408 280.012 419.992 278.284 419.992C275.244 419.992 273.9 421.176 273.9 422.776C273.9 427.32 284.812 423.896 284.812 430.36C284.812 433.272 282.252 435.16 277.868 435.16ZM303.275 418.04C307.627 418.04 310.091 420.216 310.091 424.568V435H307.915V432.376C306.891 434.104 304.907 435.16 302.123 435.16C298.315 435.16 295.979 433.176 295.979 430.264C295.979 427.672 297.643 425.496 302.475 425.496H307.819V424.472C307.819 421.592 306.187 420.024 303.051 420.024C300.875 420.024 298.827 420.792 297.451 422.008L296.427 420.312C298.123 418.872 300.619 418.04 303.275 418.04ZM302.475 433.368C305.035 433.368 306.923 432.152 307.819 429.944V427.192H302.539C299.275 427.192 298.219 428.472 298.219 430.2C298.219 432.152 299.787 433.368 302.475 433.368ZM324.326 432.344L325.126 433.976C324.23 434.776 322.886 435.16 321.574 435.16C318.406 435.16 316.646 433.368 316.646 430.264V420.088H313.638V418.168H316.646V414.488H318.918V418.168H324.038V420.088H318.918V430.136C318.918 432.12 319.942 433.208 321.83 433.208C322.758 433.208 323.686 432.92 324.326 432.344ZM349.541 418.168H351.781L343.365 437.016C341.957 440.312 340.165 441.368 337.765 441.368C336.197 441.368 334.693 440.856 333.669 439.832L334.725 438.136C335.557 438.968 336.581 439.416 337.797 439.416C339.301 439.416 340.325 438.712 341.285 436.6L342.021 434.968L334.501 418.168H336.869L343.205 432.472L349.541 418.168ZM361.392 435.16C356.464 435.16 352.816 431.576 352.816 426.584C352.816 421.592 356.464 418.04 361.392 418.04C366.32 418.04 369.936 421.592 369.936 426.584C369.936 431.576 366.32 435.16 361.392 435.16ZM361.392 433.144C364.976 433.144 367.632 430.52 367.632 426.584C367.632 422.648 364.976 420.024 361.392 420.024C357.808 420.024 355.12 422.648 355.12 426.584C355.12 430.52 357.808 433.144 361.392 433.144ZM387.47 418.168H389.742V435H387.566V431.928C386.382 433.976 384.206 435.16 381.518 435.16C377.23 435.16 374.414 432.76 374.414 427.928V418.168H376.686V427.704C376.686 431.288 378.542 433.112 381.742 433.112C385.262 433.112 387.47 430.84 387.47 427V418.168ZM398.282 421.464C399.338 419.224 401.482 418.04 404.586 418.04V420.248C404.394 420.248 404.202 420.216 404.042 420.216C400.522 420.216 398.378 422.456 398.378 426.424V435H396.106V418.168H398.282V421.464ZM417.708 416.088C417.708 413.08 419.5 411.096 422.796 411.096C424.044 411.096 425.324 411.448 426.156 412.152L425.388 413.848C424.748 413.304 423.852 413.016 422.892 413.016C420.94 413.016 419.916 414.104 419.916 416.184V418.168H425.1V420.088H419.98V435H417.708V420.088H414.7V418.168H417.708V416.088ZM431.884 411.256C432.812 411.256 433.548 411.96 433.548 412.824C433.548 413.752 432.844 414.488 431.884 414.488C430.956 414.488 430.22 413.752 430.22 412.856C430.22 411.992 430.956 411.256 431.884 411.256ZM430.732 435V418.168H433.004V435H430.732ZM447.932 418.04C452.028 418.04 454.844 420.408 454.844 425.24V435H452.572V425.464C452.572 421.912 450.716 420.088 447.516 420.088C443.9 420.088 441.628 422.328 441.628 426.168V435H439.356V418.168H441.532V421.272C442.748 419.224 445.02 418.04 447.932 418.04ZM474.482 418.168H476.658V432.952C476.658 438.744 473.81 441.368 468.242 441.368C465.17 441.368 462.162 440.44 460.402 438.776L461.554 437.048C463.154 438.488 465.586 439.352 468.178 439.352C472.434 439.352 474.386 437.4 474.386 433.24V431.096C472.978 433.24 470.578 434.36 467.826 434.36C463.026 434.36 459.378 431 459.378 426.168C459.378 421.336 463.026 418.04 467.826 418.04C470.642 418.04 473.074 419.192 474.482 421.4V418.168ZM468.05 432.344C471.762 432.344 474.45 429.816 474.45 426.168C474.45 422.52 471.762 420.024 468.05 420.024C464.338 420.024 461.682 422.52 461.682 426.168C461.682 429.816 464.338 432.344 468.05 432.344ZM497.7 426.584C497.7 426.776 497.668 427.032 497.668 427.288H483.588C483.844 430.808 486.532 433.144 490.212 433.144C492.26 433.144 494.084 432.408 495.364 430.936L496.644 432.408C495.14 434.2 492.804 435.16 490.148 435.16C484.9 435.16 481.316 431.576 481.316 426.584C481.316 421.592 484.804 418.04 489.54 418.04C494.276 418.04 497.7 421.528 497.7 426.584ZM489.54 419.992C486.276 419.992 483.876 422.296 483.588 425.592H495.524C495.236 422.296 492.836 419.992 489.54 419.992ZM504.5 421.464C505.556 419.224 507.7 418.04 510.804 418.04V420.248C510.612 420.248 510.42 420.216 510.26 420.216C506.74 420.216 504.596 422.456 504.596 426.424V435H502.324V418.168H504.5V421.464ZM523.701 432.344L524.501 433.976C523.605 434.776 522.261 435.16 520.949 435.16C517.781 435.16 516.021 433.368 516.021 430.264V420.088H513.013V418.168H516.021V414.488H518.293V418.168H523.413V420.088H518.293V430.136C518.293 432.12 519.317 433.208 521.205 433.208C522.133 433.208 523.061 432.92 523.701 432.344ZM529.789 414.488C528.861 414.488 528.125 413.752 528.125 412.856C528.125 411.992 528.861 411.256 529.789 411.256C530.717 411.256 531.453 411.96 531.453 412.824C531.453 413.752 530.749 414.488 529.789 414.488ZM528.637 435V418.168H530.909V435H528.637ZM545.903 418.04C550.703 418.04 554.287 421.496 554.287 426.584C554.287 431.704 550.703 435.16 545.903 435.16C543.215 435.16 540.911 434.008 539.503 431.832V441.208H537.231V418.168H539.407V421.496C540.783 419.256 543.119 418.04 545.903 418.04ZM545.743 433.144C549.295 433.144 552.015 430.52 552.015 426.584C552.015 422.68 549.295 420.024 545.743 420.024C542.159 420.024 539.471 422.68 539.471 426.584C539.471 430.52 542.159 433.144 545.743 433.144ZM563.43 435.16C560.646 435.16 557.958 434.264 556.582 433.08L557.606 431.288C558.95 432.344 561.222 433.176 563.59 433.176C566.79 433.176 568.102 432.088 568.102 430.424C568.102 426.04 557.19 429.496 557.19 422.84C557.19 420.088 559.558 418.04 563.846 418.04C566.022 418.04 568.39 418.648 569.798 419.608L568.806 421.432C567.334 420.408 565.574 419.992 563.846 419.992C560.806 419.992 559.462 421.176 559.462 422.776C559.462 427.32 570.374 423.896 570.374 430.36C570.374 433.272 567.814 435.16 563.43 435.16ZM574.798 435.16C573.87 435.16 573.102 434.392 573.102 433.4C573.102 432.408 573.87 431.672 574.798 431.672C575.726 431.672 576.526 432.408 576.526 433.4C576.526 434.392 575.726 435.16 574.798 435.16Z" fill="#666666"/>
</svg>
