<svg width="848" height="220" viewBox="0 0 848 220" fill="none" xmlns="http://www.w3.org/2000/svg">
<path d="M95.6683 38.3568L77.0502 105H61.2965L48.7889 57.5477L35.7085 105L20.0503 105.095L2.1005 38.3568H16.4221L28.1658 90.1055L41.7236 38.3568H56.6181L69.4121 89.8191L81.2513 38.3568H95.6683ZM153.567 77.407C153.567 79.3166 153.44 81.0352 153.185 82.5628H114.517C114.835 86.3819 116.172 89.3735 118.527 91.5377C120.882 93.7018 123.778 94.7839 127.215 94.7839C132.18 94.7839 135.713 92.6516 137.813 88.3869H152.23C150.703 93.4791 147.775 97.6801 143.447 100.99C139.118 104.236 133.803 105.859 127.502 105.859C122.41 105.859 117.827 104.745 113.753 102.518C109.743 100.226 106.592 97.0117 104.301 92.8744C102.073 88.737 100.959 83.9632 100.959 78.5528C100.959 73.0787 102.073 68.273 104.301 64.1357C106.529 59.9983 109.648 56.8157 113.658 54.5879C117.668 52.3601 122.282 51.2462 127.502 51.2462C132.53 51.2462 137.018 52.3283 140.964 54.4925C144.974 56.6566 148.061 59.7437 150.225 63.7538C152.453 67.7002 153.567 72.2513 153.567 77.407ZM139.723 73.5879C139.659 70.1508 138.418 67.4137 135.999 65.3769C133.581 63.2764 130.621 62.2261 127.12 62.2261C123.81 62.2261 121.009 63.2446 118.718 65.2814C116.49 67.2546 115.122 70.0235 114.612 73.5879H139.723ZM176.691 34.3467V105H163.324V34.3467H176.691ZM186.46 78.5528C186.46 73.0787 187.574 68.3049 189.802 64.2312C192.029 60.0938 195.116 56.9112 199.063 54.6834C203.009 52.392 207.529 51.2462 212.621 51.2462C219.177 51.2462 224.587 52.9012 228.852 56.2111C233.18 59.4573 236.076 64.0402 237.54 69.9598H223.123C222.359 67.6683 221.055 65.8861 219.209 64.6131C217.426 63.2764 215.199 62.608 212.525 62.608C208.706 62.608 205.683 64.0084 203.455 66.809C201.227 69.5461 200.113 73.4606 200.113 78.5528C200.113 83.5812 201.227 87.4958 203.455 90.2965C205.683 93.0335 208.706 94.402 212.525 94.402C217.936 94.402 221.468 91.9832 223.123 87.1457H237.54C236.076 92.8744 233.18 97.4255 228.852 100.799C224.524 104.173 219.113 105.859 212.621 105.859C207.529 105.859 203.009 104.745 199.063 102.518C195.116 100.226 192.029 97.0436 189.802 92.9699C187.574 88.8325 186.46 84.0268 186.46 78.5528ZM270.82 105.859C265.728 105.859 261.145 104.745 257.071 102.518C252.998 100.226 249.783 97.0117 247.428 92.8744C245.137 88.737 243.991 83.9632 243.991 78.5528C243.991 73.1424 245.169 68.3685 247.524 64.2312C249.942 60.0938 253.22 56.9112 257.358 54.6834C261.495 52.392 266.11 51.2462 271.202 51.2462C276.294 51.2462 280.909 52.392 285.046 54.6834C289.184 56.9112 292.43 60.0938 294.785 64.2312C297.204 68.3685 298.413 73.1424 298.413 78.5528C298.413 83.9632 297.172 88.737 294.689 92.8744C292.271 97.0117 288.961 100.226 284.76 102.518C280.622 104.745 275.976 105.859 270.82 105.859ZM270.82 94.2111C273.239 94.2111 275.498 93.6382 277.599 92.4925C279.763 91.2831 281.482 89.5008 282.755 87.1457C284.028 84.7906 284.664 81.9263 284.664 78.5528C284.664 73.5243 283.328 69.6734 280.654 67C278.045 64.263 274.83 62.8945 271.011 62.8945C267.192 62.8945 263.978 64.263 261.368 67C258.822 69.6734 257.549 73.5243 257.549 78.5528C257.549 83.5812 258.79 87.464 261.272 90.201C263.818 92.8744 267.001 94.2111 270.82 94.2111ZM373.907 51.3417C380.399 51.3417 385.618 53.3467 389.565 57.3568C393.575 61.3032 395.58 66.8409 395.58 73.9699V105H382.213V75.7839C382.213 71.6466 381.163 68.4958 379.062 66.3317C376.962 64.1039 374.098 62.99 370.469 62.99C366.841 62.99 363.945 64.1039 361.781 66.3317C359.68 68.4958 358.63 71.6466 358.63 75.7839V105H345.263V75.7839C345.263 71.6466 344.213 68.4958 342.113 66.3317C340.012 64.1039 337.148 62.99 333.52 62.99C329.828 62.99 326.9 64.1039 324.736 66.3317C322.635 68.4958 321.585 71.6466 321.585 75.7839V105H308.218V52.1055H321.585V58.5025C323.304 56.2747 325.5 54.5243 328.173 53.2513C330.91 51.9782 333.902 51.3417 337.148 51.3417C341.285 51.3417 344.977 52.2328 348.223 54.0151C351.469 55.7337 353.984 58.2161 355.766 61.4623C357.484 58.407 359.967 55.9565 363.213 54.1106C366.523 52.2647 370.087 51.3417 373.907 51.3417ZM457.435 77.407C457.435 79.3166 457.308 81.0352 457.053 82.5628H418.385C418.703 86.3819 420.04 89.3735 422.395 91.5377C424.75 93.7018 427.646 94.7839 431.083 94.7839C436.048 94.7839 439.581 92.6516 441.681 88.3869H456.098C454.571 93.4791 451.643 97.6801 447.315 100.99C442.986 104.236 437.671 105.859 431.37 105.859C426.278 105.859 421.695 104.745 417.621 102.518C413.611 100.226 410.46 97.0117 408.169 92.8744C405.941 88.737 404.827 83.9632 404.827 78.5528C404.827 73.0787 405.941 68.273 408.169 64.1357C410.397 59.9983 413.516 56.8157 417.526 54.5879C421.536 52.3601 426.15 51.2462 431.37 51.2462C436.398 51.2462 440.886 52.3283 444.832 54.4925C448.842 56.6566 451.929 59.7437 454.093 63.7538C456.321 67.7002 457.435 72.2513 457.435 77.407ZM443.591 73.5879C443.527 70.1508 442.286 67.4137 439.867 65.3769C437.449 63.2764 434.489 62.2261 430.988 62.2261C427.678 62.2261 424.877 63.2446 422.586 65.2814C420.358 67.2546 418.99 70.0235 418.48 73.5879H443.591Z" fill="#171717"/>
<path d="M55.1859 172.159C55.1859 175.723 54.3266 179.065 52.608 182.184C50.9531 185.303 48.3116 187.817 44.6834 189.726C41.1189 191.636 36.5997 192.591 31.1256 192.591H19.9548V218.179H6.58794V151.535H31.1256C36.2814 151.535 40.6734 152.427 44.3015 154.209C47.9296 155.991 50.6348 158.442 52.4171 161.561C54.263 164.68 55.1859 168.212 55.1859 172.159ZM30.5528 181.802C34.2446 181.802 36.9816 180.974 38.7638 179.319C40.5461 177.601 41.4372 175.214 41.4372 172.159C41.4372 165.666 37.809 162.42 30.5528 162.42H19.9548V181.802H30.5528ZM113.847 190.586C113.847 192.495 113.72 194.214 113.465 195.742H74.7968C75.1151 199.561 76.4518 202.552 78.8069 204.716C81.162 206.881 84.0581 207.963 87.4953 207.963C92.4601 207.963 95.9928 205.83 98.0933 201.566H112.51C110.983 206.658 108.055 210.859 103.726 214.169C99.3982 217.415 94.0833 219.038 87.7818 219.038C82.6896 219.038 78.1067 217.924 74.033 215.696C70.023 213.405 66.8722 210.19 64.5807 206.053C62.3529 201.916 61.239 197.142 61.239 191.731C61.239 186.257 62.3529 181.452 64.5807 177.314C66.8086 173.177 69.9275 169.994 73.9375 167.767C77.9476 165.539 82.5623 164.425 87.7818 164.425C92.8102 164.425 97.2977 165.507 101.244 167.671C105.254 169.835 108.341 172.922 110.505 176.932C112.733 180.879 113.847 185.43 113.847 190.586ZM100.003 186.767C99.9392 183.329 98.698 180.592 96.2792 178.556C93.8605 176.455 90.9007 175.405 87.3998 175.405C84.09 175.405 81.2893 176.423 78.9978 178.46C76.77 180.433 75.4015 183.202 74.8923 186.767H100.003ZM143.845 219.038C139.517 219.038 135.634 218.274 132.197 216.747C128.759 215.155 126.022 213.023 123.986 210.35C122.012 207.676 120.93 204.716 120.739 201.47H134.202C134.456 203.507 135.443 205.194 137.161 206.53C138.944 207.867 141.14 208.535 143.749 208.535C146.295 208.535 148.269 208.026 149.669 207.008C151.133 205.989 151.865 204.685 151.865 203.093C151.865 201.375 150.974 200.102 149.192 199.274C147.473 198.383 144.704 197.428 140.885 196.41C136.939 195.455 133.692 194.468 131.146 193.45C128.664 192.432 126.5 190.872 124.654 188.772C122.872 186.671 121.981 183.839 121.981 180.274C121.981 177.346 122.808 174.673 124.463 172.254C126.182 169.835 128.6 167.926 131.719 166.525C134.902 165.125 138.625 164.425 142.89 164.425C149.192 164.425 154.22 166.016 157.976 169.199C161.731 172.318 163.8 176.551 164.182 181.897H151.388C151.197 179.797 150.306 178.142 148.714 176.932C147.187 175.659 145.118 175.023 142.508 175.023C140.089 175.023 138.212 175.468 136.875 176.36C135.602 177.251 134.965 178.492 134.965 180.083C134.965 181.865 135.857 183.234 137.639 184.189C139.421 185.08 142.19 186.003 145.945 186.958C149.764 187.912 152.915 188.899 155.398 189.917C157.88 190.936 160.012 192.527 161.795 194.691C163.641 196.792 164.595 199.592 164.659 203.093C164.659 206.149 163.8 208.886 162.081 211.304C160.426 213.723 158.007 215.633 154.825 217.033C151.706 218.37 148.046 219.038 143.845 219.038ZM191.194 176.264V201.852C191.194 203.634 191.608 204.939 192.435 205.767C193.327 206.53 194.791 206.912 196.827 206.912H203.033V218.179H194.631C183.365 218.179 177.732 212.705 177.732 201.757V176.264H171.43V165.284H177.732V152.204H191.194V165.284H203.033V176.264H191.194ZM253.321 178.46V189.726H212.838V178.46H253.321ZM291.608 151.535C298.61 151.535 304.752 152.904 310.035 155.641C315.382 158.378 319.487 162.293 322.352 167.385C325.28 172.413 326.744 178.269 326.744 184.953C326.744 191.636 325.28 197.492 322.352 202.52C319.487 207.485 315.382 211.336 310.035 214.073C304.752 216.81 298.61 218.179 291.608 218.179H268.312V151.535H291.608ZM291.131 206.817C298.132 206.817 303.543 204.907 307.362 201.088C311.181 197.269 313.09 191.891 313.09 184.953C313.09 178.015 311.181 172.604 307.362 168.721C303.543 164.775 298.132 162.802 291.131 162.802H281.678V206.817H291.131ZM360.237 219.038C355.145 219.038 350.562 217.924 346.488 215.696C342.414 213.405 339.2 210.19 336.845 206.053C334.553 201.916 333.408 197.142 333.408 191.731C333.408 186.321 334.585 181.547 336.94 177.41C339.359 173.273 342.637 170.09 346.775 167.862C350.912 165.571 355.527 164.425 360.619 164.425C365.711 164.425 370.326 165.571 374.463 167.862C378.6 170.09 381.847 173.273 384.202 177.41C386.62 181.547 387.83 186.321 387.83 191.731C387.83 197.142 386.589 201.916 384.106 206.053C381.687 210.19 378.378 213.405 374.177 215.696C370.039 217.924 365.393 219.038 360.237 219.038ZM360.237 207.39C362.656 207.39 364.915 206.817 367.016 205.671C369.18 204.462 370.899 202.68 372.172 200.324C373.445 197.969 374.081 195.105 374.081 191.731C374.081 186.703 372.744 182.852 370.071 180.179C367.461 177.442 364.247 176.073 360.428 176.073C356.609 176.073 353.394 177.442 350.785 180.179C348.239 182.852 346.966 186.703 346.966 191.731C346.966 196.76 348.207 200.643 350.689 203.38C353.235 206.053 356.418 207.39 360.237 207.39ZM394.198 191.731C394.198 186.257 395.312 181.484 397.539 177.41C399.767 173.273 402.854 170.09 406.801 167.862C410.747 165.571 415.266 164.425 420.359 164.425C426.915 164.425 432.325 166.08 436.59 169.39C440.918 172.636 443.814 177.219 445.278 183.139H430.861C430.097 180.847 428.792 179.065 426.946 177.792C425.164 176.455 422.936 175.787 420.263 175.787C416.444 175.787 413.421 177.187 411.193 179.988C408.965 182.725 407.851 186.639 407.851 191.731C407.851 196.76 408.965 200.675 411.193 203.475C413.421 206.212 416.444 207.581 420.263 207.581C425.673 207.581 429.206 205.162 430.861 200.324H445.278C443.814 206.053 440.918 210.604 436.59 213.978C432.261 217.351 426.851 219.038 420.359 219.038C415.266 219.038 410.747 217.924 406.801 215.696C402.854 213.405 399.767 210.222 397.539 206.149C395.312 202.011 394.198 197.206 394.198 191.731ZM518.685 205.48H492.143L487.751 218.179H473.716L497.68 151.44H513.243L537.208 218.179H523.077L518.685 205.48ZM515.057 194.787L505.414 166.907L495.771 194.787H515.057ZM559.533 151.535V218.179H546.166V151.535H559.533Z" fill="url(#paint0_linear_3458_46654)"/>
<path d="M55.1859 172.159C55.1859 175.723 54.3266 179.065 52.608 182.184C50.9531 185.303 48.3116 187.817 44.6834 189.726C41.1189 191.636 36.5997 192.591 31.1256 192.591H19.9548V218.179H6.58794V151.535H31.1256C36.2814 151.535 40.6734 152.427 44.3015 154.209C47.9296 155.991 50.6348 158.442 52.4171 161.561C54.263 164.68 55.1859 168.212 55.1859 172.159ZM30.5528 181.802C34.2446 181.802 36.9816 180.974 38.7638 179.319C40.5461 177.601 41.4372 175.214 41.4372 172.159C41.4372 165.666 37.809 162.42 30.5528 162.42H19.9548V181.802H30.5528ZM113.847 190.586C113.847 192.495 113.72 194.214 113.465 195.742H74.7968C75.1151 199.561 76.4518 202.552 78.8069 204.716C81.162 206.881 84.0581 207.963 87.4953 207.963C92.4601 207.963 95.9928 205.83 98.0933 201.566H112.51C110.983 206.658 108.055 210.859 103.726 214.169C99.3982 217.415 94.0833 219.038 87.7818 219.038C82.6896 219.038 78.1067 217.924 74.033 215.696C70.023 213.405 66.8722 210.19 64.5807 206.053C62.3529 201.916 61.239 197.142 61.239 191.731C61.239 186.257 62.3529 181.452 64.5807 177.314C66.8086 173.177 69.9275 169.994 73.9375 167.767C77.9476 165.539 82.5623 164.425 87.7818 164.425C92.8102 164.425 97.2977 165.507 101.244 167.671C105.254 169.835 108.341 172.922 110.505 176.932C112.733 180.879 113.847 185.43 113.847 190.586ZM100.003 186.767C99.9392 183.329 98.698 180.592 96.2792 178.556C93.8605 176.455 90.9007 175.405 87.3998 175.405C84.09 175.405 81.2893 176.423 78.9978 178.46C76.77 180.433 75.4015 183.202 74.8923 186.767H100.003ZM143.845 219.038C139.517 219.038 135.634 218.274 132.197 216.747C128.759 215.155 126.022 213.023 123.986 210.35C122.012 207.676 120.93 204.716 120.739 201.47H134.202C134.456 203.507 135.443 205.194 137.161 206.53C138.944 207.867 141.14 208.535 143.749 208.535C146.295 208.535 148.269 208.026 149.669 207.008C151.133 205.989 151.865 204.685 151.865 203.093C151.865 201.375 150.974 200.102 149.192 199.274C147.473 198.383 144.704 197.428 140.885 196.41C136.939 195.455 133.692 194.468 131.146 193.45C128.664 192.432 126.5 190.872 124.654 188.772C122.872 186.671 121.981 183.839 121.981 180.274C121.981 177.346 122.808 174.673 124.463 172.254C126.182 169.835 128.6 167.926 131.719 166.525C134.902 165.125 138.625 164.425 142.89 164.425C149.192 164.425 154.22 166.016 157.976 169.199C161.731 172.318 163.8 176.551 164.182 181.897H151.388C151.197 179.797 150.306 178.142 148.714 176.932C147.187 175.659 145.118 175.023 142.508 175.023C140.089 175.023 138.212 175.468 136.875 176.36C135.602 177.251 134.965 178.492 134.965 180.083C134.965 181.865 135.857 183.234 137.639 184.189C139.421 185.08 142.19 186.003 145.945 186.958C149.764 187.912 152.915 188.899 155.398 189.917C157.88 190.936 160.012 192.527 161.795 194.691C163.641 196.792 164.595 199.592 164.659 203.093C164.659 206.149 163.8 208.886 162.081 211.304C160.426 213.723 158.007 215.633 154.825 217.033C151.706 218.37 148.046 219.038 143.845 219.038ZM191.194 176.264V201.852C191.194 203.634 191.608 204.939 192.435 205.767C193.327 206.53 194.791 206.912 196.827 206.912H203.033V218.179H194.631C183.365 218.179 177.732 212.705 177.732 201.757V176.264H171.43V165.284H177.732V152.204H191.194V165.284H203.033V176.264H191.194ZM253.321 178.46V189.726H212.838V178.46H253.321ZM291.608 151.535C298.61 151.535 304.752 152.904 310.035 155.641C315.382 158.378 319.487 162.293 322.352 167.385C325.28 172.413 326.744 178.269 326.744 184.953C326.744 191.636 325.28 197.492 322.352 202.52C319.487 207.485 315.382 211.336 310.035 214.073C304.752 216.81 298.61 218.179 291.608 218.179H268.312V151.535H291.608ZM291.131 206.817C298.132 206.817 303.543 204.907 307.362 201.088C311.181 197.269 313.09 191.891 313.09 184.953C313.09 178.015 311.181 172.604 307.362 168.721C303.543 164.775 298.132 162.802 291.131 162.802H281.678V206.817H291.131ZM360.237 219.038C355.145 219.038 350.562 217.924 346.488 215.696C342.414 213.405 339.2 210.19 336.845 206.053C334.553 201.916 333.408 197.142 333.408 191.731C333.408 186.321 334.585 181.547 336.94 177.41C339.359 173.273 342.637 170.09 346.775 167.862C350.912 165.571 355.527 164.425 360.619 164.425C365.711 164.425 370.326 165.571 374.463 167.862C378.6 170.09 381.847 173.273 384.202 177.41C386.62 181.547 387.83 186.321 387.83 191.731C387.83 197.142 386.589 201.916 384.106 206.053C381.687 210.19 378.378 213.405 374.177 215.696C370.039 217.924 365.393 219.038 360.237 219.038ZM360.237 207.39C362.656 207.39 364.915 206.817 367.016 205.671C369.18 204.462 370.899 202.68 372.172 200.324C373.445 197.969 374.081 195.105 374.081 191.731C374.081 186.703 372.744 182.852 370.071 180.179C367.461 177.442 364.247 176.073 360.428 176.073C356.609 176.073 353.394 177.442 350.785 180.179C348.239 182.852 346.966 186.703 346.966 191.731C346.966 196.76 348.207 200.643 350.689 203.38C353.235 206.053 356.418 207.39 360.237 207.39ZM394.198 191.731C394.198 186.257 395.312 181.484 397.539 177.41C399.767 173.273 402.854 170.09 406.801 167.862C410.747 165.571 415.266 164.425 420.359 164.425C426.915 164.425 432.325 166.08 436.59 169.39C440.918 172.636 443.814 177.219 445.278 183.139H430.861C430.097 180.847 428.792 179.065 426.946 177.792C425.164 176.455 422.936 175.787 420.263 175.787C416.444 175.787 413.421 177.187 411.193 179.988C408.965 182.725 407.851 186.639 407.851 191.731C407.851 196.76 408.965 200.675 411.193 203.475C413.421 206.212 416.444 207.581 420.263 207.581C425.673 207.581 429.206 205.162 430.861 200.324H445.278C443.814 206.053 440.918 210.604 436.59 213.978C432.261 217.351 426.851 219.038 420.359 219.038C415.266 219.038 410.747 217.924 406.801 215.696C402.854 213.405 399.767 210.222 397.539 206.149C395.312 202.011 394.198 197.206 394.198 191.731ZM518.685 205.48H492.143L487.751 218.179H473.716L497.68 151.44H513.243L537.208 218.179H523.077L518.685 205.48ZM515.057 194.787L505.414 166.907L495.771 194.787H515.057ZM559.533 151.535V218.179H546.166V151.535H559.533Z" fill="#00C1DF"/>
<defs>
<linearGradient id="paint0_linear_3458_46654" x1="597.733" y1="88.9558" x2="-68.4943" y2="307.797" gradientUnits="userSpaceOnUse">
<stop stop-color="#00C1DF"/>
<stop offset="0.482483" stop-color="#00246B"/>
<stop offset="1" stop-color="#00C1DF"/>
</linearGradient>
</defs>
</svg>
