<svg width="1266" height="158" viewBox="0 0 1266 158" fill="none" xmlns="http://www.w3.org/2000/svg">
<mask id="path-1-outside-1_3458_18177" maskUnits="userSpaceOnUse" x="-1" y="-1" width="1268" height="160" fill="black">
<rect fill="white" x="-1" y="-1" width="1268" height="160"/>
<path d="M122.86 52.6C122.86 61.9867 120.66 70.5667 116.26 78.34C112.007 85.9667 105.48 92.1267 96.68 96.82C88.0267 101.367 77.3933 103.64 64.78 103.64H43.44V156H0.32V0.899991H64.78C77.2467 0.899991 87.8067 3.09999 96.46 7.5C105.26 11.9 111.86 17.9867 116.26 25.76C120.66 33.5333 122.86 42.48 122.86 52.6ZM60.6 69.32C72.7733 69.32 78.86 63.7467 78.86 52.6C78.86 41.3067 72.7733 35.66 60.6 35.66H43.44V69.32H60.6ZM258.103 92.86C258.103 96.2333 257.883 99.6067 257.443 102.98H175.823C176.263 109.727 178.097 114.787 181.323 118.16C184.697 121.387 188.95 123 194.083 123C201.27 123 206.403 119.773 209.483 113.32H255.463C253.557 121.827 249.817 129.453 244.243 136.2C238.817 142.8 231.923 148.007 223.563 151.82C215.203 155.633 205.963 157.54 195.843 157.54C183.67 157.54 172.817 154.973 163.283 149.84C153.897 144.707 146.49 137.373 141.063 127.84C135.783 118.307 133.143 107.087 133.143 94.18C133.143 81.2733 135.783 70.1267 141.063 60.74C146.343 51.2067 153.677 43.8733 163.063 38.74C172.597 33.6067 183.523 31.04 195.843 31.04C208.017 31.04 218.797 33.5333 228.183 38.52C237.57 43.5067 244.903 50.6933 250.183 60.08C255.463 69.32 258.103 80.2467 258.103 92.86ZM214.103 82.08C214.103 76.8 212.343 72.6933 208.823 69.76C205.303 66.68 200.903 65.14 195.623 65.14C190.343 65.14 186.017 66.6067 182.643 69.54C179.27 72.3267 177.07 76.5067 176.043 82.08H214.103ZM328.33 157.54C317.183 157.54 307.21 155.707 298.41 152.04C289.756 148.227 282.863 143.093 277.73 136.64C272.743 130.04 269.956 122.633 269.37 114.42H311.17C311.756 118.38 313.59 121.46 316.67 123.66C319.75 125.86 323.563 126.96 328.11 126.96C331.63 126.96 334.416 126.227 336.47 124.76C338.523 123.293 339.55 121.387 339.55 119.04C339.55 115.96 337.863 113.687 334.49 112.22C331.116 110.753 325.543 109.14 317.77 107.38C308.97 105.62 301.636 103.64 295.77 101.44C289.903 99.24 284.77 95.6467 280.37 90.66C276.116 85.6733 273.99 78.9267 273.99 70.42C273.99 63.0867 275.97 56.4867 279.93 50.62C283.89 44.6067 289.683 39.84 297.31 36.32C305.083 32.8 314.396 31.04 325.25 31.04C341.383 31.04 354.07 35 363.31 42.92C372.55 50.84 377.903 61.2533 379.37 74.16H340.43C339.696 70.2 337.936 67.1933 335.15 65.14C332.51 62.94 328.916 61.84 324.37 61.84C320.85 61.84 318.136 62.5 316.23 63.82C314.47 65.14 313.59 66.9733 313.59 69.32C313.59 72.2533 315.276 74.5267 318.65 76.14C322.023 77.6067 327.45 79.1467 334.93 80.76C343.876 82.6667 351.283 84.7933 357.15 87.14C363.163 89.4867 368.37 93.3 372.77 98.58C377.316 103.713 379.59 110.753 379.59 119.7C379.59 126.887 377.463 133.34 373.21 139.06C369.103 144.78 363.163 149.327 355.39 152.7C347.763 155.927 338.743 157.54 328.33 157.54ZM473.609 119.26V156H454.909C423.375 156 407.609 140.38 407.609 109.14V68.44H392.429V32.58H407.609V2.65999H450.949V32.58H473.389V68.44H450.949V109.8C450.949 113.173 451.682 115.593 453.149 117.06C454.762 118.527 457.402 119.26 461.069 119.26H473.609ZM554.766 0.899991C571.046 0.899991 585.273 4.19999 597.446 10.8C609.766 17.2533 619.226 26.3467 625.826 38.08C632.426 49.8133 635.726 63.2333 635.726 78.34C635.726 93.3 632.353 106.647 625.606 118.38C619.006 130.113 609.546 139.353 597.226 146.1C585.053 152.7 570.9 156 554.766 156H493.386V0.899991H554.766ZM551.466 117.94C564.08 117.94 573.98 114.493 581.166 107.6C588.353 100.707 591.946 90.9533 591.946 78.34C591.946 65.58 588.353 55.7533 581.166 48.86C573.98 41.82 564.08 38.3 551.466 38.3H536.506V117.94H551.466ZM712.584 157.54C700.264 157.54 689.19 154.973 679.364 149.84C669.684 144.707 662.057 137.373 656.484 127.84C650.91 118.307 648.124 107.087 648.124 94.18C648.124 81.42 650.91 70.2733 656.484 60.74C662.204 51.2067 669.904 43.8733 679.584 38.74C689.41 33.6067 700.484 31.04 712.804 31.04C725.124 31.04 736.124 33.6067 745.804 38.74C755.63 43.8733 763.33 51.2067 768.904 60.74C774.624 70.2733 777.484 81.42 777.484 94.18C777.484 106.94 774.624 118.16 768.904 127.84C763.33 137.373 755.63 144.707 745.804 149.84C735.977 154.973 724.904 157.54 712.584 157.54ZM712.584 120.14C718.597 120.14 723.584 117.94 727.544 113.54C731.65 108.993 733.704 102.54 733.704 94.18C733.704 85.82 731.65 79.44 727.544 75.04C723.584 70.64 718.67 68.44 712.804 68.44C706.937 68.44 702.024 70.64 698.064 75.04C694.104 79.44 692.124 85.82 692.124 94.18C692.124 102.687 694.03 109.14 697.844 113.54C701.657 117.94 706.57 120.14 712.584 120.14ZM787.987 94.18C787.987 81.42 790.627 70.2733 795.907 60.74C801.187 51.2067 808.52 43.8733 817.907 38.74C827.44 33.6067 838.294 31.04 850.467 31.04C866.16 31.04 879.36 35.3667 890.067 44.02C900.774 52.5267 907.667 64.48 910.747 79.88H864.987C862.347 71.8133 857.214 67.78 849.587 67.78C844.16 67.78 839.834 70.0533 836.607 74.6C833.527 79 831.987 85.5267 831.987 94.18C831.987 102.833 833.527 109.433 836.607 113.98C839.834 118.527 844.16 120.8 849.587 120.8C857.36 120.8 862.494 116.767 864.987 108.7H910.747C907.667 123.953 900.774 135.907 890.067 144.56C879.36 153.213 866.16 157.54 850.467 157.54C838.294 157.54 827.44 154.973 817.907 149.84C808.52 144.707 801.187 137.373 795.907 127.84C790.627 118.307 787.987 107.087 787.987 94.18ZM1023.92 61.84V97.7H924.26V61.84H1023.92ZM1153.97 130.7H1098.97L1090.61 156H1045.29L1101.83 0.899991H1151.55L1207.87 156H1162.33L1153.97 130.7ZM1143.19 97.7L1126.47 47.54L1109.97 97.7H1143.19ZM1265.04 0.899991V156H1221.92V0.899991H1265.04Z"/>
</mask>
<path d="M116.26 78.34L115.39 77.8474L115.387 77.8529L116.26 78.34ZM96.68 96.82L97.1451 97.7053L97.1506 97.7023L96.68 96.82ZM43.44 103.64V102.64H42.44V103.64H43.44ZM43.44 156V157H44.44V156H43.44ZM0.320001 156H-0.679999V157H0.320001V156ZM0.320001 0.89999V-0.10001H-0.679999V0.89999H0.320001ZM96.46 7.5L96.0068 8.3914L96.0128 8.39442L96.46 7.5ZM116.26 25.76L115.39 26.2526H115.39L116.26 25.76ZM43.44 35.66V34.66H42.44V35.66H43.44ZM43.44 69.32H42.44V70.32H43.44V69.32ZM121.86 52.6C121.86 61.8231 119.7 70.2321 115.39 77.8474L117.13 78.8326C121.62 70.9013 123.86 62.1502 123.86 52.6H121.86ZM115.387 77.8529C111.24 85.289 104.865 91.3215 96.2094 95.9376L97.1506 97.7023C106.095 92.9318 112.774 86.6443 117.133 78.8271L115.387 77.8529ZM96.2149 95.9348C87.7406 100.387 77.2769 102.64 64.78 102.64V104.64C77.5097 104.64 88.3128 102.346 97.1451 97.7052L96.2149 95.9348ZM64.78 102.64H43.44V104.64H64.78V102.64ZM42.44 103.64V156H44.44V103.64H42.44ZM43.44 155H0.320001V157H43.44V155ZM1.32 156V0.89999H-0.679999V156H1.32ZM0.320001 1.89999H64.78V-0.10001H0.320001V1.89999ZM64.78 1.89999C77.1325 1.89999 87.528 4.08015 96.0068 8.39138L96.9133 6.60861C88.0853 2.11984 77.3608 -0.10001 64.78 -0.10001V1.89999ZM96.0128 8.39442C104.654 12.7149 111.098 18.6697 115.39 26.2526L117.13 25.2674C112.622 17.3036 105.866 11.0851 96.9072 6.60557L96.0128 8.39442ZM115.39 26.2526C119.694 33.8566 121.86 42.6293 121.86 52.6H123.86C123.86 42.3307 121.626 33.2101 117.13 25.2674L115.39 26.2526ZM60.6 70.32C66.8201 70.32 71.6716 68.898 74.9703 65.8775C78.2857 62.8418 79.86 58.3512 79.86 52.6H77.86C77.86 57.9954 76.391 61.8649 73.6197 64.4025C70.8317 66.9553 66.5533 68.32 60.6 68.32V70.32ZM79.86 52.6C79.86 46.7791 78.2879 42.2352 74.9751 39.1619C71.6765 36.1017 66.823 34.66 60.6 34.66V36.66C66.5504 36.66 70.8268 38.0416 73.6149 40.6281C76.3888 43.2015 77.86 47.1275 77.86 52.6H79.86ZM60.6 34.66H43.44V36.66H60.6V34.66ZM42.44 35.66V69.32H44.44V35.66H42.44ZM43.44 70.32H60.6V68.32H43.44V70.32ZM257.443 102.98V103.98H258.321L258.435 103.109L257.443 102.98ZM175.823 102.98V101.98H174.756L174.825 103.045L175.823 102.98ZM181.323 118.16L180.601 118.851L180.616 118.867L180.632 118.883L181.323 118.16ZM209.483 113.32V112.32H208.853L208.581 112.889L209.483 113.32ZM255.463 113.32L256.439 113.539L256.712 112.32H255.463V113.32ZM244.243 136.2L243.472 135.563L243.471 135.565L244.243 136.2ZM223.563 151.82L223.978 152.73L223.563 151.82ZM163.283 149.84L162.803 150.717L162.809 150.72L163.283 149.84ZM141.063 127.84L140.188 128.325L140.194 128.335L141.063 127.84ZM141.063 60.74L141.935 61.2303L141.938 61.2245L141.063 60.74ZM163.063 38.74L162.589 37.8595L162.583 37.8626L163.063 38.74ZM228.183 38.52L228.652 37.6369H228.652L228.183 38.52ZM250.183 60.08L249.312 60.5703L249.315 60.5761L250.183 60.08ZM214.103 82.08V83.08H215.103V82.08H214.103ZM208.823 69.76L208.165 70.5126L208.174 70.5205L208.183 70.5282L208.823 69.76ZM182.643 69.54L183.28 70.311L183.29 70.3029L183.299 70.2946L182.643 69.54ZM176.043 82.08L175.06 81.8988L174.842 83.08H176.043V82.08ZM257.103 92.86C257.103 96.1897 256.886 99.5199 256.452 102.851L258.435 103.109C258.88 99.6935 259.103 96.2769 259.103 92.86H257.103ZM257.443 101.98H175.823V103.98H257.443V101.98ZM174.825 103.045C175.274 109.924 177.152 115.246 180.601 118.851L182.046 117.469C179.041 114.327 177.253 109.53 176.821 102.915L174.825 103.045ZM180.632 118.883C184.211 122.306 188.72 124 194.083 124V122C189.179 122 185.182 120.468 182.015 117.437L180.632 118.883ZM194.083 124C197.83 124 201.102 123.157 203.855 121.427C206.609 119.696 208.779 117.117 210.386 113.751L208.581 112.889C207.108 115.976 205.171 118.238 202.791 119.733C200.411 121.229 197.524 122 194.083 122V124ZM209.483 114.32H255.463V112.32H209.483V114.32ZM254.487 113.101C252.615 121.454 248.946 128.937 243.472 135.563L245.014 136.837C250.687 129.969 254.498 122.2 256.439 113.539L254.487 113.101ZM243.471 135.565C238.148 142.039 231.38 147.155 223.148 150.91L223.978 152.73C232.466 148.858 239.485 143.561 245.016 136.835L243.471 135.565ZM223.148 150.91C214.931 154.658 205.835 156.54 195.843 156.54V158.54C206.092 158.54 215.475 156.608 223.978 152.73L223.148 150.91ZM195.843 156.54C183.815 156.54 173.128 154.005 163.757 148.96L162.809 150.72C172.506 155.942 183.525 158.54 195.843 158.54V156.54ZM163.763 148.963C154.543 143.921 147.27 136.722 141.932 127.345L140.194 128.335C145.71 138.025 153.25 145.493 162.803 150.717L163.763 148.963ZM141.938 127.355C136.754 117.996 134.143 106.948 134.143 94.18H132.143C132.143 107.225 134.812 118.618 140.188 128.324L141.938 127.355ZM134.143 94.18C134.143 81.411 136.754 70.4401 141.935 61.2303L140.192 60.2497C134.812 69.8132 132.143 81.1356 132.143 94.18H134.143ZM141.938 61.2245C147.128 51.8536 154.326 44.658 163.543 39.6174L162.583 37.8626C153.027 43.0886 145.558 50.5597 140.188 60.2555L141.938 61.2245ZM163.537 39.6205C172.906 34.5758 183.666 32.04 195.843 32.04V30.04C183.381 30.04 172.287 32.6375 162.589 37.8595L163.537 39.6205ZM195.843 32.04C207.877 32.04 218.492 34.5037 227.714 39.4031L228.652 37.6369C219.102 32.563 208.156 30.04 195.843 30.04V32.04ZM227.714 39.4031C236.929 44.2988 244.124 51.348 249.312 60.5703L251.055 59.5897C245.682 50.0387 238.21 42.7146 228.652 37.6369L227.714 39.4031ZM249.315 60.5761C254.494 69.6392 257.103 80.3883 257.103 92.86H259.103C259.103 80.105 256.433 69.0008 251.052 59.5839L249.315 60.5761ZM215.103 82.08C215.103 76.5537 213.248 72.1452 209.463 68.9918L208.183 70.5282C211.439 73.2414 213.103 77.0463 213.103 82.08H215.103ZM209.482 69.0074C205.756 65.7472 201.112 64.14 195.623 64.14V66.14C200.694 66.14 204.851 67.6128 208.165 70.5126L209.482 69.0074ZM195.623 64.14C190.148 64.14 185.574 65.666 181.987 68.7854L183.299 70.2946C186.459 67.5473 190.538 66.14 195.623 66.14V64.14ZM182.006 68.769C178.404 71.745 176.116 76.1637 175.06 81.8988L177.027 82.2612C178.024 76.8496 180.136 72.9083 183.28 70.311L182.006 68.769ZM176.043 83.08H214.103V81.08H176.043V83.08ZM298.41 152.04L298.006 152.955L298.016 152.959L298.025 152.963L298.41 152.04ZM277.73 136.64L276.932 137.243L276.939 137.253L276.947 137.263L277.73 136.64ZM269.37 114.42V113.42H268.296L268.372 114.491L269.37 114.42ZM311.17 114.42L312.159 114.273L312.032 113.42H311.17V114.42ZM334.49 112.22L334.888 111.303L334.49 112.22ZM317.77 107.38L317.991 106.405L317.978 106.402L317.966 106.399L317.77 107.38ZM295.77 101.44L295.419 102.376L295.77 101.44ZM280.37 90.66L279.609 91.3089L279.614 91.3153L279.62 91.3216L280.37 90.66ZM279.93 50.62L280.759 51.1795L280.765 51.17L279.93 50.62ZM297.31 36.32L296.897 35.409L296.891 35.412L297.31 36.32ZM363.31 42.92L362.659 43.6793L363.31 42.92ZM379.37 74.16V75.16H380.49L380.363 74.0471L379.37 74.16ZM340.43 74.16L339.446 74.3421L339.598 75.16H340.43V74.16ZM335.15 65.14L334.509 65.9082L334.532 65.9273L334.556 65.9451L335.15 65.14ZM316.23 63.82L315.66 62.9978L315.645 63.0086L315.63 63.02L316.23 63.82ZM318.65 76.14L318.218 77.0421L318.234 77.0499L318.251 77.0571L318.65 76.14ZM334.93 80.76L334.719 81.7375L334.721 81.738L334.93 80.76ZM357.15 87.14L356.778 88.0685L356.786 88.0716L357.15 87.14ZM372.77 98.58L372.001 99.2202L372.011 99.2318L372.021 99.243L372.77 98.58ZM373.21 139.06L372.407 138.463L372.402 138.47L372.397 138.477L373.21 139.06ZM355.39 152.7L355.779 153.621L355.788 153.617L355.39 152.7ZM328.33 156.54C317.293 156.54 307.454 154.725 298.794 151.117L298.025 152.963C306.966 156.688 317.073 158.54 328.33 158.54V156.54ZM298.813 151.125C290.286 147.367 283.531 142.326 278.512 136.017L276.947 137.263C282.195 143.86 289.227 149.086 298.006 152.955L298.813 151.125ZM278.528 136.037C273.657 129.591 270.94 122.368 270.367 114.349L268.372 114.491C268.973 122.898 271.829 130.489 276.932 137.243L278.528 136.037ZM269.37 115.42H311.17V113.42H269.37V115.42ZM310.18 114.567C310.804 118.778 312.774 122.106 316.088 124.474L317.251 122.846C314.406 120.814 312.708 117.982 312.159 114.273L310.18 114.567ZM316.088 124.474C319.37 126.818 323.397 127.96 328.11 127.96V125.96C323.729 125.96 320.129 124.902 317.251 122.846L316.088 124.474ZM328.11 127.96C331.758 127.96 334.773 127.201 337.051 125.574L335.888 123.946C334.06 125.252 331.501 125.96 328.11 125.96V127.96ZM337.051 125.574C339.344 123.936 340.55 121.737 340.55 119.04H338.55C338.55 121.036 337.702 122.651 335.888 123.946L337.051 125.574ZM340.55 119.04C340.55 117.305 340.07 115.754 339.088 114.429C338.113 113.116 336.689 112.086 334.888 111.303L334.091 113.137C335.664 113.821 336.769 114.661 337.482 115.621C338.186 116.57 338.55 117.695 338.55 119.04H340.55ZM334.888 111.303C331.423 109.796 325.771 108.166 317.991 106.405L317.549 108.355C325.315 110.114 330.81 111.71 334.091 113.137L334.888 111.303ZM317.966 106.399C309.198 104.646 301.921 102.679 296.121 100.504L295.419 102.376C301.352 104.601 308.741 106.594 317.574 108.361L317.966 106.399ZM296.121 100.504C290.417 98.3647 285.418 94.87 281.12 89.9984L279.62 91.3216C284.121 96.4234 289.389 100.115 295.419 102.376L296.121 100.504ZM281.131 90.011C277.073 85.2536 274.99 78.761 274.99 70.42H272.99C272.99 79.0923 275.16 86.093 279.609 91.3089L281.131 90.011ZM274.99 70.42C274.99 63.2784 276.914 56.8747 280.759 51.1795L279.101 50.0605C275.025 56.0987 272.99 62.8949 272.99 70.42H274.99ZM280.765 51.17C284.606 45.3369 290.243 40.683 297.729 37.228L296.891 35.412C289.123 38.997 283.173 43.8764 279.095 50.07L280.765 51.17ZM297.722 37.2309C305.336 33.7833 314.501 32.04 325.25 32.04V30.04C314.291 30.04 304.83 31.8167 296.897 35.409L297.722 37.2309ZM325.25 32.04C341.223 32.04 353.652 35.9591 362.659 43.6793L363.96 42.1607C354.487 34.0409 341.543 30.04 325.25 30.04V32.04ZM362.659 43.6793C371.693 51.4231 376.936 61.5987 378.376 74.2729L380.363 74.0471C378.87 60.9079 373.406 50.2569 363.96 42.1607L362.659 43.6793ZM379.37 73.16H340.43V75.16H379.37V73.16ZM341.413 73.9779C340.642 69.8119 338.767 66.5633 335.743 64.3349L334.556 65.9451C337.106 67.8234 338.751 70.5881 339.446 74.3421L341.413 73.9779ZM335.79 64.3718C332.919 61.9795 329.074 60.84 324.37 60.84V62.84C328.759 62.84 332.1 63.9005 334.509 65.9082L335.79 64.3718ZM324.37 60.84C320.745 60.84 317.8 61.5163 315.66 62.9978L316.799 64.6422C318.472 63.4837 320.954 62.84 324.37 62.84V60.84ZM315.63 63.02C313.599 64.543 312.59 66.683 312.59 69.32H314.59C314.59 67.2637 315.34 65.7369 316.83 64.62L315.63 63.02ZM312.59 69.32C312.59 72.7508 314.612 75.3174 318.218 77.0421L319.081 75.2379C315.941 73.736 314.59 71.7558 314.59 69.32H312.59ZM318.251 77.0571C321.72 78.5653 327.228 80.1218 334.719 81.7375L335.141 79.7825C327.671 78.1715 322.326 76.648 319.048 75.2229L318.251 77.0571ZM334.721 81.738C343.635 83.6376 350.982 85.75 356.778 88.0685L357.521 86.2115C351.584 83.8367 344.118 81.6957 335.138 79.782L334.721 81.738ZM356.786 88.0716C362.632 90.3529 367.702 94.0612 372.001 99.2202L373.538 97.9398C369.037 92.5387 363.694 88.6205 357.513 86.2084L356.786 88.0716ZM372.021 99.243C376.362 104.144 378.59 110.922 378.59 119.7H380.59C380.59 110.585 378.271 103.283 373.518 97.917L372.021 99.243ZM378.59 119.7C378.59 126.674 376.531 132.917 372.407 138.463L374.012 139.657C378.395 133.763 380.59 127.1 380.59 119.7H378.59ZM372.397 138.477C368.416 144.023 362.633 148.467 354.992 151.783L355.788 153.617C363.693 150.187 369.79 145.537 374.022 139.643L372.397 138.477ZM355 151.779C347.524 154.942 338.642 156.54 328.33 156.54V158.54C338.844 158.54 348.002 156.911 355.779 153.621L355 151.779ZM473.609 119.26H474.609V118.26H473.609V119.26ZM473.609 156V157H474.609V156H473.609ZM407.609 68.44H408.609V67.44H407.609V68.44ZM392.429 68.44H391.429V69.44H392.429V68.44ZM392.429 32.58V31.58H391.429V32.58H392.429ZM407.609 32.58V33.58H408.609V32.58H407.609ZM407.609 2.66V1.66H406.609V2.66H407.609ZM450.949 2.66H451.949V1.66H450.949V2.66ZM450.949 32.58H449.949V33.58H450.949V32.58ZM473.389 32.58H474.389V31.58H473.389V32.58ZM473.389 68.44V69.44H474.389V68.44H473.389ZM450.949 68.44V67.44H449.949V68.44H450.949ZM453.149 117.06L452.442 117.767L452.458 117.784L452.476 117.8L453.149 117.06ZM472.609 119.26V156H474.609V119.26H472.609ZM473.609 155H454.909V157H473.609V155ZM454.909 155C439.294 155 427.767 151.133 420.138 143.575C412.51 136.018 408.609 124.603 408.609 109.14H406.609C406.609 124.917 410.591 136.932 418.73 144.995C426.867 153.057 438.99 157 454.909 157V155ZM408.609 109.14V68.44H406.609V109.14H408.609ZM407.609 67.44H392.429V69.44H407.609V67.44ZM393.429 68.44V32.58H391.429V68.44H393.429ZM392.429 33.58H407.609V31.58H392.429V33.58ZM408.609 32.58V2.66H406.609V32.58H408.609ZM407.609 3.66H450.949V1.66H407.609V3.66ZM449.949 2.66V32.58H451.949V2.66H449.949ZM450.949 33.58H473.389V31.58H450.949V33.58ZM472.389 32.58V68.44H474.389V32.58H472.389ZM473.389 67.44H450.949V69.44H473.389V67.44ZM449.949 68.44V109.8H451.949V68.44H449.949ZM449.949 109.8C449.949 113.28 450.699 116.025 452.442 117.767L453.856 116.353C452.665 115.162 451.949 113.067 451.949 109.8H449.949ZM452.476 117.8C454.364 119.516 457.311 120.26 461.069 120.26V118.26C457.493 118.26 455.16 117.537 453.821 116.32L452.476 117.8ZM461.069 120.26H473.609V118.26H461.069V120.26ZM597.446 10.8L596.97 11.6791L596.976 11.6825L596.982 11.6858L597.446 10.8ZM625.826 38.08L626.698 37.5897L625.826 38.08ZM625.606 118.38L624.739 117.882L624.735 117.89L625.606 118.38ZM597.226 146.1L597.703 146.979L597.707 146.977L597.226 146.1ZM493.386 156H492.386V157H493.386V156ZM493.386 0.89999V-0.10001H492.386V0.89999H493.386ZM581.166 107.6L581.859 108.322L581.166 107.6ZM581.166 48.86L580.467 49.5744L580.474 49.5817L581.166 48.86ZM536.506 38.3V37.3H535.506V38.3H536.506ZM536.506 117.94H535.506V118.94H536.506V117.94ZM554.766 1.89999C570.909 1.89999 584.967 5.17132 596.97 11.6791L597.923 9.92089C585.58 3.22866 571.184 -0.10001 554.766 -0.10001V1.89999ZM596.982 11.6858C609.137 18.0526 618.453 27.0112 624.955 38.5703L626.698 37.5897C620 25.6821 610.396 16.454 597.91 9.91416L596.982 11.6858ZM624.955 38.5703C631.461 50.1363 634.726 63.3837 634.726 78.34H636.726C636.726 63.083 633.392 49.4903 626.698 37.5897L624.955 38.5703ZM634.726 78.34C634.726 93.144 631.39 106.315 624.74 117.882L626.473 118.878C633.316 106.978 636.726 93.456 636.726 78.34H634.726ZM624.735 117.89C618.231 129.453 608.91 138.562 596.746 145.223L597.707 146.977C610.183 140.145 619.782 130.774 626.478 118.87L624.735 117.89ZM596.75 145.221C584.745 151.729 570.761 155 554.766 155V157C571.039 157 585.361 153.671 597.703 146.979L596.75 145.221ZM554.766 155H493.386V157H554.766V155ZM494.386 156V0.89999H492.386V156H494.386ZM493.386 1.89999H554.766V-0.10001H493.386V1.89999ZM551.466 118.94C564.266 118.94 574.44 115.438 581.859 108.322L580.474 106.878C573.52 113.549 563.894 116.94 551.466 116.94V118.94ZM581.859 108.322C589.291 101.192 592.946 91.1489 592.946 78.34H590.946C590.946 90.7578 587.415 100.221 580.474 106.878L581.859 108.322ZM592.946 78.34C592.946 65.3884 589.293 55.2697 581.859 48.1383L580.474 49.5817C587.413 56.237 590.946 65.7716 590.946 78.34H592.946ZM581.866 48.1456C574.448 40.8789 564.272 37.3 551.466 37.3V39.3C563.888 39.3 573.511 42.7611 580.467 49.5744L581.866 48.1456ZM551.466 37.3H536.506V39.3H551.466V37.3ZM535.506 38.3V117.94H537.506V38.3H535.506ZM536.506 118.94H551.466V116.94H536.506V118.94ZM679.364 149.84L678.895 150.723L678.901 150.726L679.364 149.84ZM656.484 127.84L657.347 127.335L656.484 127.84ZM656.484 60.74L655.626 60.2255L655.62 60.2353L656.484 60.74ZM679.584 38.74L679.121 37.8536L679.115 37.8565L679.584 38.74ZM745.804 38.74L745.335 39.6235L745.341 39.6263L745.804 38.74ZM768.904 60.74L768.04 61.2447L768.046 61.2545L768.904 60.74ZM768.904 127.84L768.043 127.331L768.04 127.335L768.904 127.84ZM745.804 149.84L745.341 148.954L745.804 149.84ZM727.544 113.54L726.802 112.87L726.8 112.871L727.544 113.54ZM727.544 75.04L726.8 75.709L726.807 75.7157L726.813 75.7223L727.544 75.04ZM697.844 113.54L697.088 114.195L697.844 113.54ZM712.584 156.54C700.407 156.54 689.495 154.004 679.827 148.954L678.901 150.726C688.886 155.942 700.121 158.54 712.584 158.54V156.54ZM679.832 148.957C670.318 143.911 662.827 136.709 657.347 127.335L655.62 128.345C661.287 138.037 669.05 145.502 678.895 150.723L679.832 148.957ZM657.347 127.335C651.877 117.979 649.124 106.94 649.124 94.18H647.124C647.124 107.234 649.943 118.634 655.62 128.345L657.347 127.335ZM649.124 94.18C649.124 81.5694 651.876 70.6024 657.347 61.2447L655.62 60.2353C649.944 69.9442 647.124 81.2706 647.124 94.18H649.124ZM657.341 61.2545C662.969 51.8748 670.536 44.6702 680.052 39.6235L679.115 37.8565C669.272 43.0765 661.438 50.5385 655.626 60.2255L657.341 61.2545ZM680.047 39.6263C689.715 34.5757 700.627 32.04 712.804 32.04V30.04C700.341 30.04 689.106 32.6376 679.121 37.8536L680.047 39.6263ZM712.804 32.04C724.981 32.04 735.817 34.5758 745.335 39.6235L746.272 37.8565C736.431 32.6376 725.266 30.04 712.804 30.04V32.04ZM745.341 39.6263C755.001 44.673 762.562 51.8744 768.04 61.2447L769.767 60.2353C764.098 50.539 756.259 43.0737 746.267 37.8536L745.341 39.6263ZM768.046 61.2545C773.66 70.6106 776.484 81.574 776.484 94.18H778.484C778.484 81.266 775.588 69.9361 769.761 60.2255L768.046 61.2545ZM776.484 94.18C776.484 106.786 773.66 117.825 768.043 127.331L769.765 128.349C775.587 118.495 778.484 107.094 778.484 94.18H776.484ZM768.04 127.335C762.562 136.706 755.001 143.907 745.341 148.954L746.267 150.726C756.259 145.506 764.098 138.041 769.767 128.345L768.04 127.335ZM745.341 148.954C735.672 154.004 724.761 156.54 712.584 156.54V158.54C725.047 158.54 736.282 155.942 746.267 150.726L745.341 148.954ZM712.584 121.14C718.875 121.14 724.134 118.823 728.287 114.209L726.8 112.871C723.034 117.057 718.319 119.14 712.584 119.14V121.14ZM728.286 114.21C732.611 109.422 734.704 102.697 734.704 94.18H732.704C732.704 102.383 730.69 108.565 726.802 112.87L728.286 114.21ZM734.704 94.18C734.704 85.666 732.612 79.0045 728.275 74.3577L726.813 75.7223C730.689 79.8755 732.704 85.974 732.704 94.18H734.704ZM728.287 74.371C724.139 69.7625 718.957 67.44 712.804 67.44V69.44C718.384 69.44 723.028 71.5175 726.8 75.709L728.287 74.371ZM712.804 67.44C706.651 67.44 701.468 69.7625 697.32 74.371L698.807 75.709C702.579 71.5175 707.224 69.44 712.804 69.44V67.44ZM697.32 74.371C693.138 79.0182 691.124 85.6744 691.124 94.18H693.124C693.124 85.9656 695.07 79.8618 698.807 75.709L697.32 74.371ZM691.124 94.18C691.124 102.819 693.058 109.545 697.088 114.195L698.599 112.885C695.003 108.735 693.124 102.555 693.124 94.18H691.124ZM697.088 114.195C701.098 118.822 706.291 121.14 712.584 121.14V119.14C706.85 119.14 702.216 117.058 698.599 112.885L697.088 114.195ZM795.907 60.74L796.782 61.2245L795.907 60.74ZM817.907 38.74L817.433 37.8595L817.427 37.8626L817.907 38.74ZM890.067 44.02L889.438 44.7978L889.445 44.803L890.067 44.02ZM910.747 79.88V80.88H911.967L911.728 79.6839L910.747 79.88ZM864.987 79.88L864.037 80.191L864.262 80.88H864.987V79.88ZM836.607 74.6L835.792 74.0212L835.788 74.0265L836.607 74.6ZM836.607 113.98L835.779 114.541L835.785 114.55L835.792 114.559L836.607 113.98ZM864.987 108.7V107.7H864.249L864.032 108.405L864.987 108.7ZM910.747 108.7L911.727 108.898L911.969 107.7H910.747V108.7ZM890.067 144.56L890.696 145.338L890.067 144.56ZM817.907 149.84L817.427 150.717L817.433 150.72L817.907 149.84ZM795.907 127.84L796.782 127.355L795.907 127.84ZM788.987 94.18C788.987 81.5604 791.597 70.586 796.782 61.2245L795.032 60.2555C789.657 69.9606 786.987 81.2796 786.987 94.18H788.987ZM796.782 61.2245C801.972 51.8536 809.17 44.658 818.387 39.6174L817.427 37.8626C807.871 43.0886 800.402 50.5597 795.032 60.2555L796.782 61.2245ZM818.381 39.6205C827.751 34.5749 838.438 32.04 850.467 32.04V30.04C838.149 30.04 827.129 32.6384 817.433 37.8595L818.381 39.6205ZM850.467 32.04C865.965 32.04 878.934 36.3081 889.438 44.7977L890.696 43.2423C879.786 34.4252 866.355 30.04 850.467 30.04V32.04ZM889.445 44.803C899.939 53.141 906.726 64.8715 909.766 80.0761L911.728 79.6839C908.609 64.0885 901.608 51.9124 890.689 43.237L889.445 44.803ZM910.747 78.88H864.987V80.88H910.747V78.88ZM865.937 79.569C864.574 75.4035 862.537 72.1892 859.775 70.0187C857.003 67.8411 853.585 66.78 849.587 66.78V68.78C853.216 68.78 856.177 69.7356 858.539 71.5913C860.91 73.4541 862.76 76.2898 864.037 80.191L865.937 79.569ZM849.587 66.78C843.826 66.78 839.2 69.2189 835.792 74.0213L837.423 75.1787C840.468 70.8877 844.495 68.78 849.587 68.78V66.78ZM835.788 74.0265C832.538 78.669 830.987 85.4364 830.987 94.18H832.987C832.987 85.6169 834.516 79.331 837.426 75.1735L835.788 74.0265ZM830.987 94.18C830.987 102.927 832.539 109.758 835.779 114.541L837.435 113.419C834.515 109.108 832.987 102.739 832.987 94.18H830.987ZM835.792 114.559C839.2 119.361 843.826 121.8 849.587 121.8V119.8C844.495 119.8 840.468 117.692 837.423 113.401L835.792 114.559ZM849.587 121.8C853.653 121.8 857.11 120.742 859.885 118.561C862.652 116.387 864.653 113.166 865.942 108.995L864.032 108.405C862.827 112.3 861.015 115.13 858.649 116.989C856.291 118.842 853.294 119.8 849.587 119.8V121.8ZM864.987 109.7H910.747V107.7H864.987V109.7ZM909.767 108.502C906.727 123.559 899.94 135.294 889.438 143.782L890.696 145.338C901.607 136.519 908.608 124.348 911.727 108.898L909.767 108.502ZM889.438 143.782C878.934 152.272 865.965 156.54 850.467 156.54V158.54C866.355 158.54 879.786 154.155 890.696 145.338L889.438 143.782ZM850.467 156.54C838.438 156.54 827.751 154.005 818.381 148.96L817.433 150.72C827.129 155.942 838.149 158.54 850.467 158.54V156.54ZM818.387 148.963C809.17 143.922 801.972 136.726 796.782 127.355L795.032 128.324C800.402 138.02 807.871 145.491 817.427 150.717L818.387 148.963ZM796.782 127.355C791.598 117.996 788.987 106.948 788.987 94.18H786.987C786.987 107.225 789.656 118.618 795.032 128.324L796.782 127.355ZM1023.92 61.84H1024.92V60.84H1023.92V61.84ZM1023.92 97.7V98.7H1024.92V97.7H1023.92ZM924.26 97.7H923.26V98.7H924.26V97.7ZM924.26 61.84V60.84H923.26V61.84H924.26ZM1022.92 61.84V97.7H1024.92V61.84H1022.92ZM1023.92 96.7H924.26V98.7H1023.92V96.7ZM925.26 97.7V61.84H923.26V97.7H925.26ZM924.26 62.84H1023.92V60.84H924.26V62.84ZM1153.97 130.7L1154.92 130.386L1154.69 129.7H1153.97V130.7ZM1098.97 130.7V129.7H1098.24L1098.02 130.386L1098.97 130.7ZM1090.61 156V157H1091.33L1091.56 156.314L1090.61 156ZM1045.29 156L1044.35 155.658L1043.86 157H1045.29V156ZM1101.83 0.89999V-0.10001H1101.13L1100.89 0.557499L1101.83 0.89999ZM1151.55 0.89999L1152.49 0.558674L1152.25 -0.10001H1151.55V0.89999ZM1207.87 156V157H1209.29L1208.81 155.659L1207.87 156ZM1162.33 156L1161.38 156.314L1161.6 157H1162.33V156ZM1143.19 97.7V98.7H1144.57L1144.14 97.3838L1143.19 97.7ZM1126.47 47.54L1127.42 47.2238L1126.46 44.3589L1125.52 47.2275L1126.47 47.54ZM1109.97 97.7L1109.02 97.3875L1108.59 98.7H1109.97V97.7ZM1153.97 129.7H1098.97V131.7H1153.97V129.7ZM1098.02 130.386L1089.66 155.686L1091.56 156.314L1099.92 131.014L1098.02 130.386ZM1090.61 155H1045.29V157H1090.61V155ZM1046.23 156.342L1102.77 1.24248L1100.89 0.557499L1044.35 155.658L1046.23 156.342ZM1101.83 1.89999H1151.55V-0.10001H1101.83V1.89999ZM1150.61 1.24131L1206.93 156.341L1208.81 155.659L1152.49 0.558674L1150.61 1.24131ZM1207.87 155H1162.33V157H1207.87V155ZM1163.28 155.686L1154.92 130.386L1153.02 131.014L1161.38 156.314L1163.28 155.686ZM1144.14 97.3838L1127.42 47.2238L1125.52 47.8562L1142.24 98.0162L1144.14 97.3838ZM1125.52 47.2275L1109.02 97.3875L1110.92 98.0125L1127.42 47.8525L1125.52 47.2275ZM1109.97 98.7H1143.19V96.7H1109.97V98.7ZM1265.04 0.89999H1266.04V-0.10001H1265.04V0.89999ZM1265.04 156V157H1266.04V156H1265.04ZM1221.92 156H1220.92V157H1221.92V156ZM1221.92 0.89999V-0.10001H1220.92V0.89999H1221.92ZM1264.04 0.89999V156H1266.04V0.89999H1264.04ZM1265.04 155H1221.92V157H1265.04V155ZM1222.92 156V0.89999H1220.92V156H1222.92ZM1221.92 1.89999H1265.04V-0.10001H1221.92V1.89999Z" fill="#33E0C4" fill-opacity="0.8" mask="url(#path-1-outside-1_3458_18177)"/>
</svg>
