<svg width="68" height="68" viewBox="0 0 68 68" fill="none" xmlns="http://www.w3.org/2000/svg">
<path d="M34.0766 0.662109H33.9248C15.564 0.662109 0.679688 15.5508 0.679688 33.917V34.0688C0.679688 52.435 15.564 67.3237 33.9248 67.3237H34.0766C52.4373 67.3237 67.3217 52.435 67.3217 34.0688V33.917C67.3217 15.5508 52.4373 0.662109 34.0766 0.662109Z" fill="black"/>
<path d="M50.8951 27.137V33.4312C49.7954 33.3237 48.3665 33.0738 46.7858 32.4946C44.7219 31.7379 43.1856 30.7033 42.1793 29.9023V42.6236L42.1536 42.5839C42.1699 42.8361 42.1793 43.093 42.1793 43.3523C42.1793 49.6698 37.0404 54.8125 30.7224 54.8125C24.4045 54.8125 19.2656 49.6698 19.2656 43.3523C19.2656 37.0348 24.4045 31.8897 30.7224 31.8897C31.3412 31.8897 31.9482 31.9388 32.5413 32.0345V38.2376C31.9716 38.0344 31.3598 37.9246 30.7224 37.9246C27.7316 37.9246 25.2964 40.3582 25.2964 43.3523C25.2964 46.3464 27.7316 48.7799 30.7224 48.7799C33.7133 48.7799 36.1485 46.344 36.1485 43.3523C36.1485 43.2402 36.1462 43.1281 36.1392 43.016V18.2949H42.4268C42.4501 18.8274 42.4711 19.3646 42.4945 19.8971C42.5365 20.9457 42.9101 21.9523 43.5615 22.7767C44.325 23.7459 45.4526 24.8716 47.0356 25.7708C48.5182 26.6116 49.9098 26.9712 50.8951 27.1417V27.137Z" fill="#FF004F"/>
<path d="M48.7349 22.0265V28.3206C47.6352 28.2132 46.2063 27.9633 44.6257 27.3841C42.5617 26.6274 41.0254 25.5928 40.0191 24.7917V37.513L39.9934 37.4733C40.0098 37.7256 40.0191 37.9825 40.0191 38.2417C40.0191 44.5592 34.8802 49.7019 28.5623 49.7019C22.2443 49.7019 17.1055 44.5592 17.1055 38.2417C17.1055 31.9242 22.2443 26.7792 28.5623 26.7792C29.181 26.7792 29.7881 26.8282 30.3811 26.924V33.127C29.8114 32.9238 29.1997 32.8141 28.5623 32.8141C25.5714 32.8141 23.1362 35.2476 23.1362 38.2417C23.1362 41.2358 25.5714 43.6694 28.5623 43.6694C31.5532 43.6694 33.9883 41.2335 33.9883 38.2417C33.9883 38.1296 33.986 38.0175 33.979 37.9054V13.1797H40.2666C40.2899 13.7122 40.311 14.2493 40.3343 14.7818C40.3763 15.8305 40.7499 16.837 41.4013 17.6615C42.1648 18.6307 43.2925 19.7564 44.8755 20.6556C46.3581 21.494 47.7496 21.856 48.7349 22.0265Z" fill="#00F7EF"/>
<path d="M50.1099 24.7777V31.0718C49.0102 30.9644 47.5813 30.7145 46.0007 30.1353C43.9367 29.3786 42.4004 28.3439 41.3941 27.5429V40.2642L41.3684 40.2245C41.3848 40.4768 41.3941 40.7337 41.3941 40.9929C41.3941 47.3104 36.2552 52.4531 29.9373 52.4531C23.6193 52.4531 18.4805 47.3104 18.4805 40.9929C18.4805 34.6754 23.6193 29.5304 29.9373 29.5304C30.556 29.5304 31.1631 29.5794 31.7561 29.6752V35.8782C31.1864 35.675 30.5747 35.5653 29.9373 35.5653C26.9464 35.5653 24.5112 37.9988 24.5112 40.9929C24.5112 43.987 26.9464 46.4206 29.9373 46.4206C32.9282 46.4206 35.3633 43.9847 35.3633 40.9929C35.3633 40.8808 35.361 40.7687 35.354 40.6566V15.9355H41.6416C41.665 16.468 41.686 17.0052 41.7093 17.5377C41.7513 18.5863 42.1249 19.5929 42.7763 20.4173C43.5398 21.3866 44.6675 22.5123 46.2505 23.4114C47.7331 24.2499 49.1246 24.6119 50.1099 24.7823V24.7777Z" fill="white"/>
</svg>
