<svg width="19" height="15" viewBox="0 0 19 15" fill="none" xmlns="http://www.w3.org/2000/svg">
<path d="M12.8747 0.0969917V0.09375H13.7187L14.0271 0.155342C14.2327 0.195328 14.4193 0.24773 14.5871 0.312564C14.7548 0.377397 14.9171 0.453042 15.074 0.539481C15.2309 0.625921 15.3732 0.713997 15.5009 0.803678C15.6275 0.89229 15.7411 0.986298 15.8417 1.0857C15.9412 1.1862 16.0965 1.21213 16.3075 1.1635C16.5185 1.11488 16.7458 1.04734 16.9892 0.9609C17.2327 0.87446 17.4735 0.77721 17.7115 0.669149C17.9496 0.561087 18.0946 0.492477 18.1465 0.463302C18.1974 0.433057 18.2244 0.416848 18.2277 0.414676L18.2309 0.409814L18.2471 0.40171L18.2633 0.393606L18.2796 0.385501L18.2958 0.377397L18.2991 0.372535L18.3039 0.369293L18.3088 0.366051L18.312 0.361189L18.3283 0.356326L18.3445 0.353085L18.3413 0.377397L18.3364 0.40171L18.3283 0.426022L18.3202 0.450335L18.312 0.466543L18.3039 0.482752L18.2958 0.507064C18.2904 0.523273 18.285 0.544879 18.2796 0.571898C18.2742 0.598917 18.2228 0.706963 18.1254 0.896066C18.028 1.08517 17.9063 1.27696 17.7602 1.47146C17.6141 1.66597 17.4832 1.81291 17.3674 1.91233C17.2506 2.01283 17.1732 2.08306 17.1353 2.12304C17.0974 2.1641 17.0515 2.20191 16.9973 2.2365L16.9162 2.28999L16.9 2.29809L16.8837 2.3062L16.8805 2.31106L16.8756 2.3143L16.8707 2.31754L16.8675 2.32241L16.8513 2.33051L16.835 2.33861L16.8318 2.34348L16.8269 2.34672L16.822 2.34996L16.8188 2.35482L16.8156 2.35969L16.8107 2.36293L16.8058 2.36617L16.8026 2.37103H16.8837L17.3382 2.27378C17.6412 2.20895 17.9306 2.13061 18.2065 2.03876L18.6448 1.89288L18.6935 1.87667L18.7178 1.86857L18.734 1.86047L18.7503 1.85236L18.7665 1.84426L18.7827 1.83615L18.8152 1.83129L18.8477 1.82805V1.86047L18.8395 1.86371L18.8314 1.86857L18.8282 1.87343L18.8233 1.87667L18.8184 1.87992L18.8152 1.88478L18.812 1.88964L18.8071 1.89288L18.8022 1.89612L18.799 1.90099L18.7957 1.90585L18.7908 1.90909L18.7827 1.9253L18.7746 1.94151L18.7697 1.94475C18.7676 1.94799 18.6989 2.03983 18.5636 2.22029C18.4284 2.40183 18.3553 2.49366 18.3445 2.49584C18.3337 2.49908 18.3185 2.51529 18.2991 2.54446C18.2807 2.57471 18.166 2.6952 17.955 2.90591C17.744 3.11662 17.5373 3.30408 17.335 3.46834C17.1315 3.63367 17.0287 3.83681 17.0266 4.07778C17.0233 4.31766 17.0109 4.58889 16.9892 4.89144C16.9676 5.194 16.927 5.52086 16.8675 5.87205C16.808 6.22324 16.716 6.62034 16.5916 7.06337C16.4671 7.50639 16.3156 7.93862 16.1371 8.36004C15.9586 8.78146 15.7719 9.15965 15.5771 9.49463C15.3824 9.82961 15.2038 10.1133 15.0415 10.3456C14.8792 10.5779 14.7142 10.7967 14.5465 11.002C14.3788 11.2073 14.1667 11.4386 13.9103 11.6957C13.6527 11.9518 13.5121 12.0923 13.4882 12.1171C13.4634 12.1409 13.3573 12.2295 13.1701 12.383C12.984 12.5375 12.7838 12.692 12.5696 12.8465C12.3564 13 12.1606 13.128 11.982 13.2307C11.8035 13.3333 11.5882 13.4505 11.336 13.5824C11.085 13.7153 10.8134 13.8385 10.5212 13.9519C10.2291 14.0654 9.9207 14.1708 9.59608 14.268C9.27146 14.3653 8.95767 14.4409 8.65469 14.4949C8.35172 14.5489 8.00817 14.5949 7.62403 14.6327L7.04784 14.6894V14.6975H5.99283V14.6894L5.85487 14.6813C5.76291 14.6759 5.68716 14.6705 5.62764 14.6651C5.56814 14.6597 5.3436 14.63 4.95406 14.576C4.56452 14.5219 4.25884 14.4679 4.03702 14.4139C3.81521 14.3599 3.48517 14.2572 3.04693 14.1059C2.6087 13.9546 2.23377 13.8017 1.92214 13.6472C1.61159 13.4938 1.41682 13.3965 1.33783 13.3555C1.25992 13.3155 1.17227 13.2658 1.07489 13.2064L0.92881 13.1172L0.925581 13.1123L0.920695 13.1091L0.915826 13.1059L0.91258 13.101L0.896349 13.0929L0.880118 13.0848L0.876888 13.0799L0.872003 13.0767L0.867133 13.0734L0.863887 13.0686L0.860657 13.0637L0.855772 13.0605H0.847656V13.0281L0.863887 13.0313L0.880118 13.0362L0.953157 13.0443C1.00185 13.0497 1.13441 13.0578 1.35081 13.0686C1.56723 13.0794 1.79716 13.0794 2.04062 13.0686C2.28409 13.0578 2.53297 13.0335 2.78724 12.9956C3.04153 12.9578 3.3418 12.893 3.68805 12.8011C4.03432 12.7093 4.35245 12.6002 4.64244 12.4737C4.93135 12.3462 5.13693 12.2511 5.25921 12.1885C5.38039 12.1269 5.56543 12.0123 5.81429 11.8448L6.1876 11.5936L6.19085 11.5888L6.19572 11.5855L6.2006 11.5823L6.20383 11.5774L6.20708 11.5725L6.21195 11.5693L6.21683 11.5661L6.22006 11.5612L6.23629 11.5563L6.25253 11.5531L6.25577 11.5369L6.26064 11.5207L6.26553 11.5174L6.26876 11.5126L6.13891 11.5045C6.05235 11.4991 5.96849 11.4937 5.88733 11.4883C5.80618 11.4829 5.67904 11.4586 5.50591 11.4153C5.33279 11.3721 5.14613 11.3073 4.94594 11.2208C4.74577 11.1344 4.551 11.0317 4.36163 10.9129C4.17228 10.794 4.03539 10.6951 3.95099 10.6162C3.86768 10.5384 3.75947 10.4282 3.62638 10.2856C3.49437 10.1419 3.37967 9.99438 3.28228 9.84311C3.1849 9.69183 3.09185 9.5173 3.00313 9.31958L2.8684 9.02458L2.86028 9.00027L2.85216 8.97596L2.8473 8.95975L2.84405 8.94354L2.8684 8.94678L2.89274 8.95164L3.07128 8.97596C3.19032 8.99217 3.37697 8.99756 3.63125 8.99217C3.88553 8.98677 4.06136 8.97596 4.15875 8.95975C4.25613 8.94354 4.31565 8.93273 4.33729 8.92733L4.36975 8.91923L4.41033 8.91112L4.4509 8.90302L4.45415 8.89816L4.45902 8.89492L4.4639 8.89167L4.46713 8.88681L4.43467 8.87871L4.40221 8.8706L4.36975 8.8625L4.33729 8.85439L4.30482 8.84629C4.28319 8.84089 4.24532 8.83008 4.19121 8.81387C4.13711 8.79767 3.99103 8.73823 3.75298 8.63558C3.51493 8.53293 3.32557 8.43298 3.1849 8.33573C3.04388 8.23819 2.90941 8.13153 2.78237 8.01642C2.65577 7.89972 2.51674 7.74952 2.36524 7.56583C2.21376 7.38214 2.07851 7.16872 1.95947 6.92559C1.84045 6.68247 1.75118 6.45015 1.69166 6.22863C1.63238 6.00842 1.59327 5.78327 1.57481 5.55598L1.54558 5.21561L1.56181 5.21885L1.57804 5.22371L1.59427 5.23182L1.61051 5.23992L1.62674 5.24802L1.64297 5.25613L1.89455 5.36959C2.06227 5.44523 2.27057 5.51007 2.51943 5.56409C2.76832 5.61811 2.91709 5.64784 2.96578 5.65323L3.03882 5.66134H3.1849L3.18167 5.65648L3.17678 5.65323L3.17191 5.64999L3.16867 5.64513L3.16544 5.64027L3.16055 5.63703L3.15568 5.63378L3.15244 5.62892L3.1362 5.62082L3.11997 5.61271L3.11674 5.60785L3.11186 5.60461L3.10699 5.60137L3.10374 5.5965L3.08751 5.5884L3.07128 5.5803L3.06805 5.57543C3.06481 5.57326 3.01827 5.53869 2.92845 5.4717C2.83972 5.40362 2.74666 5.31556 2.64928 5.2075C2.55189 5.09944 2.45451 4.98598 2.35712 4.86713C2.25956 4.748 2.17266 4.62054 2.09743 4.48623C2.0217 4.35116 1.94161 4.17934 1.85721 3.9708C1.7739 3.76333 1.7106 3.55425 1.66731 3.34354C1.62404 3.13283 1.5997 2.92482 1.59427 2.71951C1.58887 2.5142 1.59427 2.33861 1.61051 2.19274C1.62674 2.04686 1.6592 1.88207 1.70789 1.69838C1.75658 1.51469 1.82693 1.32019 1.91889 1.11488L2.05685 0.80692L2.06497 0.782607L2.07308 0.758295L2.07797 0.755053L2.0812 0.750191L2.08445 0.745328L2.08932 0.742086L2.0942 0.745328L2.09743 0.750191L2.10068 0.755053L2.10555 0.758295L2.11043 0.761536L2.11366 0.766399L2.11691 0.771261L2.12178 0.774503L2.12989 0.790712L2.13801 0.80692L2.14289 0.810162L2.14612 0.815024L2.36524 1.05815C2.51132 1.22023 2.68445 1.40123 2.88463 1.60113C3.08482 1.80103 3.19572 1.90476 3.21736 1.91233C3.23901 1.92097 3.26605 1.94582 3.29851 1.98689C3.33097 2.02688 3.43919 2.12251 3.62313 2.27378C3.80709 2.42505 4.04784 2.60066 4.3454 2.80055C4.64298 3.00045 4.973 3.19766 5.33548 3.39216C5.69798 3.58666 6.08752 3.76225 6.5041 3.91893C6.9207 4.07562 7.21286 4.17827 7.38057 4.22689C7.5483 4.27552 7.83503 4.33765 8.2408 4.41329C8.64657 4.48894 8.95227 4.53756 9.15785 4.55917C9.36344 4.58077 9.50411 4.5932 9.57985 4.59645L9.69346 4.59969L9.69023 4.57538L9.68535 4.55106L9.65289 4.34846C9.63125 4.21339 9.62042 4.02429 9.62042 3.78116C9.62042 3.53804 9.63937 3.31383 9.67723 3.10851C9.71512 2.9032 9.77192 2.6952 9.84766 2.48449C9.92341 2.27378 9.99753 2.10466 10.07 1.97717C10.1436 1.85074 10.2399 1.70649 10.3589 1.5444C10.478 1.38232 10.6322 1.21484 10.8215 1.04194C11.0109 0.869047 11.2273 0.715067 11.4707 0.580002C11.7142 0.444938 11.9387 0.342274 12.1443 0.272042C12.3499 0.201811 12.5231 0.155877 12.6637 0.134271C12.8044 0.112665 12.8747 0.100233 12.8747 0.0969917Z" fill="#0098B0"/>
</svg>
