<svg width="68" height="67" viewBox="0 0 68 67" fill="none" xmlns="http://www.w3.org/2000/svg">
<path d="M67.3154 33.6542C67.3154 50.4884 54.8406 64.4055 38.6348 66.6639C37.1195 66.8741 35.5692 66.9838 33.9956 66.9838C32.1791 66.9838 30.3953 66.8391 28.6583 66.5588C12.7933 64.0038 0.675781 50.2431 0.675781 33.6542C0.675781 15.246 15.5951 0.322266 33.9979 0.322266C52.4007 0.322266 67.3201 15.246 67.3201 33.6542H67.3154Z" fill="#1C1C1B"/>
<path d="M14.1895 15.0215L29.5571 35.5737L14.0938 52.2841H17.5749L31.1144 37.6546L42.0529 52.2841H53.8973L37.6658 30.5758L52.0598 15.0215H48.5786L36.1108 28.4949L26.0362 15.0215H14.1918H14.1895ZM19.3073 17.5858H24.7474L48.7748 49.7197H43.3347L19.3073 17.5858Z" fill="white"/>
</svg>
